<svg width="142" height="25" viewBox="0 0 142 25" fill="none" xmlns="http://www.w3.org/2000/svg">
<g id="logo">
<path id="Vector" d="M69.6725 0.733398H63.7452V24.7334H69.018V8.9152H69.3453L74.9458 18.0424H77.7448L83.3458 8.9152H83.6728V24.7334H88.9818V0.733398H83.1638L76.4728 11.6061L69.6725 0.733398ZM99.9998 0.733398H94.6538V24.7334H99.9998V14.4788H102.654L110.036 24.7334H116.982L107.127 11.9334L116.109 0.733398H109.454L102.618 9.5698L99.9998 9.8607V0.733398ZM140.036 0.733398H120.836V24.7334H131.745C133.127 24.7334 134.363 24.5516 135.527 24.2244C136.69 23.8606 137.673 23.3516 138.509 22.7334C139.346 22.0425 140 21.2425 140.509 20.297C140.945 19.2788 141.2 18.2244 141.2 16.9516C141.2 15.6788 140.945 14.5516 140.509 13.5334C140 12.5879 139.346 11.7879 138.545 11.1698C137.673 10.5152 136.69 10.0425 135.527 9.7516C134.363 9.4243 133.127 9.2789 131.745 9.2789H126.182V5.5698H135.273L140.036 0.733398ZM126.218 19.9334V13.9698H131.927C133.163 13.9698 134.109 14.2243 134.763 14.7698C135.454 15.2788 135.782 15.9698 135.782 16.9516C135.782 17.8606 135.454 18.5516 134.763 19.1334C134.109 19.6425 133.09 19.9334 131.781 19.9334H126.218ZM30.6544 0.769798L18.6544 12.7334L12.6907 6.7334L18.6907 0.733398H6.6907L0.799805 6.7334L18.7998 24.7334L34.1453 9.2425H43.3452L51.818 0.769798H30.6544Z" fill="#BB0032"/>
<path id="Vector_2" d="M21.2725 24.4791L22.9817 22.77L34.8361 10.9155H51.8544L43.3452 19.3883H38.327L33.3089 24.4791H21.2725Z" fill="#BB0032"/>
</g>
</svg>
