<svg width="156" height="29" viewBox="0 0 156 29" fill="none" xmlns="http://www.w3.org/2000/svg">
<g id="logo">
<path id="Vector" d="M69.7665 9.38418L73.0598 6.58418H62.1398V23.1842H73.0598V20.3842H65.2598V16.1842H71.8465V13.3842H65.2598V9.38418H69.7665ZM56.1598 9.38418L59.4531 6.58418H46.9731V23.1842H53.4731C57.1131 23.1842 59.1931 21.2842 59.1931 17.9842C59.1931 14.7842 57.2865 13.0842 53.8198 13.0842H50.0065V9.38418H56.1598ZM53.3865 15.7842C55.3798 15.7842 56.2465 16.5842 56.2465 18.0842C56.2465 19.5842 55.2931 20.3842 53.3865 20.3842H50.0931V15.7842H53.3865ZM81.8131 6.58418H75.9198V23.1842H79.0398V18.4842H81.8998C85.7131 18.4842 88.0531 16.1842 88.0531 12.4842C88.0531 8.78418 85.6265 6.58418 81.8131 6.58418ZM81.8131 15.6842H79.0398V9.28418H81.8131C83.8065 9.28418 84.9331 10.3842 84.9331 12.4842C84.8465 14.5842 83.8065 15.6842 81.8131 15.6842ZM41.6865 19.5842C40.8198 20.0842 39.9531 20.3842 38.9998 20.3842C36.2265 20.3842 34.1465 18.0842 34.1465 14.8842C34.1465 11.6842 36.1398 9.38418 38.9998 9.38418C40.0398 9.38418 40.9931 9.78418 41.8598 10.3842L44.1131 8.48418L43.9398 8.28418C42.6398 6.98418 40.9065 6.28418 38.9131 6.28418C36.7465 6.28418 34.8398 7.08418 33.3665 8.68418C31.9798 10.2842 31.1131 12.4842 31.1998 14.7842C31.1998 17.0842 31.9798 19.2842 33.3665 20.9842C34.8398 22.5842 36.8331 23.4842 38.8265 23.3842C41.0798 23.3842 42.9865 22.4842 44.3731 20.8842L42.3798 19.1842L41.6865 19.5842ZM135.2 13.3842H128.526V6.58418H125.406V23.1842H128.526V16.3842H135.2V23.1842H138.32V6.58418H135.2V13.3842ZM114.14 6.58418L107.9 23.1842H111.02L112.233 19.8842H118.82L120.033 23.1842H123.326L117.26 6.58418H114.14ZM113.273 17.0842L115.7 10.3842L117.953 17.0842H113.273ZM149.586 14.5842L155.22 6.58418H151.666L146.986 13.6842H145.253V6.58418H142.133V23.1842H145.253V16.4842H147.246L152.013 23.1842H156L149.586 14.5842ZM101.4 13.0842H97.5865V9.38418H105.733V6.58418H94.4665V23.1842H100.966C104.606 23.1842 106.686 21.2842 106.686 17.9842C106.773 14.7842 104.866 13.0842 101.4 13.0842ZM100.88 20.4842H97.5865V15.8842H100.88C102.873 15.8842 103.74 16.6842 103.74 18.1842C103.826 19.6842 102.786 20.4842 100.88 20.4842Z" fill="#21A038"/>
<g id="Group 1">
<path id="Vector_2" d="M21.2167 6.26514C21.7793 7.11577 22.2556 8.0399 22.636 9.01899L11.8469 18.3193L7.33789 15.014V11.0376L11.8469 14.3429L21.2167 6.26514Z" fill="#21A038"/>
<path id="Vector_3" d="M2.73632 14.7334C2.73632 14.555 2.74004 14.3777 2.74748 14.2015L0.0148822 14.0449C0.00558134 14.2733 3.30222e-06 14.5039 3.30222e-06 14.7366C-0.00115934 16.555 0.304698 18.3557 0.900036 20.0354C1.49537 21.7152 2.36846 23.241 3.46923 24.5252L5.40753 22.2597C4.5602 21.2729 3.88801 20.0999 3.42959 18.8083C2.97117 17.5167 2.73557 16.1318 2.73632 14.7334Z" fill="url(#paint0_linear_22_257)"/>
<path id="Vector_4" d="M11.8447 4.08287C11.9972 4.08287 12.1488 4.0894 12.2995 4.09809L12.4362 0.901578C12.2403 0.890702 12.0431 0.885264 11.8447 0.885264C10.289 0.883046 8.7483 1.24019 7.311 1.93619C5.87369 2.63219 4.56812 3.65335 3.46924 4.94101L5.40754 7.20761C6.25149 6.21644 7.25467 5.43011 8.35939 4.89386C9.46411 4.3576 10.6485 4.08199 11.8447 4.08287Z" fill="url(#paint1_linear_22_257)"/>
<path id="Vector_5" d="M11.8449 25.3848C11.6924 25.3848 11.5407 25.3848 11.3892 25.3707L11.2524 28.5661C11.449 28.5777 11.6465 28.5836 11.8449 28.5836C13.3999 28.5854 14.9399 28.2281 16.3764 27.5319C17.813 26.8357 19.1177 25.8144 20.2157 24.5267L18.2812 22.2612C17.437 23.2519 16.434 24.0378 15.3295 24.5738C14.225 25.1099 13.0408 25.3855 11.8449 25.3848Z" fill="url(#paint2_linear_22_257)"/>
<path id="Vector_6" d="M16.9787 5.94125L19.2816 3.95634C17.1767 1.96323 14.5493 0.878256 11.8408 0.88381V4.0825C13.6749 4.07984 15.4663 4.72797 16.9787 5.94125Z" fill="url(#paint3_linear_22_257)"/>
<path id="Vector_7" d="M23.6885 14.7339C23.69 13.9018 23.6277 13.0711 23.5025 12.252L20.9531 14.4489C20.9531 14.5436 20.9531 14.6382 20.9531 14.7339C20.9538 16.2221 20.687 17.6938 20.1702 19.0537C19.6532 20.4136 18.8977 21.6313 17.9526 22.6278L19.7914 25.0044C21.0201 23.7072 22.002 22.1227 22.6733 20.3534C23.3447 18.5841 23.6906 16.6696 23.6885 14.7339Z" fill="#21A038"/>
<path id="Vector_8" d="M11.8448 25.3851C10.5721 25.3857 9.31349 25.0736 8.15042 24.4692C6.98741 23.8648 5.94588 22.9814 5.09332 21.8765L3.06201 24.0256C4.1711 25.4626 5.5261 26.611 7.03914 27.3962C8.55218 28.1814 10.1894 28.5861 11.8448 28.5838V25.3851Z" fill="url(#paint4_linear_22_257)"/>
<path id="Vector_9" d="M5.73679 6.83934L3.89894 4.46289C2.66989 5.75974 1.68768 7.3442 1.01599 9.11351C0.344314 10.8828 -0.00183123 12.7975 7.28552e-06 14.7333H2.73633C2.73576 13.2452 3.00257 11.7734 3.51945 10.4136C4.03633 9.05373 4.79176 7.83601 5.73679 6.83934Z" fill="url(#paint5_linear_22_257)"/>
</g>
</g>
<defs>
<linearGradient id="paint0_linear_22_257" x1="4.02264" y1="24.1261" x2="0.0894067" y2="14.4028" gradientUnits="userSpaceOnUse">
<stop offset="0.14" stop-color="#F1E813"/>
<stop offset="0.3" stop-color="#E6E418"/>
<stop offset="0.58" stop-color="#C9DA26"/>
<stop offset="0.89" stop-color="#A2CC39"/>
</linearGradient>
<linearGradient id="paint1_linear_22_257" x1="4.25051" y1="5.50657" x2="12.2223" y2="2.90864" gradientUnits="userSpaceOnUse">
<stop offset="0.06" stop-color="#0FA7DF"/>
<stop offset="0.54" stop-color="#0098F8"/>
<stop offset="0.92" stop-color="#0290EA"/>
</linearGradient>
<linearGradient id="paint2_linear_22_257" x1="11.072" y1="26.653" x2="19.8946" y2="24.9486" gradientUnits="userSpaceOnUse">
<stop offset="0.12" stop-color="#A2CC39"/>
<stop offset="0.28" stop-color="#86C239"/>
<stop offset="0.87" stop-color="#219F38"/>
</linearGradient>
<linearGradient id="paint3_linear_22_257" x1="11.2717" y1="1.95512" x2="18.8941" y2="3.96669" gradientUnits="userSpaceOnUse">
<stop offset="0.06" stop-color="#0290EA"/>
<stop offset="0.79" stop-color="#0C89CA"/>
</linearGradient>
<linearGradient id="paint4_linear_22_257" x1="3.74841" y1="23.6362" x2="12.1273" y2="26.3141" gradientUnits="userSpaceOnUse">
<stop offset="0.13" stop-color="#F1E813"/>
<stop offset="0.3" stop-color="#EAE616"/>
<stop offset="0.53" stop-color="#D8DF1F"/>
<stop offset="0.8" stop-color="#BAD52D"/>
<stop offset="0.98" stop-color="#A2CC39"/>
</linearGradient>
<linearGradient id="paint5_linear_22_257" x1="1.01938" y1="15.1205" x2="5.2661" y2="5.67332" gradientUnits="userSpaceOnUse">
<stop offset="0.07" stop-color="#A2CC39"/>
<stop offset="0.26" stop-color="#81C45E"/>
<stop offset="0.92" stop-color="#0FA7DF"/>
</linearGradient>
</defs>
</svg>
