<svg width="156" height="34" viewBox="0 0 156 34" fill="none" xmlns="http://www.w3.org/2000/svg">
<g id="logo">
<path id="Vector" d="M0 28.7938H20.6015V33.3138H0V28.7938ZM148.985 14.2838L155.48 6.70381H150.639L145.316 13.0038V6.70381H141.459V22.6338H145.335V15.9238L151.027 22.6338H156L148.985 14.2838ZM22.8705 15.3338C22.7665 18.3338 22.4073 18.9038 20.8378 18.9038V22.6438H21.424C25.3665 22.6438 26.3025 20.4938 26.4444 15.7038L26.6145 10.4038H30.2545V22.6338H34.112V6.70381H23.1353L22.8705 15.3338ZM6.12654 18.0738H14.2575L15.6095 22.6338H20.1193L14.04 3.47381C13.4538 1.62381 12.7731 0.153809 10.4473 0.153809C8.12145 0.153809 7.41236 1.62381 6.78836 3.47381L0.416001 22.6338H4.65164L6.12654 18.0738ZM10.2487 5.15381H10.3527L13.0756 14.2338H7.34618L10.2487 5.15381ZM100.36 8.96381H96.0582V4.46381H106.042V0.463809H92.0116V22.6338H100.36C104.983 22.6338 107.64 20.1938 107.64 15.7338C107.64 11.5038 104.945 8.96381 100.36 8.96381ZM100.161 18.6238H96.0582V12.8638H100.161C102.298 12.8638 103.499 13.8638 103.499 15.7438C103.499 17.6238 102.298 18.6238 100.161 18.6238ZM62.0124 6.33381V0.433808H58.1644V6.33381C56.1438 6.40431 54.2323 7.32011 52.8496 8.88001C51.4669 10.44 50.7261 12.5166 50.7898 14.6538C50.721 16.7954 51.4592 18.8782 52.8422 20.4441C54.2251 22.0101 56.1396 22.9308 58.1644 23.0038V29.0038H62.0218V23.0038C63.0248 22.9689 64.0114 22.7252 64.9251 22.2864C65.8389 21.8477 66.6618 21.2226 67.3469 20.447C68.0319 19.6713 68.5655 18.7604 68.9172 17.7663C69.2689 16.7722 69.4317 15.7145 69.3964 14.6538C69.4368 13.5924 69.277 12.5331 68.9263 11.5378C68.5755 10.5424 68.0409 9.63091 67.3535 8.85641C66.6662 8.08201 65.8399 7.46001 64.9229 7.02691C64.0058 6.59381 63.0164 6.35821 62.0124 6.33381ZM58.1738 19.1538C57.1529 19.0352 56.217 18.4969 55.568 17.6551C54.9188 16.8133 54.6085 15.7354 54.704 14.6538C54.6208 13.5749 54.9355 12.5038 55.5824 11.665C56.2292 10.8261 57.1579 10.2846 58.1738 10.1538V19.1538ZM62.0313 19.1538V10.1538C63.0472 10.2846 63.9759 10.8261 64.6227 11.665C65.2695 12.5038 65.5843 13.5749 65.5011 14.6538C65.5916 15.7343 65.2795 16.8094 64.6313 17.6501C63.9832 18.4907 63.0502 19.0303 62.0313 19.1538ZM83.8524 17.7438V12.3738C83.8524 8.45381 81.4982 6.00381 77.5462 6.00381C73.5942 6.00381 71.2873 8.60381 71.0982 11.3138H75.0029C75.1353 10.7338 75.7215 9.70381 77.5367 9.70381C77.8761 9.65761 78.2203 9.69541 78.5427 9.81441C78.866 9.93341 79.1582 10.1301 79.3964 10.3892C79.6347 10.6482 79.8134 10.9624 79.9174 11.3068C80.0214 11.6513 80.0479 12.0166 79.9949 12.3738H76.2131C72.7905 12.3738 70.7578 14.2838 70.7578 17.4438C70.7312 18.1979 70.8544 18.9495 71.1197 19.65C71.3851 20.3505 71.7866 20.9842 72.2981 21.5102C72.8096 22.0362 73.4199 22.4427 74.0895 22.7035C74.759 22.9642 75.4728 23.0733 76.1847 23.0238C76.9885 23.0685 77.7901 22.903 78.5191 22.542C79.248 22.1809 79.8815 21.6355 80.3636 20.9538C80.6775 21.5153 81.1351 21.9711 81.6844 22.2684C82.2328 22.5658 82.8502 22.6925 83.4647 22.6338H84.7978V18.9538C84.1455 18.9538 83.8524 18.6238 83.8524 17.7438ZM79.9949 16.7438C80.011 17.1377 79.9476 17.5307 79.8087 17.8968C79.6706 18.2629 79.4607 18.5939 79.1932 18.8679C78.9247 19.1419 78.6051 19.3527 78.2543 19.4865C77.9036 19.6202 77.5301 19.6738 77.1585 19.6438C75.7687 19.6438 74.672 19.1138 74.672 17.5238C74.672 15.9338 75.8916 15.7038 76.9222 15.7038H79.9949V16.7438ZM43.7178 11.5438H40.9476V6.70381H37.0902V22.6338H43.784C47.9724 22.6338 49.4567 19.7538 49.4567 17.0338C49.4756 13.5238 47.3956 11.5438 43.7178 11.5438ZM43.4342 19.1538H40.9476V15.1538H43.4342C44.7673 15.1538 45.5709 15.7938 45.5709 17.1538C45.5709 18.5138 44.8051 19.1538 43.4342 19.1538ZM122.361 17.7438V12.3738C122.361 8.45381 120.007 6.00381 116.055 6.00381C112.103 6.00381 109.796 8.60381 109.607 11.3138H113.511C113.644 10.7338 114.23 9.70381 116.045 9.70381C116.385 9.65761 116.729 9.69541 117.051 9.81441C117.374 9.93341 117.667 10.1301 117.905 10.3892C118.143 10.6482 118.322 10.9624 118.426 11.3068C118.53 11.6513 118.556 12.0166 118.503 12.3738H114.721C111.299 12.3738 109.266 14.2838 109.266 17.4438C109.24 18.1979 109.363 18.9495 109.628 19.65C109.893 20.3505 110.295 20.9842 110.806 21.5102C111.318 22.0362 111.929 22.4427 112.598 22.7035C113.267 22.9642 113.981 23.0733 114.693 23.0238C115.504 23.0769 116.315 22.9155 117.054 22.5542C117.791 22.1928 118.432 21.6428 118.919 20.9538C119.228 21.5055 119.678 21.955 120.215 22.2518C120.753 22.5486 121.359 22.6809 121.964 22.6338H123.297V18.9538C122.625 18.9538 122.361 18.6238 122.361 17.7438ZM118.522 16.7438C118.536 17.1373 118.472 17.5295 118.333 17.8949C118.194 18.2603 117.984 18.5906 117.717 18.8643C117.449 19.1379 117.13 19.3488 116.78 19.4832C116.43 19.6175 116.057 19.6722 115.686 19.6438C114.296 19.6438 113.199 19.1138 113.199 17.5238C113.199 15.9338 114.419 15.7038 115.449 15.7038H118.522V16.7438ZM134.68 12.6338H129.357V6.70381H125.5V22.6438H129.357V16.3638H134.68V22.6338H138.537V6.70381H134.68V12.6338Z" fill="#EF3124"/>
</g>
</svg>
