<svg width="156" height="35" viewBox="0 0 156 35" fill="none" xmlns="http://www.w3.org/2000/svg">
<g id="logo">
<path id="Vector" d="M1.62012 2.01367H33.0101V33.4037H1.62012V2.01367Z" fill="#FFED00"/>
<g id="Group">
<path id="Vector_2" d="M71.0299 21.0836L70.2199 26.0836H75.0999L75.9099 21.0836H79.4999L77.2999 34.5336H73.7399L74.6699 28.7636H69.7899L68.8599 34.5336H65.2599L67.4999 21.0836H71.0699H71.0299ZM85.2499 21.0836H81.4999L79.2499 34.5336H82.9299L83.9299 28.7236L87.7299 34.5736H92.4999L87.4999 27.4836L94.1999 21.1236H89.6999L84.3099 26.6636L85.2499 21.0836ZM59.7499 29.4936L58.9699 25.1936L56.7199 29.4936H59.7499ZM60.2899 32.1636H55.2099L53.8599 34.4936H49.9399L57.6099 21.0436H61.6099L64.7099 34.4936H60.7999L60.2899 32.1636ZM50.6399 30.4536C50.5342 31.3573 50.1578 32.2078 49.5599 32.8936C48.1299 34.3636 45.9599 34.4436 44.5599 34.4836H39.1699L41.4999 21.0836H50.6799L50.2499 23.7136H44.6799L44.2499 26.3836H45.8399C47.1953 26.289 48.5407 26.6749 49.6399 27.4736C50.0529 27.8436 50.3624 28.3149 50.5378 28.841C50.7131 29.3671 50.7483 29.9298 50.6399 30.4736V30.4536ZM44.8299 28.8936H43.8299L43.3299 31.7636H44.2599C46.3499 31.7636 46.7799 31.1836 46.8999 30.4036C47.0199 29.6236 46.8999 28.8936 44.8099 28.8936H44.8299ZM137.81 8.62355H141.53C141.445 8.20835 141.215 7.83665 140.882 7.57485C140.549 7.31295 140.134 7.17786 139.71 7.19355C139.271 7.14876 138.832 7.27115 138.48 7.53625C138.128 7.80135 137.888 8.18965 137.81 8.62355ZM144.5 10.1536V10.5036H137.76C137.728 10.774 137.757 11.0482 137.847 11.3054C137.936 11.5627 138.082 11.7965 138.275 11.989C138.467 12.1815 138.701 12.3279 138.958 12.417C139.215 12.5062 139.49 12.5358 139.76 12.5036C140.068 12.5298 140.377 12.4627 140.646 12.3111C140.915 12.1595 141.133 11.9304 141.27 11.6536H144.37C143.87 13.8236 141.85 14.7936 139.8 14.7936C136.8 14.7936 134.57 13.0936 134.57 9.91356C134.532 9.25245 134.636 8.59085 134.876 7.97345C135.115 7.35605 135.485 6.79726 135.958 6.33475C136.432 5.87216 137 5.51665 137.623 5.29225C138.246 5.06775 138.91 4.97956 139.57 5.03356C142.71 5.03356 144.49 7.03356 144.49 10.1536H144.5ZM55.5999 7.71355C55.3247 7.69965 55.0496 7.74285 54.7919 7.84025C54.5341 7.93775 54.2993 8.08735 54.1021 8.27985C53.9049 8.47235 53.7497 8.70345 53.646 8.95885C53.5424 9.21415 53.4926 9.48806 53.4999 9.76356C53.493 10.0347 53.5414 10.3043 53.6419 10.5562C53.7425 10.808 53.8933 11.0367 54.085 11.2285C54.2768 11.4202 54.5055 11.571 54.7573 11.6715C55.0092 11.7721 55.2788 11.8205 55.5499 11.8136C55.8237 11.8312 56.0981 11.7903 56.3548 11.6935C56.6115 11.5967 56.8446 11.4463 57.0386 11.2523C57.2326 11.0583 57.383 10.8252 57.4798 10.5685C57.5766 10.3118 57.6175 10.0374 57.5999 9.76356C57.6067 9.49246 57.5584 9.22285 57.4578 8.97095C57.3572 8.71915 57.2065 8.49045 57.0147 8.29865C56.823 8.10695 56.5943 7.95615 56.3424 7.85565C56.0906 7.75505 55.821 7.70665 55.5499 7.71355H55.5999ZM60.6999 5.19355V14.3436H57.4999V13.3436C57.1971 13.7753 56.7896 14.123 56.3155 14.3539C55.8414 14.5848 55.3165 14.6914 54.7899 14.6636C54.1696 14.6484 53.5586 14.5091 52.9929 14.2541C52.4272 13.999 51.9183 13.6333 51.4961 13.1786C51.074 12.7238 50.7471 12.1891 50.5348 11.6061C50.3225 11.023 50.229 10.4033 50.2599 9.78355C50.2263 9.16595 50.3165 8.54785 50.5252 7.96565C50.7339 7.38335 51.0569 6.84875 51.4752 6.39316C51.8936 5.93756 52.3988 5.57015 52.9611 5.31265C53.5235 5.05515 54.1317 4.91265 54.7499 4.89355C55.267 4.88145 55.7806 4.98155 56.2554 5.18695C56.7301 5.39245 57.1547 5.69825 57.4999 6.08355V5.19355H60.6999ZM107.55 7.71355C107.279 7.70665 107.009 7.75505 106.757 7.85565C106.506 7.95615 106.277 8.10695 106.085 8.29865C105.893 8.49045 105.743 8.71915 105.642 8.97095C105.541 9.22285 105.493 9.49246 105.5 9.76356C105.493 10.0347 105.541 10.3043 105.642 10.5562C105.743 10.808 105.893 11.0367 106.085 11.2285C106.277 11.4202 106.506 11.571 106.757 11.6715C107.009 11.7721 107.279 11.8205 107.55 11.8136C107.824 11.8312 108.098 11.7903 108.355 11.6935C108.612 11.5967 108.845 11.4463 109.039 11.2523C109.233 11.0583 109.383 10.8252 109.48 10.5685C109.577 10.3118 109.618 10.0374 109.6 9.76356C109.607 9.49246 109.559 9.22285 109.458 8.97095C109.357 8.71915 109.207 8.49045 109.015 8.29865C108.823 8.10695 108.594 7.95615 108.343 7.85565C108.091 7.75505 107.821 7.70665 107.55 7.71355ZM112.67 5.19355V14.3436H109.5V13.3436C109.197 13.7753 108.79 14.123 108.316 14.3539C107.842 14.5848 107.317 14.6914 106.79 14.6636C106.17 14.6484 105.559 14.5091 104.993 14.2541C104.427 13.999 103.918 13.6333 103.496 13.1786C103.074 12.7238 102.747 12.1891 102.535 11.6061C102.323 11.023 102.229 10.4033 102.26 9.78355C102.228 9.16595 102.319 8.54815 102.529 7.96635C102.739 7.38465 103.063 6.85075 103.483 6.39615C103.902 5.94145 104.408 5.57525 104.971 5.31895C105.533 5.06255 106.142 4.92135 106.76 4.90355C107.285 4.88685 107.806 4.98566 108.289 5.19306C108.771 5.40036 109.201 5.71125 109.55 6.10355V5.19355H112.67ZM39.6699 14.3436V0.893555H45.0999C48.7399 0.893555 49.7899 3.49355 49.7899 5.31355C49.8153 5.92595 49.7094 6.53665 49.4795 7.10475C49.2496 7.67285 48.9009 8.18525 48.4568 8.60765C48.0126 9.02995 47.4834 9.35245 46.9044 9.55355C46.3254 9.75465 45.7102 9.82965 45.0999 9.77355H43.0999V14.3436H39.6699ZM43.1199 3.80355V6.89355H44.2799C45.8699 6.89355 46.0199 5.89355 46.0199 5.38355C46.0199 4.87355 45.7899 3.87355 44.2799 3.87355H43.2799L43.1599 3.80355H43.1199ZM62.7299 5.20356V14.3536H65.8299L69.0099 9.35355V14.3536H72.2299V5.19355H69.1299L65.9499 10.1136V5.19355L62.7299 5.20356ZM67.7299 4.04355C68.4843 4.10425 69.2389 3.93015 69.8906 3.54535C70.5422 3.16045 71.0589 2.5835 71.3699 1.89355L69.2799 1.11355C69.2023 1.44918 69.0077 1.74621 68.731 1.95144C68.4543 2.15666 68.1136 2.25666 67.7699 2.23355C67.4253 2.26087 67.0826 2.16247 66.805 1.95657C66.5274 1.75067 66.3337 1.45119 66.2599 1.11355L64.1699 1.89355C64.485 2.57033 64.9975 3.13596 65.64 3.51606C66.2825 3.89626 67.025 4.07315 67.7699 4.02355L67.7299 4.04355ZM78.8499 18.3236V14.4936C76.9499 14.4936 73.7699 13.7136 73.7699 9.76356C73.7699 5.81356 76.9099 5.07355 78.8499 5.07355V1.07355H82.0699V5.07355C84.0099 5.07355 87.0699 5.85356 87.0699 9.76356C87.0699 13.6736 83.9299 14.4936 82.0699 14.4936V18.3736L78.8499 18.3236ZM81.8499 7.32355V12.4036C82.9399 12.4036 84.0199 11.6236 84.0199 9.84356C84.0199 8.06356 82.9299 7.28356 81.8499 7.32355ZM79.0599 12.3236V7.32355C77.9699 7.32355 76.8899 8.10355 76.8899 9.88355C76.8899 11.6636 77.9799 12.4036 79.0599 12.3636V12.3236ZM93.2799 18.3636V14.4936C91.3799 14.4936 88.1999 13.7136 88.1999 9.76356C88.1999 5.81356 91.3399 5.07355 93.2799 5.07355V1.07355H96.4999V5.07355C98.4399 5.07355 101.58 5.85356 101.58 9.76356C101.58 13.6736 98.4399 14.4936 96.4999 14.4936V18.3736H93.2799V18.3636ZM96.2799 7.36355V12.4436C97.3699 12.4436 98.4499 11.6636 98.4499 9.88355C98.4499 8.10355 97.3599 7.32355 96.2799 7.36355ZM93.4499 12.3636V7.36355C92.3599 7.36355 91.2399 8.14356 91.2399 9.92356C91.2099 10.2362 91.2469 10.5514 91.3479 10.8488C91.4479 11.1462 91.6109 11.419 91.8239 11.6493C92.0369 11.8796 92.2969 12.0623 92.5859 12.1854C92.8749 12.3085 93.1859 12.3692 93.4999 12.3636H93.4499ZM114.77 5.19355V14.3436H117.87L121.05 9.34356V14.3436H124.27V5.19355H121.17L117.95 10.0736V5.19355H114.77ZM119.77 4.03356C120.512 4.08026 121.25 3.90075 121.888 3.51855C122.525 3.13645 123.032 2.56979 123.34 1.89355L121.25 1.11355C121.172 1.44918 120.978 1.74621 120.701 1.95144C120.424 2.15666 120.084 2.25666 119.74 2.23355C119.395 2.26526 119.05 2.16856 118.771 1.96194C118.493 1.75532 118.3 1.45327 118.23 1.11355L116.13 1.89355C116.445 2.57033 116.958 3.13596 117.6 3.51606C118.243 3.89626 118.985 4.07315 119.73 4.02355L119.77 4.03356ZM126.67 7.82355C127.365 7.34215 128.185 7.07135 129.03 7.04355C129.42 7.04355 130.31 7.12355 130.31 7.85355C130.31 8.58355 129.53 8.63355 129.23 8.63355H127.64V10.6336H129.04C129.51 10.6336 130.36 10.6336 130.36 11.4136C130.36 11.7236 130.17 12.3036 129.04 12.3036C128.059 12.3013 127.101 12.0053 126.29 11.4536L125.5 13.6436C126.75 14.3612 128.169 14.7339 129.61 14.7236C133.29 14.7236 133.76 12.5936 133.76 11.8936C133.764 11.3597 133.58 10.8415 133.24 10.43C132.899 10.0184 132.425 9.73995 131.9 9.64355C132.307 9.46056 132.65 9.15995 132.886 8.78035C133.121 8.40085 133.237 7.95975 133.22 7.51355C133.22 5.38355 130.97 4.95356 129.58 4.95356C128.277 4.97765 126.995 5.28115 125.82 5.84355L126.67 7.82355ZM146.12 14.3336H149.34V10.6936H152.29V14.3336H155.5V5.19355H152.28V8.41356H149.33V5.19355H146.11L146.12 14.3336Z" fill="black"/>
<path id="Vector_3" d="M34.1 34.4936H0.5V0.893555H34.1V34.4936ZM33.01 2.01355H1.62V33.4036H33.01V2.01355Z" fill="black"/>
<path id="Vector_4" d="M17.3198 21.5435L7.66978 31.1935L3.82978 27.3535L13.4998 17.7135L11.4998 15.7135V11.7135L10.0998 10.3135V13.7635L8.89978 14.9635L3.97978 10.1235L2.77979 11.3235C2.78629 10.2484 3.00528 9.18519 3.42398 8.19499C3.84278 7.20479 4.45298 6.30709 5.21978 5.55349C5.95988 4.72419 6.99598 4.21869 8.10498 4.14569C9.21408 4.07279 10.3075 4.43829 11.1498 5.16349L16.0298 10.0835L14.7898 11.3235L17.3198 13.8935L19.8798 11.3335L18.6398 10.0935L23.4998 5.15349C24.341 4.42579 25.435 4.05869 26.5448 4.13169C27.6547 4.20469 28.6912 4.71189 29.4298 5.54349C30.1966 6.29709 30.8068 7.19479 31.2256 8.18499C31.6443 9.17519 31.8632 10.2384 31.8698 11.3135L30.6698 10.1135L25.7498 14.9935L24.5498 13.7935V10.3135L23.1598 11.7135V15.7135L21.1598 17.7135L30.8098 27.3635L26.9698 31.1935L17.3198 21.5435Z" fill="black"/>
</g>
</g>
</svg>
