<svg width="108" height="36" viewBox="0 0 108 36" fill="none" xmlns="http://www.w3.org/2000/svg">
<g id="logo">
<path id="Vector" d="M31.4289 4.73H5.79016L7.64991 0H33.2564L31.4289 4.73ZM30.5152 7.08H4.87641L3.02741 11.8H28.6339L30.5152 7.08ZM27.7417 14.13H2.11366L0.253906 18.85H25.8389L27.7417 14.13Z" fill="#009FDF"/>
<path id="Vector_2" d="M92.4138 30.6501H97.004C97.6598 30.7269 98.3263 30.6501 98.9423 30.4265C99.5572 30.203 100.103 29.8399 100.53 29.3701C101.171 28.601 101.488 27.6411 101.422 26.6701C101.461 26.0518 101.336 25.434 101.059 24.8709C100.782 24.3078 100.36 23.8166 99.8313 23.4401C98.9724 22.9196 97.9511 22.6803 96.9288 22.7601H92.36V30.6401L92.4138 30.6501ZM86.3615 35.4001V7.08005H106.174L104.422 11.8301H92.4138V18.1001H97.305C101.261 18.1001 103.304 18.9801 104.723 20.1001C105.736 20.9391 106.533 21.9799 107.054 23.1451C107.576 24.3104 107.808 25.57 107.733 26.8301C107.807 28.1815 107.519 29.5288 106.893 30.7508C106.268 31.9727 105.327 33.0309 104.153 33.8301C102.239 35.0601 100.251 35.4101 96.1978 35.4101L86.3615 35.4001ZM68.8068 35.4001V11.8301H59.9918V7.08005H84.4481L82.6958 11.8301H74.902V35.4301H68.796L68.8068 35.4001ZM44.4043 18.4001H47.8765C48.5972 18.4559 49.323 18.4054 50.0265 18.2501C50.7472 18.0335 51.3679 17.5964 51.7876 17.0099C52.2073 16.4234 52.4012 15.7222 52.3378 15.0201C52.4366 14.3225 52.2555 13.6156 51.829 13.0344C51.4027 12.4533 50.7609 12.0388 50.0265 11.8701C49.27 11.7034 48.492 11.6361 47.7153 11.6701H44.4903V18.4001H44.4043ZM44.4043 23.3001V30.7301H48.629C49.7785 30.8469 50.9326 30.5499 51.854 29.9001C52.2869 29.5356 52.628 29.0866 52.8528 28.5853C53.0777 28.084 53.1808 27.5427 53.1548 27.0001C53.1774 26.1301 52.8943 25.2769 52.3485 24.5701C51.4563 23.4901 50.3275 23.2901 48.4463 23.2901H44.415L44.4043 23.3001ZM54.1653 20.3V20.4001C55.2027 20.7916 56.1669 21.3316 57.0248 22.0001C57.8955 22.6702 58.5825 23.5224 59.0307 24.487C59.479 25.4516 59.6757 26.5013 59.6048 27.5501C59.6048 31.43 57.401 34.2301 53.7675 35.0501C52.3164 35.3836 50.8208 35.5184 49.3278 35.4501H38.3628V7.08005H48.1238C49.6767 7.02585 51.2308 7.16025 52.7463 7.48005C56.2723 8.36005 58.5835 10.6301 58.5835 14.2101C58.6136 15.0588 58.4567 15.9043 58.1245 16.6952C57.7913 17.486 57.2892 18.2055 56.6485 18.8101C55.9659 19.4549 55.1511 19.965 54.2513 20.3101H54.1653V20.3Z" fill="#0A2973"/>
</g>
</svg>
