<svg width="33" height="26" viewBox="0 0 33 26" xmlns="http://www.w3.org/2000/svg">
<path d="M3.3 26C2.3925 26 1.61535 25.6815 0.968552 25.0445C0.321753 24.4075 -0.0010972 23.6427 2.80136e-06 22.75V3.25C2.80136e-06 2.35625 0.323403 1.59088 0.970203 0.953877C1.617 0.316877 2.3936 -0.00108057 3.3 2.75891e-06H29.7C30.6075 2.75891e-06 31.3846 0.318502 32.0314 0.955502C32.6782 1.5925 33.0011 2.35734 33 3.25V22.75C33 23.6437 32.6766 24.4091 32.0298 25.0461C31.383 25.6831 30.6064 26.0011 29.7 26H3.3ZM16.5 14.625L3.3 6.5V22.75H29.7V6.5L16.5 14.625ZM16.5 11.375L29.7 3.25H3.3L16.5 11.375ZM3.3 6.5V3.25V22.75V6.5Z" fill="currentColor"/>
</svg>
