<svg width="18" height="15" viewBox="0 0 18 15" xmlns="http://www.w3.org/2000/svg">
<path d="M12.8793 0C11.3206 0 9.93724 0.594736 9 1.61696C8.06276 0.594736 6.6794 0 5.12069 0C3.7631 0.00158778 2.46159 0.523602 1.50163 1.45154C0.54167 2.37948 0.00164258 3.63758 0 4.94988C0 10.3753 8.2094 14.7101 8.55853 14.8924C8.69421 14.963 8.8459 15 9 15C9.1541 15 9.30579 14.963 9.44147 14.8924C9.7906 14.7101 18 10.3753 18 4.94988C17.9984 3.63758 17.4583 2.37948 16.4984 1.45154C15.5384 0.523602 14.2369 0.00158778 12.8793 0ZM12.4534 10.6767C11.3728 11.5631 10.2177 12.3608 9 13.0617C7.78232 12.3608 6.6272 11.5631 5.54664 10.6767C3.86534 9.28253 1.86207 7.15633 1.86207 4.94988C1.86207 4.11447 2.20539 3.31327 2.8165 2.72255C3.42761 2.13182 4.25645 1.79996 5.12069 1.79996C6.50172 1.79996 7.65776 2.50494 8.13802 3.64041C8.20792 3.80594 8.32724 3.94759 8.48076 4.0473C8.63428 4.14701 8.81504 4.20026 9 4.20026C9.18496 4.20026 9.36572 4.14701 9.51924 4.0473C9.67276 3.94759 9.79208 3.80594 9.86198 3.64041C10.3422 2.50494 11.4983 1.79996 12.8793 1.79996C13.7435 1.79996 14.5724 2.13182 15.1835 2.72255C15.7946 3.31327 16.1379 4.11447 16.1379 4.94988C16.1379 7.15633 14.1347 9.28253 12.4534 10.6767Z" fill="currentColor"/>
</svg>
