<svg width="18" height="18" viewBox="0 0 18 18" xmlns="http://www.w3.org/2000/svg">
<path d="M13.8937 15.1913C12.4303 16.1381 10.7325 16.6394 8.99958 16.6364C4.51393 16.6364 0.781994 13.3441 0 8.99958C0.357461 7.02361 1.33151 5.21843 2.77691 3.8532L0.176365 1.19983L1.35268 0L17.8236 16.7993L16.6473 18L13.8937 15.1913ZM3.95489 5.05388C2.82403 6.10221 2.03617 7.47956 1.69792 8.99958C1.95772 10.1591 2.47931 11.2407 3.22115 12.1583C3.963 13.076 4.90462 13.8043 5.97107 14.2854C7.03751 14.7664 8.19933 14.9869 9.36403 14.9293C10.5287 14.8716 11.6642 14.5374 12.6799 13.9533L10.9928 12.2325C10.2746 12.6939 9.42402 12.8927 8.5805 12.7963C7.73698 12.6999 6.95063 12.3139 6.35043 11.7017C5.75023 11.0895 5.37182 10.2874 5.27726 9.42704C5.1827 8.56665 5.37761 7.69903 5.83001 6.96648L3.95489 5.05388ZM9.75995 10.975L7.0629 8.22486C6.91488 8.60919 6.88004 9.02924 6.96266 9.43347C7.04528 9.8377 7.24178 10.2086 7.52804 10.5005C7.8143 10.7925 8.17788 10.9929 8.57419 11.0772C8.9705 11.1615 9.38315 11.126 9.75995 10.975ZM16.3262 12.8969L15.1357 11.6826C15.6921 10.8743 16.0883 9.96288 16.3021 8.99958C16.076 7.98949 15.6509 7.03685 15.0526 6.19957C14.4543 5.36229 13.6953 4.65787 12.8218 4.12911C11.9483 3.60036 10.9784 3.25833 9.97126 3.12381C8.96409 2.9893 7.94062 3.0651 6.96307 3.34663L5.65032 2.00764C6.68771 1.59185 7.81827 1.36275 8.99958 1.36275C13.4852 1.36275 17.2172 4.65507 18 8.99958C17.7452 10.4133 17.1723 11.7474 16.3262 12.8969ZM8.76915 5.1888C9.29866 5.15542 9.82909 5.23722 10.3253 5.42878C10.8214 5.62034 11.272 5.91728 11.6472 6.29992C12.0223 6.68255 12.3134 7.14215 12.5012 7.64825C12.689 8.15434 12.7692 8.69537 12.7365 9.23547L8.76831 5.18795L8.76915 5.1888Z" fill="currentColor"/>
</svg>
