<svg width="27" height="34" viewBox="0 0 27 34" xmlns="http://www.w3.org/2000/svg">
<path d="M13.5 7.28579C12.2863 7.28579 11.0999 7.64187 10.0908 8.30902C9.0817 8.97616 8.29519 9.9244 7.83074 11.0338C7.36629 12.1432 7.24477 13.364 7.48154 14.5418C7.71832 15.7195 8.30275 16.8014 9.16094 17.6505C10.0191 18.4996 11.1125 19.0778 12.3029 19.3121C13.4932 19.5464 14.727 19.4261 15.8483 18.9666C16.9696 18.5071 17.9279 17.7289 18.6022 16.7304C19.2765 15.732 19.6364 14.5581 19.6364 13.3573C19.6364 11.747 18.9899 10.2027 17.8391 9.06409C16.6883 7.92546 15.1275 7.28579 13.5 7.28579ZM13.5 17.0002C12.7718 17.0002 12.06 16.7865 11.4545 16.3862C10.849 15.9859 10.3771 15.417 10.0984 14.7514C9.81978 14.0857 9.74686 13.3532 9.88893 12.6466C10.031 11.9399 10.3816 11.2908 10.8966 10.7814C11.4115 10.2719 12.0675 9.92494 12.7817 9.78438C13.4959 9.64382 14.2362 9.71596 14.909 9.99168C15.5817 10.2674 16.1568 10.7343 16.5613 11.3334C16.9659 11.9325 17.1818 12.6368 17.1818 13.3573C17.1818 14.3234 16.7939 15.25 16.1034 15.9332C15.413 16.6164 14.4765 17.0002 13.5 17.0002ZM13.5 0C9.92082 0.0040174 6.4894 1.41259 3.95854 3.91669C1.42768 6.4208 0.00406033 9.81594 0 13.3573C0 18.1234 2.22597 23.1749 6.44318 27.9668C8.33812 30.1321 10.4709 32.082 12.802 33.7803C13.0083 33.9233 13.2542 34 13.5061 34C13.7581 34 14.0039 33.9233 14.2103 33.7803C16.5371 32.0813 18.6657 30.1315 20.5568 27.9668C24.7679 23.1749 27 18.1234 27 13.3573C26.9959 9.81594 25.5723 6.4208 23.0415 3.91669C20.5106 1.41259 17.0792 0.0040174 13.5 0ZM13.5 31.2682C10.9641 29.2949 2.45455 22.0471 2.45455 13.3573C2.45455 10.4588 3.61826 7.67906 5.68968 5.62953C7.76111 3.58001 10.5706 2.4286 13.5 2.4286C16.4294 2.4286 19.2389 3.58001 21.3103 5.62953C23.3817 7.67906 24.5455 10.4588 24.5455 13.3573C24.5455 22.0441 16.0359 29.2949 13.5 31.2682Z" fill="currentColor"/>
</svg>
