<svg width="23" height="21" viewBox="0 0 23 21" xmlns="http://www.w3.org/2000/svg">
<path d="M15.5653 14.4601L15.5652 14.4602C15.0023 14.9962 14.0877 14.653 13.9874 13.9186L13.9859 13.9077L13.9863 13.9077L13.9793 13.7964L13.9787 13.787H13.979V11.1059L13.7821 11.1229C13.4387 11.1591 13.098 11.2113 12.7586 11.2795L12.7586 11.2795C10.6397 11.705 8.59208 12.7685 6.6043 14.4894L6.60425 14.4894C5.95628 15.0499 4.95102 14.5221 5.05811 13.6706M15.5653 14.4601L5.20694 13.6893M15.5653 14.4601L21.861 8.45748L21.8613 8.45777L21.8687 8.44954L21.9485 8.36133L21.9489 8.36165L21.9562 8.35209C22.0966 8.16934 22.1648 7.94288 22.1473 7.71433C22.1298 7.48581 22.0279 7.27197 21.8616 7.11174L21.861 7.11118L15.5653 1.11125L15.5655 1.11098L15.5575 1.10433L15.4707 1.03241L15.4709 1.03217L15.4632 1.02658C14.8634 0.590477 13.979 1.00767 13.979 1.7844V4.5345M15.5653 14.4601L15.375 1.1479C14.871 0.781474 14.129 1.13433 14.129 1.7844V4.67512M5.05811 13.6706L5.20694 13.6893M5.05811 13.6706C5.05811 13.6706 5.05811 13.6706 5.05811 13.6706L5.20694 13.6893M5.05811 13.6706C5.40939 10.8738 6.32325 8.68739 7.79297 7.1507C9.26432 5.61231 11.279 4.73954 13.8025 4.54592L13.8043 4.54578L13.979 4.5345M5.20694 13.6893C5.90413 8.13856 8.82588 5.07819 13.814 4.69548L14.129 4.67512M13.979 4.5345V4.67512H14.129M13.979 4.5345L14.1193 4.52543L14.129 4.67512M15.679 12.0334V9.45634V9.29269L15.5159 9.30691L13.6241 9.47191H13.6194H13.6116L13.6039 9.47272C11.3134 9.71131 9.14876 10.5671 7.10359 11.9834C7.52486 10.3804 8.1897 9.16491 9.03644 8.28028L9.03647 8.28025C10.1681 7.09733 11.7546 6.36703 13.9269 6.19818C13.9272 6.19815 13.9275 6.19813 13.9278 6.1981L15.5387 6.09374L15.679 6.08465V5.94405V3.53516L20.1359 7.78302L15.679 12.0334ZM4.49995 2.20712C3.5334 2.20712 2.60554 2.57929 1.9207 3.24316C1.23572 3.90719 0.85 4.80882 0.85 5.74998V16.6071C0.85 17.5483 1.23572 18.4499 1.9207 19.114C2.60554 19.7778 3.5334 20.15 4.49995 20.15H15.6998C16.6663 20.15 17.5942 19.7778 18.279 19.114C18.964 18.4499 19.3497 17.5483 19.3497 16.6071V15.25C19.3497 15.0287 19.259 14.8175 19.0991 14.6625C18.9394 14.5076 18.7237 14.4214 18.4997 14.4214C18.2758 14.4214 18.0601 14.5076 17.9004 14.6625C17.7405 14.8175 17.6497 15.0287 17.6497 15.25V16.6071C17.6497 17.1057 17.4455 17.5849 17.0803 17.9389C16.7149 18.2931 16.2184 18.4929 15.6998 18.4929H4.49995C3.9813 18.4929 3.48481 18.2931 3.11945 17.9389C2.75425 17.5849 2.54998 17.1057 2.54998 16.6071V5.74998C2.54998 5.25139 2.75425 4.77224 3.11945 4.41821C3.48481 4.06403 3.9813 3.86426 4.49995 3.86426H8.69988C8.92384 3.86426 9.13952 3.77806 9.29926 3.62321C9.45915 3.46821 9.54987 3.25697 9.54987 3.03569C9.54987 2.81441 9.45915 2.60317 9.29926 2.44817C9.13952 2.29332 8.92384 2.20712 8.69988 2.20712H4.49995Z" fill="currentColor" stroke="currentColor" stroke-width="0.3"/>
</svg>
