<svg width="27" height="26" viewBox="0 0 27 26" xmlns="http://www.w3.org/2000/svg">
<path d="M24.3545 17.7302L20.5368 17.3105C20.0879 17.2597 19.6329 17.3076 19.206 17.4505C18.7791 17.5934 18.3913 17.8276 18.0719 18.1355L15.3063 20.7986C11.0395 18.709 7.57142 15.3693 5.40138 11.2605L8.18198 8.58288C8.82828 7.96051 9.14392 7.09209 9.0387 6.2092L8.60283 2.56184C8.51761 1.85578 8.16574 1.20455 7.61419 0.732148C7.06265 0.259744 6.34995 -0.000842736 5.61181 2.04757e-06H3.01157C1.31315 2.04757e-06 -0.0996904 1.36053 0.00552133 2.99605C0.802125 15.3565 11.0678 25.2276 23.8886 25.9947C25.587 26.096 26.9999 24.7355 26.9999 23.1V20.596C27.0149 19.1342 25.8726 17.9039 24.3545 17.7302Z" fill="currentColor"/>
</svg>
