<svg width="20" height="19" viewBox="0 0 20 19" fill="none" xmlns="http://www.w3.org/2000/svg">
<path d="M15.3459 14.4458H16.4218C16.897 14.4444 17.3523 14.2576 17.6883 13.9261C18.0243 13.5946 18.2137 13.1454 18.2151 12.6766V5.59998C18.2137 5.1312 18.0243 4.68201 17.6883 4.35053C17.3523 4.01905 16.897 3.83221 16.4218 3.83081H2.79324C2.31808 3.83221 1.86278 4.01905 1.52679 4.35053C1.1908 4.68201 1.00142 5.1312 1 5.59998V12.6766C1.00142 13.1454 1.1908 13.5946 1.52679 13.9261C1.86278 14.2576 2.31808 14.4444 2.79324 14.4458H3.86918" stroke="currentColor" stroke-width="2" stroke-linejoin="round"/>
<path d="M14.2558 8.78418H4.95967C4.35752 8.78418 3.86938 9.26577 3.86938 9.85983V16.9082C3.86938 17.5023 4.35752 17.9838 4.95967 17.9838H14.2558C14.858 17.9838 15.3461 17.5023 15.3461 16.9082V9.85983C15.3461 9.26577 14.858 8.78418 14.2558 8.78418Z" stroke="currentColor" stroke-width="2" stroke-linejoin="round"/>
<path d="M15.3461 3.83067V2.76917C15.3447 2.30039 15.1553 1.8512 14.8193 1.51972C14.4833 1.18824 14.028 1.0014 13.5529 1H5.66262C5.18746 1.0014 4.73217 1.18824 4.39618 1.51972C4.06019 1.8512 3.8708 2.30039 3.86938 2.76917V3.83067" stroke="currentColor" stroke-width="2" stroke-linejoin="round"/>
<path d="M15.2563 6.48451C15.6029 6.48451 15.8839 6.20728 15.8839 5.8653C15.8839 5.52332 15.6029 5.24609 15.2563 5.24609C14.9097 5.24609 14.6287 5.52332 14.6287 5.8653C14.6287 6.20728 14.9097 6.48451 15.2563 6.48451Z" fill="currentColor"/>
</svg>
