<svg width="15" height="15" viewBox="0 0 15 15" xmlns="http://www.w3.org/2000/svg">
<path d="M14.9688 4.44175C14.5592 6.90291 13.2559 9.33495 11.2935 11.2955C9.32935 13.2579 6.89553 14.5631 4.44168 14.9672C4.31608 14.9891 4.18865 15 4.05577 15C3.42592 15 2.81246 14.747 2.36829 14.301L0.433247 12.3659C0.154732 12.0874 0 11.716 0 11.321C-0.000225577 11.1269 0.0379356 10.9346 0.112289 10.7553C0.186642 10.576 0.29572 10.4131 0.433247 10.2761L2.5212 8.19175C2.79972 7.91323 3.17107 7.7585 3.56609 7.7585C3.75992 7.75845 3.95185 7.7967 4.13085 7.87105M14.9688 4.44175C15.0926 3.68993 14.8432 2.91626 14.3008 2.37015M14.9688 4.44175L14.4756 4.35967C14.4756 4.35987 14.4755 4.36007 14.4755 4.36028M14.9688 4.44175L14.4755 4.36052C14.4755 4.36044 14.4755 4.36036 14.4755 4.36028M14.3008 2.37015L12.3621 0.433253C12.2253 0.295893 12.0628 0.186907 11.8838 0.112555M14.3008 2.37015L13.946 2.72251L12.0087 0.786969L12.0077 0.786028C11.9175 0.695343 11.8101 0.623393 11.692 0.574307L11.8838 0.112555M14.3008 2.37015L13.9474 2.72386L13.9467 2.72317C14.3768 3.15662 14.5728 3.76907 14.4755 4.36028M11.8838 0.112555C11.7048 0.0382044 11.5128 -4.64556e-05 11.319 0C10.924 0 10.5526 0.154733 10.2741 0.433253M11.8838 0.112555L11.692 0.574307C11.5738 0.525222 11.4471 0.499969 11.3191 0.5L11.319 0.5C11.0572 0.5 10.8128 0.601637 10.6277 0.786803L10.2741 0.433253M10.2741 0.433253L8.18798 2.51942C8.05063 2.65618 7.94164 2.81873 7.86729 2.99773C7.79294 3.17674 7.75469 3.36867 7.75474 3.5625C7.75474 3.95752 7.90947 4.32888 8.18798 4.6074L9.71345 6.13289C9.35637 6.91995 8.85992 7.63596 8.24806 8.24636M10.2741 0.433253L10.6277 0.786803L8.54154 2.87297L8.54077 2.87374C8.45008 2.96403 8.37813 3.07134 8.32905 3.18952C8.27996 3.3077 8.25471 3.43441 8.25474 3.56238L8.25474 3.5625C8.25474 3.82433 8.35638 4.06869 8.54154 4.25385L10.067 5.77934L10.3118 6.02416L10.1688 6.33946C9.78693 7.18114 9.25608 7.94686 8.60184 8.59969M8.24806 8.24636C7.63773 8.85972 6.92179 9.35798 6.13462 9.71723L4.60916 8.19175C4.4724 8.05439 4.30985 7.9454 4.13085 7.87105M8.24806 8.24636L8.60118 8.60034C8.6014 8.60012 8.60162 8.5999 8.60184 8.59969M8.24806 8.24636L8.60248 8.59904C8.60227 8.59925 8.60205 8.59947 8.60184 8.59969M4.13085 7.87105L3.93905 8.3328C3.82088 8.28372 3.69417 8.25846 3.56621 8.2585L3.56609 8.2585C3.30427 8.2585 3.05992 8.36013 2.87476 8.5453L2.87445 8.54561L0.786494 10.63L0.786137 10.6303C0.695307 10.7208 0.623267 10.8284 0.574161 10.9468C0.525055 11.0652 0.499851 11.1922 0.500001 11.3204L0.500001 11.321C0.500001 11.5828 0.60164 11.8272 0.786803 12.0123L2.72185 13.9474L2.72257 13.9481C3.0722 14.2992 3.55787 14.5 4.05577 14.5C4.16074 14.5 4.25948 14.4914 4.35601 14.4746L4.36043 14.4739L4.36043 14.4739C6.69916 14.0887 9.04073 12.8395 10.9401 10.9418C12.837 9.04662 14.0848 6.70704 14.4755 4.36028M4.13085 7.87105L3.93905 8.3328C4.05723 8.38189 4.16454 8.45384 4.25483 8.54452L4.2556 8.5453L5.78106 10.0708L6.02647 10.3162L6.34221 10.1721C7.1838 9.78802 7.94925 9.25536 8.60184 8.59969" fill="white" stroke="currentColor"/>
</svg>
