<svg width="17" height="17" viewBox="0 0 17 17" xmlns="http://www.w3.org/2000/svg">
<path fill-rule="evenodd" clip-rule="evenodd" d="M4.5823 10.9637L0.237926 15.5366C0.085228 15.6974 -0.000514984 15.9155 -0.00043869 16.1429C-0.000362396 16.3703 0.0855236 16.5884 0.23833 16.7491C0.391135 16.9098 0.598342 17.0001 0.814365 17C1.03039 16.9999 1.23754 16.9095 1.39023 16.7487L5.7346 12.1758C7.0333 13.2346 8.66643 13.7328 10.3017 13.5692C11.9371 13.4055 13.4517 12.5923 14.5376 11.2949C15.6235 9.99743 16.1991 8.31329 16.1472 6.58505C16.0953 4.85682 15.4198 3.21429 14.2583 1.99163C13.0967 0.768974 11.5363 0.0580178 9.89442 0.0033968C8.25255 -0.0512242 6.65258 0.554593 5.41999 1.69761C4.1874 2.84062 3.41479 4.43497 3.25932 6.15631C3.10386 7.87765 3.57722 9.59668 4.58311 10.9637H4.5823ZM9.68976 11.8995C8.40478 11.8995 7.17243 11.3622 6.26381 10.4058C5.35519 9.44939 4.84474 8.15221 4.84474 6.79964C4.84474 5.44706 5.35519 4.14988 6.26381 3.19347C7.17243 2.23705 8.40478 1.69975 9.68976 1.69975C10.9747 1.69975 12.2071 2.23705 13.1157 3.19347C14.0243 4.14988 14.5348 5.44706 14.5348 6.79964C14.5348 8.15221 14.0243 9.44939 13.1157 10.4058C12.2071 11.3622 10.9747 11.8995 9.68976 11.8995Z" fill="currentColor"/>
</svg>
