<svg width="29" height="29" viewBox="0 0 29 29" xmlns="http://www.w3.org/2000/svg">
<path fill-rule="evenodd" clip-rule="evenodd" d="M14.5003 2.41675C7.8267 2.41675 2.41699 7.82646 2.41699 14.5001C2.41699 16.7838 3.05137 18.9226 4.15458 20.7447L3.07674 24.4084C3.01486 24.6188 3.01078 24.8419 3.06495 25.0544C3.11912 25.2668 3.22953 25.4608 3.38458 25.6158C3.53962 25.7709 3.73357 25.8813 3.94604 25.9355C4.1585 25.9896 4.38164 25.9855 4.59199 25.9237L8.25566 24.8458C10.1391 25.9854 12.299 26.5864 14.5003 26.5834C21.1739 26.5834 26.5837 21.1737 26.5837 14.5001C26.5837 7.82646 21.1739 2.41675 14.5003 2.41675ZM11.7671 17.2345C14.2115 19.6778 16.5448 20.0004 17.3689 20.0306C18.6219 20.0765 19.8424 19.1195 20.3172 18.0091C20.3772 17.8709 20.399 17.7192 20.3802 17.5698C20.3615 17.4204 20.3031 17.2787 20.2109 17.1596C19.5487 16.3138 18.6534 15.706 17.7785 15.1018C17.5959 14.9755 17.3714 14.9249 17.1522 14.9605C16.933 14.9961 16.7361 15.1151 16.6028 15.2927L15.8778 16.3984C15.8397 16.4578 15.7803 16.5004 15.7118 16.5175C15.6433 16.5346 15.5708 16.5248 15.5093 16.4902C15.0175 16.2087 14.301 15.7302 13.7862 15.2154C13.2715 14.7007 12.8219 14.0167 12.5694 13.5564C12.5381 13.4979 12.529 13.43 12.5439 13.3654C12.5588 13.3007 12.5966 13.2437 12.6504 13.2047L13.7669 12.3758C13.9262 12.2373 14.029 12.045 14.0558 11.8355C14.0825 11.6261 14.0313 11.4141 13.9119 11.24C13.3705 10.4473 12.7398 9.43958 11.8251 8.77137C11.707 8.68583 11.5687 8.63249 11.4238 8.6166C11.2789 8.60071 11.1324 8.62282 10.9986 8.68075C9.88691 9.15683 8.92508 10.3772 8.97099 11.6327C9.0012 12.4568 9.32382 14.7901 11.7671 17.2345Z" fill="currentColor"/>
</svg>
