<svg width="41" height="41" viewBox="0 0 41 41" fill="none" xmlns="http://www.w3.org/2000/svg">
<g id="Group 3301">
<g id="Group">
<path id="Vector" opacity="0.961" fill-rule="evenodd" clip-rule="evenodd" d="M19.7793 0C22.9023 0 26.0254 0 29.1484 0C29.1484 0.453776 29.1484 0.907549 29.1484 1.36133C26.0254 1.36133 22.9023 1.36133 19.7793 1.36133C19.7793 0.907549 19.7793 0.453776 19.7793 0Z" fill="white"/>
</g>
<g id="Group_2">
<path id="Vector_2" opacity="0.956" fill-rule="evenodd" clip-rule="evenodd" d="M30.3496 0C33.8997 0 37.4499 0 41 0C41 13.6667 41 27.3333 41 41C37.4499 41 33.8997 41 30.3496 41C30.3496 27.3333 30.3496 13.6667 30.3496 0ZM31.791 1.36133C34.4069 1.36133 37.0228 1.36133 39.6387 1.36133C39.6387 1.78841 39.6387 2.2155 39.6387 2.64258C38.7578 2.64258 37.877 2.64258 36.9961 2.64258C36.9961 3.09636 36.9961 3.55013 36.9961 4.00391C37.877 4.00391 38.7578 4.00391 39.6387 4.00391C39.6387 4.43099 39.6387 4.85808 39.6387 5.28516C38.7578 5.28516 37.877 5.28516 36.9961 5.28516C36.9961 5.73893 36.9961 6.19271 36.9961 6.64648C37.877 6.64648 38.7578 6.64648 39.6387 6.64648C39.6387 7.07357 39.6387 7.50065 39.6387 7.92773C38.304 7.92773 36.9694 7.92773 35.6348 7.92773C35.6348 8.38154 35.6348 8.83526 35.6348 9.28906C36.9694 9.28906 38.304 9.28906 39.6387 9.28906C39.6387 9.71612 39.6387 10.1433 39.6387 10.5703C38.7578 10.5703 37.877 10.5703 36.9961 10.5703C36.9961 11.0241 36.9961 11.4778 36.9961 11.9316C37.877 11.9316 38.7578 11.9316 39.6387 11.9316C39.6387 12.3587 39.6387 12.7858 39.6387 13.2129C38.7578 13.2129 37.877 13.2129 36.9961 13.2129C36.9961 13.6667 36.9961 14.1204 36.9961 14.5742C37.877 14.5742 38.7578 14.5742 39.6387 14.5742C39.6387 15.0013 39.6387 15.4284 39.6387 15.8555C38.304 15.8555 36.9694 15.8555 35.6348 15.8555C35.6348 16.3093 35.6348 16.763 35.6348 17.2168C36.9694 17.2168 38.304 17.2168 39.6387 17.2168C39.6387 17.6439 39.6387 18.071 39.6387 18.498C38.7578 18.498 37.877 18.498 36.9961 18.498C36.9961 18.9518 36.9961 19.4056 36.9961 19.8594C37.877 19.8594 38.7578 19.8594 39.6387 19.8594C39.6387 20.2864 39.6387 20.7136 39.6387 21.1406C38.7578 21.1406 37.877 21.1406 36.9961 21.1406C36.9961 21.5944 36.9961 22.0482 36.9961 22.502C37.877 22.502 38.7578 22.502 39.6387 22.502C39.6387 22.929 39.6387 23.3561 39.6387 23.7832C38.304 23.7832 36.9694 23.7832 35.6348 23.7832C35.6348 24.237 35.6348 24.6907 35.6348 25.1445C36.9694 25.1445 38.304 25.1445 39.6387 25.1445C39.6387 25.5716 39.6387 25.9987 39.6387 26.4258C38.7578 26.4258 37.877 26.4258 36.9961 26.4258C36.9961 26.8796 36.9961 27.3333 36.9961 27.7871C37.877 27.7871 38.7578 27.7871 39.6387 27.7871C39.6387 28.2142 39.6387 28.6413 39.6387 29.0684C38.7578 29.0684 37.877 29.0684 36.9961 29.0684C36.9961 29.5222 36.9961 29.9759 36.9961 30.4297C37.877 30.4297 38.7578 30.4297 39.6387 30.4297C39.6387 30.8567 39.6387 31.2839 39.6387 31.7109C38.304 31.7109 36.9694 31.7109 35.6348 31.7109C35.6348 32.1647 35.6348 32.6185 35.6348 33.0723C36.9694 33.0723 38.304 33.0723 39.6387 33.0723C39.6387 33.4993 39.6387 33.9265 39.6387 34.3535C38.7578 34.3535 37.877 34.3535 36.9961 34.3535C36.9961 34.8073 36.9961 35.261 36.9961 35.7148C37.877 35.7148 38.7578 35.7148 39.6387 35.7148C39.6387 36.1419 39.6387 36.569 39.6387 36.9961C38.7578 36.9961 37.877 36.9961 36.9961 36.9961C36.9961 37.4499 36.9961 37.9036 36.9961 38.3574C37.877 38.3574 38.7578 38.3574 39.6387 38.3574C39.6387 38.7845 39.6387 39.2116 39.6387 39.6387C37.0228 39.6387 34.4069 39.6387 31.791 39.6387C31.791 26.8796 31.791 14.1204 31.791 1.36133Z" fill="white"/>
</g>
<g id="Group_3">
<path id="Vector_3" opacity="0.952" fill-rule="evenodd" clip-rule="evenodd" d="M18.5781 41C12.3854 41 6.19271 41 0 41C0 40.5462 0 40.0925 0 39.6387C0.427083 39.6387 0.854169 39.6387 1.28125 39.6387C1.28125 28.4011 1.28125 17.1634 1.28125 5.92578C1.73503 5.92578 2.1888 5.92578 2.64258 5.92578C2.64258 5.04492 2.64258 4.16406 2.64258 3.2832C3.25709 3.29653 3.87102 3.28318 4.48438 3.24316C6.04504 2.2961 7.63326 1.4019 9.24902 0.560547C10.8648 1.4019 12.453 2.2961 14.0137 3.24316C14.6537 3.28318 15.2944 3.29653 15.9355 3.2832C15.9355 4.16406 15.9355 5.04492 15.9355 5.92578C16.3626 5.92578 16.7897 5.92578 17.2168 5.92578C17.2168 17.1634 17.2168 28.4011 17.2168 39.6387C17.6706 39.6387 18.1243 39.6387 18.5781 39.6387C18.5781 40.0925 18.5781 40.5462 18.5781 41ZM9.12891 2.16211C9.82799 2.498 10.522 2.85835 11.2109 3.24316C9.92969 3.29655 8.64844 3.29655 7.36719 3.24316C7.97292 2.90087 8.56019 2.54052 9.12891 2.16211ZM4.00391 4.64453C7.50065 4.64453 10.9974 4.64453 14.4941 4.64453C14.4941 5.07161 14.4941 5.4987 14.4941 5.92578C13.6133 5.92578 12.7324 5.92578 11.8516 5.92578C11.8516 6.37956 11.8516 6.83333 11.8516 7.28711C13.1862 7.28711 14.5208 7.28711 15.8555 7.28711C15.8555 18.071 15.8555 28.8548 15.8555 39.6387C15.0013 39.6387 14.1472 39.6387 13.293 39.6387C13.293 37.6901 13.293 35.7415 13.293 33.793C13.72 33.793 14.1472 33.793 14.5742 33.793C14.5742 33.3125 14.5742 32.832 14.5742 32.3516C11.0241 32.3516 7.47396 32.3516 3.92383 32.3516C3.92383 32.832 3.92383 33.3125 3.92383 33.793C4.37761 33.793 4.83138 33.793 5.28516 33.793C5.28516 35.7415 5.28516 37.6901 5.28516 39.6387C4.43099 39.6387 3.57683 39.6387 2.72266 39.6387C2.72266 28.8548 2.72266 18.071 2.72266 7.28711C5.36523 7.28711 8.00781 7.28711 10.6504 7.28711C10.6504 6.83333 10.6504 6.37956 10.6504 5.92578C8.43487 5.92578 6.2194 5.92578 4.00391 5.92578C4.00391 5.4987 4.00391 5.07161 4.00391 4.64453ZM6.64648 33.793C7.28711 33.793 7.92773 33.793 8.56836 33.793C8.56836 35.7415 8.56836 37.6901 8.56836 39.6387C7.92773 39.6387 7.28711 39.6387 6.64648 39.6387C6.64648 37.6901 6.64648 35.7415 6.64648 33.793ZM9.92969 33.793C10.5703 33.793 11.2109 33.793 11.8516 33.793C11.8516 35.7415 11.8516 37.6901 11.8516 39.6387C11.2109 39.6387 10.5703 39.6387 9.92969 39.6387C9.92969 37.6901 9.92969 35.7415 9.92969 33.793Z" fill="white"/>
</g>
<g id="Group_4">
<path id="Vector_4" opacity="0.958" fill-rule="evenodd" clip-rule="evenodd" d="M24.4238 2.32227C25.9436 3.78868 27.4384 5.28347 28.9082 6.80664C28.6146 7.15364 28.2942 7.47396 27.9473 7.76758C27.0141 6.87452 26.0932 5.96696 25.1846 5.04492C25.1312 15.3483 25.1312 25.6517 25.1846 35.9551C26.0932 35.0331 27.0141 34.1255 27.9473 33.2324C28.2942 33.5261 28.6146 33.8464 28.9082 34.1934C27.4413 35.7003 25.9598 37.1952 24.4639 38.6777C22.9679 37.1952 21.4865 35.7003 20.0195 34.1934C20.3132 33.8464 20.6335 33.5261 20.9805 33.2324C21.9136 34.1255 22.8345 35.0331 23.7432 35.9551C23.7966 25.6517 23.7966 15.3483 23.7432 5.04492C22.8345 5.96696 21.9136 6.87452 20.9805 7.76758C20.6335 7.47396 20.3132 7.15364 20.0195 6.80664C21.4894 5.31018 22.9574 3.81539 24.4238 2.32227Z" fill="white"/>
</g>
<g id="Group_5">
<path id="Vector_5" opacity="0.945" fill-rule="evenodd" clip-rule="evenodd" d="M3.92383 8.56836C7.47396 8.56836 11.0241 8.56836 14.5742 8.56836C14.5742 10.3567 14.5742 12.1452 14.5742 13.9336C11.0241 13.9336 7.47396 13.9336 3.92383 13.9336C3.92383 12.1452 3.92383 10.3567 3.92383 8.56836ZM5.36523 9.92969C5.36523 10.7839 5.36523 11.638 5.36523 12.4922C7.98112 12.4922 10.597 12.4922 13.2129 12.4922C13.2129 11.638 13.2129 10.7839 13.2129 9.92969C10.597 9.92969 7.98112 9.92969 5.36523 9.92969Z" fill="white"/>
</g>
<g id="Group_6">
<path id="Vector_6" opacity="0.945" fill-rule="evenodd" clip-rule="evenodd" d="M3.92383 15.1348C7.47396 15.1348 11.0241 15.1348 14.5742 15.1348C14.5742 16.9232 14.5742 18.7116 14.5742 20.5C11.0241 20.5 7.47396 20.5 3.92383 20.5C3.92383 18.7116 3.92383 16.9232 3.92383 15.1348ZM5.36523 16.5762C5.36523 17.4304 5.36523 18.2845 5.36523 19.1387C7.98112 19.1387 10.597 19.1387 13.2129 19.1387C13.2129 18.2845 13.2129 17.4304 13.2129 16.5762C10.597 16.5762 7.98112 16.5762 5.36523 16.5762Z" fill="white"/>
</g>
<g id="Group_7">
<path id="Vector_7" opacity="0.945" fill-rule="evenodd" clip-rule="evenodd" d="M3.92383 21.7812C7.47396 21.7812 11.0241 21.7812 14.5742 21.7812C14.5742 23.5696 14.5742 25.3581 14.5742 27.1465C11.0241 27.1465 7.47396 27.1465 3.92383 27.1465C3.92383 25.3581 3.92383 23.5696 3.92383 21.7812ZM5.36523 23.2227C5.36523 24.0768 5.36523 24.931 5.36523 25.7852C7.98112 25.7852 10.597 25.7852 13.2129 25.7852C13.2129 24.931 13.2129 24.0768 13.2129 23.2227C10.597 23.2227 7.98112 23.2227 5.36523 23.2227Z" fill="white"/>
</g>
<g id="Group_8">
<path id="Vector_8" opacity="0.911" fill-rule="evenodd" clip-rule="evenodd" d="M3.92383 29.709C7.47396 29.709 11.0241 29.709 14.5742 29.709C14.5742 30.1895 14.5742 30.6699 14.5742 31.1504C11.0241 31.1504 7.47396 31.1504 3.92383 31.1504C3.92383 30.6699 3.92383 30.1895 3.92383 29.709Z" fill="white"/>
</g>
<g id="Group_9">
<path id="Vector_9" opacity="0.961" fill-rule="evenodd" clip-rule="evenodd" d="M29.1484 41C26.0254 41 22.9023 41 19.7793 41C19.7793 40.5462 19.7793 40.0925 19.7793 39.6387C22.9023 39.6387 26.0254 39.6387 29.1484 39.6387C29.1484 40.0925 29.1484 40.5462 29.1484 41Z" fill="white"/>
</g>
</g>
</svg>
