<svg width="39" height="40" viewBox="0 0 39 40" fill="none" xmlns="http://www.w3.org/2000/svg">
<g id="Group">
<path id="Vector" d="M21.1758 0.0770416C18.3346 0.405087 15.6533 1.70945 13.6576 3.73239L13.1168 4.28694H6.74121H0.373242L0.19043 4.4822C0 4.66966 0 4.68528 0 6.16148C0 7.63768 0 7.6533 0.19043 7.84075C0.289453 7.9501 0.464648 8.03602 0.571289 8.03602C0.677929 8.03602 0.853124 7.9501 0.952148 7.84075C1.13496 7.66111 1.14258 7.61424 1.14258 6.55201V5.45853H6.67265H12.2027L12.0656 5.66941C11.7762 6.12243 11.342 6.88005 11.2201 7.1378L11.0906 7.41117H7.45722C3.9 7.41117 3.82382 7.41117 3.62578 7.57519C3.37441 7.77827 3.35156 8.19223 3.58008 8.42654C3.7248 8.57495 3.83144 8.58276 7.16777 8.58276C10.3975 8.58276 10.5955 8.59057 10.5574 8.71554C10.5346 8.79364 10.4508 9.10606 10.3594 9.41849L10.1918 9.98085L6.96972 10.0043C3.92285 10.0277 3.74004 10.0355 3.58769 10.1761C3.36679 10.3792 3.36679 10.8478 3.58769 11.0509C3.74004 11.1915 3.92285 11.1993 6.86308 11.2227L9.97851 11.2462L9.9328 11.8476C9.90995 12.1756 9.87948 12.4959 9.85663 12.5427C9.83378 12.6208 9.15585 12.6443 6.77929 12.6443C3.83144 12.6443 3.7248 12.6521 3.58008 12.8005C3.35156 13.0348 3.37441 13.4487 3.62578 13.6518C3.82382 13.808 3.90761 13.8158 6.85546 13.8158H9.8871L9.94042 14.3001C10.0623 15.5576 10.4203 16.9635 10.923 18.1663C11.0297 18.4319 11.1211 18.674 11.1211 18.6974C11.1211 18.7209 10.885 18.7365 10.5955 18.7365C10.1461 18.7365 10.0318 18.7677 9.84902 18.924L9.63573 19.1114L9.61288 27.6952C9.59765 32.4128 9.61288 36.4196 9.63573 36.6071C9.72714 37.2632 9.64335 37.2476 12.4617 37.2476C13.9851 37.2476 14.9982 37.2163 15.082 37.1695C15.1658 37.1226 15.2648 36.9586 15.3105 36.7945C15.3562 36.6071 15.3867 34.2952 15.3867 30.1243V23.7431L16.0037 24.1258C16.3465 24.3367 16.6892 24.5319 16.7654 24.5554C16.9025 24.6022 16.9101 24.7897 16.9101 30.5539C16.9101 34.4279 16.9406 36.6071 16.9863 36.7945C17.032 36.9586 17.131 37.1226 17.2148 37.1695C17.4053 37.2788 22.2041 37.2788 22.3945 37.1695C22.4783 37.1226 22.5773 36.9586 22.623 36.7945C22.6687 36.6071 22.6992 34.6466 22.6992 31.2647V26.0238L23.0496 25.9691C23.2476 25.9457 23.5371 25.9222 23.6971 25.9222H23.9941V30.5305V35.1465L24.1845 35.334C24.4207 35.5839 24.7101 35.5839 24.9463 35.334L25.1367 35.1465V30.4211V25.7035L25.5404 25.6098C26.8963 25.2818 28.2674 24.6725 29.4709 23.868L30.2174 23.3604L33.2185 26.4377C35.2218 28.4997 36.3263 29.5698 36.5396 29.6791C37.6593 30.2337 39.0076 29.3667 39 28.0936C38.9924 27.3984 38.8629 27.2344 35.6713 23.954L32.6549 20.8532L33.0814 20.1971C33.607 19.4004 34.3459 17.8383 34.6125 16.9635C35.0619 15.4873 35.1457 14.8468 35.1533 13.0348C35.1533 11.1915 35.0771 10.6057 34.6506 9.17636C34.2697 7.89543 33.3633 6.00527 32.9976 5.70847C32.8301 5.57569 32.5177 5.59131 32.3121 5.73971C32.0379 5.93497 32.0912 6.30207 32.4873 7.01283C34.1478 9.93398 34.5058 13.5112 33.4623 16.7292C31.6189 22.4309 25.9289 25.766 20.1474 24.5554C16.2551 23.7353 12.9187 20.7048 11.6238 16.7839C10.9459 14.7297 10.8545 12.0897 11.3801 10.0043C12.3855 6.05994 15.4629 2.78731 19.2334 1.6704C23.0801 0.530056 27.1095 1.41265 30.0574 4.04482C31.0172 4.90398 31.139 4.95084 31.4894 4.66966C31.6342 4.5525 31.6875 4.43534 31.6875 4.24789C31.6875 4.02919 31.6037 3.91203 31.1467 3.47464C28.534 0.936207 24.7711 -0.336918 21.1758 0.0770416ZM12.2332 20.5486C12.4769 20.9078 13.0101 21.5483 13.4215 21.9857L14.168 22.7746V29.4214V36.076H12.4922H10.8164V27.992V19.9081H11.3039H11.7914L12.2332 20.5486ZM34.9095 24.8131C37.4689 27.4453 37.8574 27.8749 37.8574 28.0779C37.8498 28.4997 37.4689 28.7809 37.0957 28.6403C36.989 28.6013 35.5951 27.2266 33.9955 25.5864L31.0781 22.6027L31.4742 22.1966C31.6951 21.9701 31.8931 21.7826 31.916 21.7826C31.9388 21.7826 33.2871 23.1495 34.9095 24.8131ZM19.043 25.477C19.6904 25.6723 20.9625 25.9222 21.3053 25.9222H21.4805V30.9991V36.076H19.8047H18.1289V30.6398C18.1289 25.5005 18.1365 25.2037 18.266 25.2427C18.3346 25.2583 18.6849 25.3677 19.043 25.477Z" fill="white"/>
<path id="Vector_2" d="M21.0996 2.45183C17.4586 2.95952 14.3355 5.45109 12.9492 8.9268C12.4008 10.3093 12.1875 11.4418 12.1875 12.9961C12.1875 15.2221 12.7283 17.0967 13.9014 18.8931C15.4934 21.3222 17.8166 22.8921 20.6807 23.4701C21.6937 23.6732 23.5523 23.6575 24.5807 23.431C26.6297 22.9936 28.3512 22.0564 29.806 20.588C31.8094 18.5729 32.9062 15.886 32.9062 12.9961C32.9062 11.4496 32.5939 9.91874 32.0074 8.62218C30.0574 4.27169 25.7004 1.80355 21.0996 2.45183ZM24.4892 3.73276C27.7113 4.46696 30.2402 6.77108 31.2914 9.94998C31.9846 12.0354 31.9084 14.5817 31.0781 16.628C29.5471 20.424 25.6471 22.8296 21.6937 22.4235C18.4107 22.0798 15.6914 20.1584 14.2213 17.1357C13.0254 14.6676 13.0254 11.309 14.2213 8.8565C15.3943 6.46646 17.3291 4.75595 19.8047 3.93584C21.1377 3.49064 23.0648 3.40472 24.4892 3.73276Z" fill="white"/>
<path id="Vector_3" d="M0.159961 9.64517L0 9.85606V24.7274V39.5987L0.19043 39.7862L0.373242 39.9814H12.5683H24.7635L24.9463 39.7862C25.1291 39.6065 25.1367 39.5597 25.1367 38.4974C25.1367 37.1384 25.0605 36.9353 24.5502 36.9353C24.3826 36.9353 24.2607 36.9978 24.1541 37.1384C24.017 37.318 23.9941 37.4586 23.9941 38.0757V38.8099H12.5683H1.14258V24.3291V9.85606L0.982616 9.64517C0.868359 9.49677 0.754101 9.4421 0.571289 9.4421C0.388476 9.4421 0.274219 9.49677 0.159961 9.64517Z" fill="white"/>
<path id="Vector_4" d="M3.6256 15.386C3.37423 15.5891 3.35138 16.003 3.5799 16.2373C3.72462 16.3857 3.83126 16.3936 6.09357 16.3936C8.35587 16.3936 8.46251 16.3857 8.60724 16.2373C8.8586 15.9796 8.83575 15.6516 8.56153 15.3938C8.3711 15.222 8.34825 15.222 6.10118 15.222C3.91505 15.222 3.82365 15.2298 3.6256 15.386Z" fill="white"/>
<path id="Vector_5" d="M2.68855 23.6107L2.47527 23.7981L2.45242 30.0388C2.43719 33.4676 2.45242 36.42 2.47527 36.6075C2.56668 37.2714 2.48289 37.2479 5.33172 37.2479C8.18054 37.2479 8.09675 37.2714 8.18816 36.6075C8.21101 36.42 8.22624 33.4676 8.21101 30.0388L8.18816 23.7981L7.97488 23.6107L7.7616 23.4232H5.33172H2.90184L2.68855 23.6107ZM7.0075 30.3356V36.0764H5.33172H3.65594V30.3356V24.5948H5.33172H7.0075V30.3356Z" fill="white"/>
</g>
</svg>
