<svg width="48" height="37" viewBox="0 0 48 37" fill="none" xmlns="http://www.w3.org/2000/svg">
<g id="Group">
<path id="Vector" d="M0.490474 1.08249C0.333152 1.15087 0.157322 1.29739 0.101796 1.41461C0.0277627 1.55136 0 4.21807 0 10.1083V18.6066L0.203593 18.8508C0.508982 19.2024 4.24769 21.4491 4.53457 21.4491C4.66413 21.4393 4.86772 21.3807 4.98803 21.3123C5.19162 21.1951 5.30267 21.244 6.51497 21.9863L7.81982 22.7873V23.6567C7.81982 24.3991 7.85683 24.6042 8.06968 25.0633C8.47687 25.9327 9.319 26.6555 10.0871 26.7825L10.411 26.8411V27.6323C10.411 28.3063 10.448 28.5212 10.6701 28.9901C11.1421 30.006 12.0305 30.6214 13.1595 30.7093L13.7703 30.7581L13.8351 31.2563C14.0849 33.2686 15.9173 34.5189 17.6941 33.884C18.2031 33.6984 18.2308 33.6984 18.2308 33.8644C18.2308 34.2356 18.6195 35.1245 18.9619 35.5348C19.1655 35.7692 19.5634 36.0916 19.8596 36.2479C20.313 36.4823 20.5259 36.5311 21.1181 36.5311C21.7752 36.5409 21.877 36.5116 22.6543 36.0916L23.4965 35.6422L24.1258 36.033C25.4121 36.8339 25.8563 37 26.6059 37C27.1334 37 27.3925 36.9512 27.7904 36.7558C28.7159 36.3065 29.3729 35.3883 29.484 34.3724L29.5395 33.8937L30.067 34.0793C30.7148 34.3138 31.4921 34.2649 32.1862 33.9523C33.1024 33.5323 33.8705 32.3504 33.8705 31.3638V31.0414L34.2221 31.1391C34.7218 31.2856 35.638 31.1782 36.147 30.9144C37.35 30.299 37.9608 28.9608 37.7295 27.4565L37.6647 27.0658L38.331 26.7239C38.84 26.4602 39.0806 26.2648 39.3397 25.9034C39.8764 25.1512 39.969 24.5651 39.7747 22.9241C39.7469 22.7092 39.8857 22.6017 40.9592 21.9277C42.0789 21.244 42.19 21.1951 42.3936 21.3123C42.5139 21.3807 42.7175 21.4393 42.847 21.4491C43.1339 21.4491 46.8726 19.2024 47.1688 18.8508L47.3816 18.6066V10.1083C47.3816 2.55748 47.3631 1.59044 47.2336 1.37554C47.0485 1.08249 46.6135 0.916435 46.3174 1.03365C45.9009 1.19971 35.7676 7.40249 35.5455 7.62716C35.4252 7.75414 35.2956 8.01788 35.2678 8.21325C35.2123 8.5649 35.1568 8.61374 33.8797 9.38543C33.0931 9.86407 32.399 10.3622 32.1954 10.5869C31.8068 11.046 31.3996 11.1925 30.576 11.1925C29.7986 11.1925 29.558 11.0851 27.5035 9.83476C26.5133 9.2389 25.4584 8.65281 25.153 8.54536C24.4589 8.30116 23.2651 8.27185 22.5525 8.49652C22.2842 8.58444 20.9978 9.28774 19.7022 10.0692C17.4072 11.466 17.3424 11.4953 16.9352 11.4367C16.2134 11.3195 15.5378 10.9972 15.1769 10.5869C14.9826 10.3622 14.2793 9.8543 13.5019 9.38543C12.2341 8.61374 12.1693 8.55513 12.1138 8.22301C12.086 8.02765 11.9842 7.78345 11.8917 7.676C11.6326 7.37318 8.37507 5.42932 8.12521 5.42932C7.59772 5.42932 7.29233 6.27915 7.68101 6.65034C7.7828 6.74802 8.45836 7.18759 9.18019 7.63692C9.91127 8.07649 10.4943 8.48675 10.485 8.54536C10.448 8.69188 4.52531 19.5248 4.40501 19.6615C4.33098 19.7397 3.9423 19.5541 2.8503 18.8801L1.38813 17.9912V10.4404C1.38813 6.27915 1.4159 2.89937 1.46217 2.91891C1.49918 2.93844 2.33206 3.44638 3.30376 4.05201C4.28471 4.64787 5.17311 5.13628 5.27491 5.13628C5.78389 5.13628 6.10779 4.62833 5.91345 4.13993C5.83016 3.92503 5.32118 3.57337 3.47959 2.4598C2.20251 1.68812 1.07349 1.03365 0.971693 0.994579C0.869897 0.965275 0.65705 1.00435 0.490474 1.08249ZM45.9935 10.4404V18.0009L44.5683 18.8605C43.7817 19.3392 43.1062 19.7201 43.0599 19.7201C43.0229 19.7201 42.7175 19.222 42.3843 18.6261C42.0512 18.0205 41.718 17.493 41.644 17.4442C41.4126 17.2879 41.0055 17.3367 40.8111 17.5418C40.515 17.8544 40.5798 18.2744 41.0517 19.1243C41.2923 19.5443 41.4682 19.9155 41.4497 19.935C41.4312 19.9546 40.9037 20.2769 40.2929 20.6481L39.1639 21.3319L36.4154 16.3013C34.9069 13.5369 33.7039 11.2316 33.7501 11.1925C33.963 10.9679 35.9434 9.83476 35.9989 9.89337C36.0359 9.94221 36.7115 11.1828 37.5166 12.6578C38.3125 14.1327 39.0713 15.4417 39.2009 15.5589C39.5711 15.9203 39.9875 15.8422 40.2189 15.3733C40.2929 15.217 40.3299 15.0021 40.3021 14.8947C40.2651 14.797 39.4785 13.3122 38.5438 11.6028C37.6092 9.90314 36.8688 8.47699 36.9058 8.43791C36.9429 8.40861 38.7197 7.31458 40.8574 6.00564C42.9951 4.70648 45.0125 3.47569 45.3457 3.27056C45.6788 3.06543 45.9565 2.89937 45.975 2.8896C45.9842 2.8896 45.9935 6.28892 45.9935 10.4404ZM24.9309 10.0204C25.0882 10.079 25.9396 10.5674 26.828 11.1144C29.123 12.5112 29.2896 12.5796 30.3631 12.6382C31.1034 12.6773 31.3718 12.648 31.9271 12.4722C32.2972 12.3549 32.6026 12.267 32.6211 12.2866C32.7322 12.4331 36.9984 20.3258 36.9799 20.3453C36.9614 20.3648 36.4987 20.1011 35.9434 19.7592C32.0474 17.3562 30.0392 16.1743 29.8264 16.1743C29.2804 16.1743 28.9565 16.8971 29.3174 17.3269C29.4007 17.4344 31.27 18.6066 33.454 19.935C35.6473 21.2635 37.5907 22.4552 37.7757 22.5822C38.2292 22.885 38.4976 23.4516 38.4976 24.0963C38.4976 25.0047 37.9423 25.5908 37.0724 25.6006C36.6282 25.6006 36.4431 25.5029 33.963 23.9888C31.2145 22.3087 30.8166 22.1426 30.5204 22.4943C30.2428 22.8166 30.2243 23.1488 30.4649 23.4418C30.5852 23.5786 31.779 24.3698 33.1301 25.1805C35.9989 26.929 35.9156 26.8704 36.1748 27.31C36.7485 28.3161 36.0267 29.752 34.9347 29.752C34.472 29.752 34.4072 29.713 31.3533 27.857C29.8726 26.9583 28.8732 26.4016 28.7159 26.4016C28.429 26.4113 28.0403 26.8216 28.0403 27.1244C28.0403 27.4565 28.4752 27.8082 30.2521 28.8729C32.2047 30.0548 32.4083 30.26 32.4638 31.1C32.4916 31.5591 32.4638 31.7154 32.2787 31.9889C31.9086 32.5653 31.6124 32.7313 30.9739 32.7313C30.4094 32.7313 30.3724 32.7118 28.5955 31.6177C26.6337 30.4065 26.319 30.299 25.9951 30.7191C25.6064 31.227 25.8193 31.6177 26.828 32.2331C27.2259 32.4773 27.6609 32.8095 27.7904 32.9755C28.6788 34.0891 27.6331 35.8474 26.282 35.525C26.0969 35.4859 25.6064 35.2417 25.1807 34.978C24.4682 34.5482 24.4219 34.4994 24.4774 34.2551C24.8198 32.8388 24.607 31.7936 23.7926 30.934C23.1818 30.2893 22.6728 30.0939 21.6271 30.0939C21.0534 30.0939 20.7295 30.0548 20.7295 29.9865C20.7295 29.9279 20.6647 29.6641 20.5906 29.3808C20.2575 28.2184 19.1192 27.3002 17.9717 27.2709L17.4164 27.2611L17.3702 26.7141C17.3517 26.4211 17.2314 25.9522 17.1203 25.6689C16.889 25.1024 16.1856 24.3502 15.6859 24.1256C15.5101 24.0474 15.362 23.9693 15.362 23.9497C15.362 23.9204 15.4268 23.6274 15.5101 23.2953C15.6952 22.5236 15.6304 21.9766 15.2695 21.1854C14.779 20.1304 13.8073 19.4955 12.6875 19.4955C12.0675 19.4955 11.54 19.6713 10.8922 20.0913C10.6424 20.2476 10.4203 20.3746 10.4017 20.3551C10.374 20.3258 14.6494 12.4233 14.7697 12.2768C14.7975 12.2475 15.797 12.6382 15.8988 12.7164C15.9173 12.7261 15.8432 13.0094 15.7229 13.3318C15.4546 14.1132 15.5008 15.0217 15.8525 15.7445C16.1579 16.3697 16.8982 17.0827 17.4627 17.2879C17.9902 17.4832 18.9156 17.493 19.4061 17.3074C19.6004 17.239 20.7017 16.6041 21.8492 15.9008C22.9967 15.1975 24.0332 14.5723 24.1628 14.5137C24.3664 14.416 24.5144 14.4844 25.5046 15.09C26.9298 15.9594 27.0316 15.9887 27.4018 15.598C27.6331 15.344 27.6794 15.2365 27.6239 15.0217C27.5313 14.6309 27.4943 14.5919 26.1154 13.7616C24.2553 12.6382 24.4682 12.6089 21.3773 14.4942C19.0915 15.8812 18.8971 15.9789 18.4529 15.9789C17.6293 15.9789 17.0185 15.3733 16.963 14.4942C16.8982 13.5271 17.0185 13.4099 19.7115 11.7493C21.0071 10.9483 22.2564 10.2059 22.4785 10.0985C23.2003 9.74685 24.1905 9.71754 24.9309 10.0204ZM12.5025 10.4697C13.0855 10.8213 13.5945 11.1437 13.6315 11.1925C13.6777 11.2316 12.4747 13.5369 10.9663 16.3013L8.21775 21.3319L7.08873 20.6481C6.47796 20.2769 5.95047 19.9546 5.94121 19.935C5.90419 19.9057 11.3919 9.82499 11.429 9.82499C11.4475 9.82499 11.9287 10.118 12.5025 10.4697ZM13.4186 21.1463C14.2978 21.6347 14.4921 22.9046 13.798 23.6469C13.65 23.813 13.0022 24.2623 12.3451 24.6531C11.3272 25.2587 11.0866 25.3564 10.7071 25.3564C10.1611 25.3564 9.80022 25.1708 9.47632 24.7214C9.13392 24.233 9.07839 23.6372 9.34676 23.0608C9.53185 22.6701 9.67066 22.5431 10.6238 21.9473C11.2254 21.5859 11.8362 21.2147 11.9842 21.1267C12.3636 20.9118 13.0299 20.9216 13.4186 21.1463ZM15.1862 25.5126C15.5471 25.6982 15.8988 26.1867 15.9728 26.5774C16.1301 27.4565 15.7692 28.0231 14.5939 28.7264C13.65 29.3027 13.104 29.3906 12.5395 29.0487C11.7529 28.5603 11.5215 27.437 12.0583 26.6946C12.2989 26.3527 13.761 25.415 14.1682 25.3271C14.4551 25.2684 14.8808 25.3466 15.1862 25.5126ZM18.6473 28.9706C19.2395 29.3515 19.4986 30.26 19.2118 30.9535C19.0452 31.3735 18.7768 31.6177 17.9069 32.1452C17.3332 32.4871 17.0833 32.5848 16.7501 32.5848C16.0653 32.5848 15.4546 32.0964 15.2695 31.3833C15.1399 30.9144 15.288 30.2893 15.6211 29.9279C15.8802 29.625 17 28.8924 17.3887 28.7654C17.7218 28.658 18.3049 28.7459 18.6473 28.9706ZM22.4785 31.7154C22.9042 31.9889 23.1078 32.2624 23.2188 32.7411C23.4132 33.5616 23.006 34.2747 22.0158 34.8119C21.3587 35.1734 21.0256 35.1929 20.4888 34.9389C19.9799 34.6947 19.6837 34.2454 19.6375 33.6105C19.5727 32.8095 19.8688 32.3601 20.822 31.8131C21.442 31.4517 22.0158 31.4126 22.4785 31.7154Z" fill="white"/>
</g>
</svg>
