<svg width="39" height="47" viewBox="0 0 39 47" fill="none" xmlns="http://www.w3.org/2000/svg">
<g id="Group">
<path id="Vector" d="M9.0293 16.17L19.5775 9.59961L29.4712 16.17L26.2796 16.1716L10.7063 25.9642L10.698 16.17H9.0293Z" fill="#E30613"/>
<path id="Vector_2" d="M26.5685 16.5981L19.835 20.8685L28.0293 26.0104V16.5981H26.5685Z" fill="#891002"/>
<path id="Vector_3" d="M5.76833 21.4834L2.58341 19.5702L5.75259 17.6662C6.57285 11.4936 11.4406 6.60351 17.6024 5.75011L19.5081 2.5776L21.4104 5.74513C25.8456 6.34749 29.6139 9.04026 31.6927 12.7994L36.3367 9.76027C32.9529 3.92316 26.6816 0 19.4998 0C8.73038 0 0 8.81572 0 19.6904C0 23.0891 1.85677 26.9468 4.4236 30.6438L8.50502 27.9725C7.08158 26.1224 6.11218 23.9044 5.76833 21.4834Z" fill="black"/>
<path id="Vector_4" d="M36.3368 9.7605L31.6928 12.7996C32.513 14.2844 33.0706 15.9348 33.301 17.6889L36.432 19.5705L33.2844 21.4612C32.4227 27.6024 27.5484 32.4544 21.3964 33.2829L19.5074 36.4272L17.6158 33.2779C13.913 32.7692 10.6775 30.8014 8.50427 27.9744L4.42285 30.6456C10.0702 38.7787 19.1577 46.1378 19.4991 46.1378C19.4991 46.1378 38.9997 30.5669 38.9997 19.6923C38.9997 16.0682 38.027 12.677 36.3368 9.7605Z" fill="black"/>
</g>
</svg>
