<svg width="36" height="36" viewBox="0 0 36 36" fill="none" xmlns="http://www.w3.org/2000/svg">
<g id="Group 3300">
<g id="Group">
<path id="Vector" opacity="0.931" fill-rule="evenodd" clip-rule="evenodd" d="M10.2012 0C11.2361 0 12.271 0 13.3059 0C13.6677 0.121218 13.9264 0.355593 14.0821 0.703125C14.1589 1.2864 14.2205 1.87233 14.2669 2.46094C15.0728 2.6696 15.8367 2.9743 16.5585 3.375C16.9394 3.04794 17.309 2.70809 17.6673 2.35547C18.4605 2.00411 19.1135 2.15646 19.6263 2.8125C19.7592 3.28658 19.5744 3.56783 19.0718 3.65625C18.833 3.56996 18.6112 3.45277 18.4066 3.30469C18.0503 3.6083 17.7054 3.92471 17.3716 4.25391C17.0312 4.46718 16.6616 4.53749 16.2628 4.46484C15.4324 4.06855 14.5699 3.74042 13.6756 3.48047C13.3564 3.31769 13.147 3.07159 13.0472 2.74219C13.0226 2.22656 12.9979 1.71094 12.9733 1.19531C12.9363 1.16016 12.8994 1.125 12.8624 1.08984C12.1478 1.04297 11.4333 1.04297 10.7187 1.08984C10.6017 1.6503 10.5155 2.22452 10.4599 2.8125C10.2998 3.15234 10.041 3.39844 9.68377 3.55078C8.92821 3.73571 8.21361 4.01696 7.54003 4.39453C7.11025 4.54702 6.69134 4.52358 6.28336 4.32422C5.93839 3.99609 5.59343 3.66797 5.24846 3.33984C5.17453 3.29297 5.10061 3.29297 5.02669 3.33984C4.48134 3.83501 3.96389 4.35064 3.47433 4.88672C3.80357 5.27036 4.16086 5.63363 4.5462 5.97656C4.7558 6.36461 4.78043 6.76305 4.62012 7.17188C4.2029 7.9174 3.85793 8.69084 3.58521 9.49219C3.3688 9.76507 3.08544 9.94085 2.73511 10.0195C2.18516 10.0117 1.65539 10.0702 1.14579 10.1953C1.09651 10.875 1.09651 11.5547 1.14579 12.2344C1.18275 12.2695 1.21971 12.3047 1.25667 12.3398C1.79877 12.3633 2.34086 12.3867 2.88296 12.4102C3.22927 12.5051 3.488 12.7043 3.65914 13.0078C3.94407 13.854 4.28903 14.6743 4.69404 15.4688C4.77042 15.848 4.6965 16.1996 4.47228 16.5234C4.15195 16.8281 3.83162 17.1328 3.51129 17.4375C3.46201 17.5078 3.46201 17.5781 3.51129 17.6484C4.03099 18.1663 4.57308 18.6585 5.13757 19.125C5.49486 18.7852 5.85215 18.4453 6.20944 18.1055C6.46543 17.9789 6.7365 17.8969 7.02258 17.8594C8.01609 18.28 9.02631 18.6667 10.0534 19.0195C10.3189 19.2316 10.479 19.5011 10.5339 19.8281C10.5708 20.3197 10.5831 20.8119 10.5708 21.3047C11.3597 21.3164 12.1483 21.3047 12.9363 21.2695C12.9967 20.7243 13.0337 20.1735 13.0472 19.6172C13.265 19.1519 13.6346 18.8706 14.156 18.7734C14.6453 18.9307 14.7932 19.2353 14.5996 19.6875C14.4977 19.8079 14.3745 19.9017 14.23 19.9688C14.2199 20.5356 14.1706 21.0981 14.0821 21.6562C13.9097 22.0545 13.6017 22.3006 13.1581 22.3945C12.2217 22.4414 11.2854 22.4414 10.3491 22.3945C9.87818 22.2936 9.57015 22.0241 9.42504 21.5859C9.40043 21.0469 9.37574 20.5078 9.35112 19.9688C8.51706 19.7361 7.72861 19.4079 6.98562 18.9844C6.5738 19.4233 6.11793 19.81 5.61807 20.1445C5.21271 20.2956 4.81846 20.2721 4.43532 20.0742C3.78455 19.5256 3.15622 18.9514 2.55031 18.3516C2.23949 17.85 2.21484 17.3344 2.47639 16.8047C2.84711 16.4638 3.20441 16.1122 3.54825 15.75C3.16089 15.0782 2.85288 14.3751 2.62423 13.6406C2.11463 13.5155 1.58486 13.457 1.03491 13.4648C0.529822 13.3835 0.197174 13.114 0.0369628 12.6562C-0.0123209 11.6719 -0.0123209 10.6875 0.0369628 9.70312C0.203753 9.33349 0.487118 9.0874 0.887065 8.96484C1.42916 8.94143 1.97125 8.91794 2.51335 8.89453C2.79324 8.13192 3.1382 7.39364 3.54825 6.67969C3.15268 6.29178 2.77076 5.89334 2.40246 5.48438C2.23522 5.02701 2.25985 4.58169 2.47639 4.14844C3.15877 3.45229 3.88566 2.80776 4.65708 2.21484C5.03329 2.15679 5.4029 2.18022 5.76591 2.28516C6.19587 2.63547 6.61475 2.99874 7.02258 3.375C7.77318 2.98497 8.54936 2.65685 9.35112 2.39062C9.358 1.79934 9.4073 1.2134 9.49897 0.632812C9.67682 0.357997 9.91086 0.147059 10.2012 0Z" fill="#272727"/>
</g>
<g id="Group_2">
<path id="Vector_2" opacity="0.94" fill-rule="evenodd" clip-rule="evenodd" d="M34.2991 36C25.7241 36 17.1492 36 8.57425 36C7.70729 35.7259 7.15288 35.1634 6.911 34.3125C6.8617 32.1328 6.8617 29.9531 6.911 27.7734C7.2744 25.8569 8.42019 24.5561 10.3484 23.8711C10.8323 23.702 11.3252 23.5614 11.8268 23.4492C13.7982 23.0812 15.7694 22.718 17.7406 22.3594C17.765 21.9116 17.7403 21.4663 17.6666 21.0234C16.2166 20.0484 15.3665 18.7124 15.1163 17.0156C14.5 16.8981 14.0565 16.57 13.7857 16.0313C13.7066 15.4726 13.645 14.9101 13.6009 14.3438C12.9199 13.9618 12.6612 13.3993 12.8248 12.6563C12.9903 12.1471 13.3353 11.7956 13.8597 11.6016C13.9053 8.54719 15.3468 6.33232 18.1841 4.95704C20.4122 4.14193 22.6298 4.16537 24.8371 5.02735C27.5944 6.41512 28.962 8.60654 28.9397 11.6016C30.0579 12.0793 30.3536 12.8527 29.8268 13.9219C29.674 14.1026 29.4892 14.2432 29.2724 14.3438C29.2109 14.7872 29.174 15.2326 29.1615 15.6797C28.989 16.4062 28.5208 16.8516 27.757 17.0156C27.499 18.7004 26.6489 20.0363 25.2067 21.0234C25.133 21.4663 25.1084 21.9116 25.1327 22.3594C27.104 22.718 29.0752 23.0812 31.0465 23.4492C32.5243 23.7358 33.7933 24.3804 34.8535 25.3828C35.4961 26.1141 35.8657 26.9578 35.9623 27.9141C36.0116 30 36.0116 32.0859 35.9623 34.1719C35.7881 35.099 35.2337 35.7084 34.2991 36ZM20.7714 5.48438C20.8328 6.43317 20.8697 7.39414 20.8822 8.3672C21.2878 8.75954 21.6574 8.73612 21.9911 8.29688C22.0157 7.35941 22.0404 6.42188 22.065 5.48438C22.5254 5.54623 22.9813 5.63998 23.4325 5.76563C23.4939 6.18557 23.5309 6.60745 23.5434 7.03126C23.72 7.36355 24.0034 7.46902 24.3935 7.34766C24.4612 7.32137 24.5229 7.28621 24.5783 7.24219C24.6681 6.92221 24.7174 6.59408 24.7262 6.25782C26.7904 7.48906 27.7884 9.27036 27.72 11.6016C23.5065 11.6016 19.2929 11.6016 15.0794 11.6016C15.0822 9.27493 16.1047 7.49363 18.1471 6.25782C18.1559 6.59408 18.2052 6.92221 18.295 7.24219C18.5357 7.37783 18.7944 7.41298 19.0712 7.34766C19.1857 7.2623 19.2719 7.15684 19.3299 7.03126C19.3424 6.60745 19.3794 6.18557 19.4408 5.76563C19.8835 5.62608 20.327 5.53233 20.7714 5.48438ZM14.1184 12.7266C18.9973 12.7148 23.8762 12.7266 28.7549 12.7617C28.9521 12.9493 28.9521 13.1367 28.7549 13.3242C23.8761 13.3711 18.9972 13.3711 14.1184 13.3242C13.9261 13.1252 13.9261 12.926 14.1184 12.7266ZM14.8576 14.4844C19.2436 14.4844 23.6297 14.4844 28.0157 14.4844C28.028 14.8367 28.0156 15.1883 27.9787 15.5391C27.9172 15.6914 27.8063 15.7969 27.6461 15.8555C27.3997 15.8789 27.1533 15.9024 26.9069 15.9258C26.8011 15.9585 26.7149 16.0171 26.6481 16.1016C26.5042 18.6524 25.1367 20.2578 22.5455 20.918C19.8958 21.2926 17.9369 20.3668 16.6687 18.1406C16.4348 17.4496 16.2623 16.7465 16.1512 16.0313C15.86 15.9152 15.552 15.8567 15.2272 15.8555C15.08 15.8151 14.9691 15.7331 14.8946 15.6094C14.8577 15.2351 14.8453 14.8601 14.8576 14.4844ZM18.9233 21.7266C20.5998 22.289 22.2754 22.289 23.95 21.7266C23.9623 22.1023 23.9499 22.4773 23.913 22.8516C23.6799 23.5194 23.2487 24.0467 22.6194 24.4336C22.2374 24.674 21.8431 24.8966 21.4367 25.1016C20.5976 24.7315 19.8707 24.2159 19.256 23.5547C19.1184 23.3868 19.0199 23.1993 18.9603 22.9922C18.9234 22.571 18.911 22.1491 18.9233 21.7266ZM17.6666 23.4844C18.337 24.391 19.1747 25.1528 20.18 25.7695C19.8759 25.9904 19.5433 26.1662 19.182 26.2969C19.0161 26.2521 18.8559 26.1935 18.7015 26.1211C18.0856 25.3008 17.4695 24.4805 16.8535 23.6602C17.1412 23.6307 17.4122 23.5721 17.6666 23.4844ZM24.9849 23.4844C25.3114 23.5278 25.6317 23.5981 25.9459 23.6953C25.4306 24.4549 24.9009 25.2049 24.3566 25.9453C24.178 26.1357 23.9562 26.2529 23.6913 26.2969C23.3702 26.1735 23.0623 26.0211 22.7672 25.8399C22.6687 25.793 22.6687 25.7461 22.7672 25.6992C23.75 25.1748 24.4892 24.4366 24.9849 23.4844ZM15.3751 23.9063C15.5148 23.892 15.6257 23.9388 15.7077 24.0469C17.3383 26.2777 18.9399 28.5277 20.5126 30.7969C20.6566 31.1373 20.7552 31.4889 20.8083 31.8516C20.8453 32.8826 20.8576 33.9138 20.8453 34.9453C18.1102 34.9453 15.3751 34.9453 12.6399 34.9453C12.6682 33.0687 12.6312 31.1937 12.5291 29.3203C12.376 27.7724 12.0434 26.2607 11.5311 24.7852C11.6414 24.6526 11.7893 24.5823 11.9747 24.5742C13.1245 24.3814 14.258 24.1587 15.3751 23.9063ZM27.2765 23.9063C28.482 24.1332 29.6894 24.3559 30.8987 24.5742C31.0672 24.5906 31.215 24.6492 31.3422 24.75C30.6248 26.8053 30.2674 28.9147 30.2703 31.0781C30.5106 31.4077 30.8186 31.478 31.1943 31.2891C31.2745 31.2072 31.3361 31.1134 31.3792 31.0078C31.4541 28.9875 31.8237 27.0187 32.488 25.1016C33.371 25.4961 34.0363 26.1055 34.4839 26.9297C34.6279 27.2701 34.7264 27.6217 34.7796 27.9844C34.8517 30.0746 34.8271 32.1606 34.7056 34.2422C34.5948 34.5352 34.3853 34.7344 34.0773 34.8399C33.1942 34.9377 32.3071 34.9728 31.4161 34.9453C31.4284 34.2418 31.4161 33.5387 31.3792 32.8359C31.3063 32.543 31.1092 32.4024 30.7878 32.4141C30.5458 32.4001 30.3733 32.4938 30.2703 32.6953C30.2334 33.4449 30.221 34.1949 30.2334 34.9453C27.4983 34.9453 24.7631 34.9453 22.028 34.9453C22.0157 33.8669 22.028 32.7888 22.065 31.7109C22.2201 31.0175 22.5158 30.3847 22.9521 29.8125C24.4125 27.854 25.8539 25.8853 27.2765 23.9063ZM10.3484 25.1016C10.8635 26.5076 11.1961 27.9608 11.3463 29.4609C11.4482 31.2875 11.4851 33.1156 11.4572 34.9453C10.5662 34.9728 9.67916 34.9377 8.79601 34.8399C8.43172 34.7044 8.19769 34.4583 8.09375 34.1016C8.02323 31.896 8.04785 29.6929 8.16768 27.4922C8.54135 26.3988 9.2683 25.6019 10.3484 25.1016ZM21.2888 26.4375C21.9494 26.7517 22.6147 27.0681 23.2847 27.3867C22.6473 28.236 22.0189 29.0915 21.3997 29.9531C20.8143 29.0972 20.2106 28.2535 19.5886 27.4219C20.1963 27.1452 20.7631 26.8171 21.2888 26.4375Z" fill="#272727"/>
</g>
<g id="Group_3">
<path id="Vector_3" opacity="0.922" fill-rule="evenodd" clip-rule="evenodd" d="M11.1625 6.18759C12.1387 6.10593 13.0627 6.27 13.9346 6.67977C14.1497 7.19411 13.9772 7.49877 13.4171 7.59384C11.6035 7.0059 10.0265 7.35745 8.68613 8.64852C7.38481 10.297 7.36012 11.9611 8.61221 13.6407C9.62886 14.7056 10.8979 15.2095 12.4192 15.1524C12.728 15.5008 12.7033 15.8288 12.3453 16.1368C9.82778 16.2959 8.01669 15.2998 6.91201 13.1485C6.08135 10.9539 6.53722 9.04375 8.27956 7.41806C9.12648 6.75544 10.0875 6.34528 11.1625 6.18759Z" fill="#272727"/>
</g>
</g>
</svg>
