<svg width="36" height="36" viewBox="0 0 36 36" fill="none" xmlns="http://www.w3.org/2000/svg">
<g id="free-icon-businessman-998463 6">
<g id="Group">
<path id="Vector" d="M13.9359 0.112511C11.0109 0.604698 8.64844 2.78439 7.86094 5.71642C7.72734 6.21564 7.69922 6.54611 7.67109 8.12814C7.63594 9.69611 7.61484 9.99142 7.51641 10.0969C7.05234 10.6172 6.89766 11.6649 7.16484 12.375C7.48125 13.2117 8.1 13.7602 8.97187 13.9711L9.46406 14.0977L9.58359 14.6602C9.6539 15.0188 9.82969 15.4899 10.0617 15.961C10.3852 16.6149 10.5047 16.7766 11.1234 17.3883L11.8125 18.0774V18.8789C11.8125 19.582 11.7984 19.6875 11.6859 19.7508C11.6156 19.7859 9.88594 20.468 7.85391 21.2555C3.81094 22.8235 3.56484 22.95 2.7 23.8008C2.12344 24.3774 1.70859 25.0453 1.42734 25.8399L1.23047 26.4024V30.8391V35.2758L1.42031 35.5219C1.81406 36.0422 0.710156 36.007 15.3703 35.9859L28.5187 35.9649L28.7789 35.7891C29.2359 35.4797 29.3203 35.1984 29.3203 33.9891V32.9414L29.925 32.7375C32.175 31.9711 33.968 30.0164 34.6078 27.6469C34.8258 26.8242 34.8609 25.2774 34.6781 24.3984C34.1016 21.6211 32.0484 19.4414 29.3484 18.7383C28.7437 18.5836 28.5117 18.5977 28.343 18.8156C28.0195 19.2305 28.2656 19.5539 29.0531 19.7508C31.1836 20.2922 32.9273 21.9867 33.5391 24.1242C33.7359 24.7992 33.8062 26.1774 33.6797 26.8875C33.2508 29.3274 31.4367 31.282 29.0461 31.9008C27.8297 32.2102 26.3953 32.1258 25.2352 31.6758C22.8234 30.7266 21.2344 28.4133 21.2344 25.8399C21.2344 23.7867 22.2539 21.8461 23.9344 20.6789C24.6586 20.1797 25.1508 19.9688 26.2125 19.6875C26.7609 19.5469 26.9367 19.1953 26.6414 18.8156C26.543 18.6891 26.4305 18.6328 26.2758 18.6328C25.6359 18.6328 23.9836 19.3078 23.2031 19.8914C22.9922 20.0531 22.6266 20.3695 22.3945 20.5945L21.9727 21.0094L20.3414 20.3695L18.7031 19.7367V18.8367V17.9367L19.2516 17.3883C20.0672 16.5656 20.6016 15.5813 20.8125 14.5055L20.8969 14.0766L21.2977 13.9992C22.4859 13.7672 23.3437 12.7266 23.3437 11.5242C23.3437 11.0672 23.1398 10.4133 22.8937 10.0899C22.732 9.87892 22.725 9.83673 22.6969 8.12111C22.6617 6.49689 22.6477 6.30704 22.4789 5.66017C21.4664 1.88439 17.7609 -0.527332 13.9359 0.112511ZM16.7695 1.25861C19.0406 1.84923 20.7633 3.56485 21.4523 5.91329C21.5719 6.3422 21.607 6.6797 21.6352 7.79767C21.6703 9.01408 21.6633 9.1547 21.5648 9.11954C21.5016 9.09845 21.3398 9.05626 21.2062 9.02814C21.0094 8.99298 20.9531 8.95079 20.9531 8.83126C20.9531 8.74689 20.8969 8.57814 20.8336 8.45158C20.6578 8.1422 18.9914 6.3422 18.7594 6.21564C18.4219 6.03986 18.007 6.08907 17.543 6.37032C15.4687 7.62189 13.2961 8.22658 10.8703 8.22658C10.0617 8.22658 10.0617 8.22658 9.80859 8.44454C9.675 8.56408 9.5414 8.73986 9.52031 8.83126C9.47812 9.00001 9.42187 9.03517 8.97187 9.11251L8.70469 9.16173L8.73281 7.76251C8.76094 6.49689 8.78203 6.30704 8.95781 5.73048C9.45 4.10626 10.5891 2.68595 12.0516 1.86329C12.593 1.56095 13.1344 1.36407 13.9219 1.18829C14.6953 1.01251 15.9469 1.04767 16.7695 1.25861ZM19.1109 8.03673L19.9055 8.89454L19.8773 11.5313C19.8492 14.4844 19.8422 14.5055 19.3219 15.532C18.6047 16.9594 17.1633 17.8945 15.5391 17.9789C13.2961 18.1055 11.3906 16.8539 10.7086 14.8078C10.5187 14.2383 10.5187 14.2383 10.4906 11.7563L10.4695 9.28126H11.0602C13.3031 9.28126 15.6937 8.64845 17.5852 7.55861C17.9508 7.34767 18.2602 7.17892 18.2812 7.17892C18.3023 7.18595 18.675 7.57267 19.1109 8.03673ZM9.38672 12.9938C9.31641 13.0641 8.73281 12.7828 8.50781 12.5649C8.2125 12.2766 8.08594 11.9742 8.08594 11.5524C8.08594 10.9266 8.52187 10.357 9.17578 10.1461L9.38672 10.0758L9.40781 11.5172C9.41484 12.3117 9.40781 12.9727 9.38672 12.9938ZM21.5648 10.2797C22.6055 10.9055 22.4859 12.4313 21.3609 12.8953C21.2133 12.9586 21.0656 13.0078 21.0234 13.0078C20.9812 13.0078 20.9531 12.5016 20.9531 11.5313V10.0547L21.15 10.0969C21.2555 10.125 21.4383 10.2024 21.5648 10.2797ZM17.6484 19.2375V19.9055L16.4812 21.3469C15.8414 22.1344 15.293 22.7953 15.2648 22.8094C15.2367 22.8305 14.6883 22.1906 14.0414 21.3891L12.8672 19.9406V19.2797C12.8672 18.682 12.8812 18.6188 12.9937 18.6539C14.5477 19.1672 16.0172 19.1813 17.2125 18.7102C17.3953 18.6328 17.5641 18.5766 17.5992 18.5695C17.6273 18.5625 17.6484 18.8649 17.6484 19.2375ZM13.3383 22.1977L14.4773 23.611L13.3172 24.4336C12.6773 24.8906 12.143 25.2492 12.1359 25.2352C12.0516 25.1438 10.2656 21.4945 10.2867 21.4664C10.357 21.4031 12.0586 20.7492 12.1219 20.7703C12.1641 20.7774 12.7055 21.4242 13.3383 22.1977ZM19.3078 21.1008L20.243 21.4664L19.2937 23.3578C18.6328 24.6727 18.3234 25.2352 18.2602 25.2C18.0281 25.0594 16.1016 23.6742 16.0664 23.625C16.0383 23.5758 18.2742 20.7492 18.3445 20.7422C18.3656 20.7422 18.7945 20.9039 19.3078 21.1008ZM10.2937 23.9344C11.3625 26.1141 11.4469 26.2336 11.9602 26.332C12.2273 26.3813 12.6492 26.2477 12.8883 26.0367C12.9727 25.9594 13.0359 25.9383 13.0641 25.9875C13.0922 26.0297 13.2187 26.2266 13.3523 26.4305L13.5914 26.7961L12.9094 30.818C12.5367 33.0328 12.2344 34.8609 12.2344 34.8891C12.2344 34.9242 11.0812 34.9453 9.66797 34.9453H7.10156V31.725C7.10156 28.6172 7.09453 28.4977 6.96094 28.357C6.77812 28.1531 6.57422 28.1039 6.38437 28.2024C6.04687 28.3852 6.05391 28.3289 6.04687 31.725V34.9453H4.14844H2.25V30.9164C2.25 26.5078 2.25 26.4867 2.67187 25.6219C3.0375 24.8766 3.77578 24.1031 4.5 23.7305C4.76016 23.5899 9.13359 21.8742 9.23203 21.8672C9.26015 21.8672 9.73828 22.7953 10.2937 23.9344ZM21.1992 22.0781C21.1359 22.1906 21.0727 22.2891 21.0516 22.2891C21.0375 22.2891 21.0656 22.1906 21.1289 22.0781C21.1922 21.9586 21.2555 21.8672 21.2766 21.8672C21.2906 21.8672 21.2625 21.9586 21.1992 22.0781ZM20.5945 23.407C19.5609 26.325 20.5031 29.6016 22.943 31.5492L23.4141 31.9289V33.4336V34.9453H20.8477H18.2812L18.2461 34.7836C18.225 34.6992 18.1195 34.0453 18 33.3281C17.8102 32.1609 17.768 32.0133 17.6062 31.8656C17.325 31.6195 17.0086 31.6688 16.8398 31.9922C16.7484 32.1609 16.7625 32.3297 16.9734 33.5672L17.2055 34.9453H15.2367H13.275L13.3102 34.7484C13.3312 34.643 13.6266 32.9063 13.9641 30.8813L14.5898 27.2109H15.2367C15.7922 27.2109 15.8836 27.225 15.9187 27.3305C15.9328 27.4008 16.0312 27.9774 16.1367 28.6172C16.3477 29.9602 16.3969 30.1149 16.6359 30.2274C16.882 30.3399 16.9734 30.3258 17.1844 30.157C17.4234 29.9672 17.4164 29.8899 17.1281 28.1813L16.8961 26.7961L17.1773 26.3672L17.4586 25.9453L17.6414 26.0649C18.1336 26.3813 18.3234 26.4235 18.682 26.2899C19.0477 26.1563 19.2305 25.8891 20.0039 24.3352C20.4258 23.4844 20.7773 22.7953 20.7844 22.8024C20.7984 22.8094 20.707 23.0836 20.5945 23.407ZM15.982 24.8906L16.6008 25.3266L16.4812 25.5164C16.4109 25.6149 16.2914 25.8047 16.2141 25.9242L16.0664 26.1563H15.2508H14.4352L14.175 25.7695C14.0344 25.5586 13.9219 25.3617 13.9289 25.3336C13.9289 25.2352 15.1523 24.4055 15.2578 24.4266C15.3141 24.4406 15.6445 24.6445 15.982 24.8906ZM25.0312 32.7234C25.7977 32.9977 26.543 33.1313 27.443 33.1313L28.2727 33.1383L28.2516 34.0242L28.2305 34.9102L26.3531 34.9313L24.4687 34.9453V33.75C24.4687 33.0961 24.4898 32.5547 24.5109 32.5547C24.5391 32.5547 24.7711 32.632 25.0312 32.7234Z" fill="#272727"/>
<path id="Vector_2" d="M27.1406 20.3766C25.5727 20.468 23.9133 21.3891 23.0625 22.6406C22.3383 23.7023 22.05 24.6094 22.057 25.8047C22.057 26.8031 22.1836 27.3797 22.6055 28.2305C23.1469 29.3414 24.0469 30.2414 25.1297 30.7617C25.9594 31.1555 26.4164 31.2469 27.5274 31.2539C28.4203 31.2539 28.568 31.2328 29.1234 31.057C30.9867 30.4453 32.3508 28.9828 32.843 27.0703C32.9836 26.5078 32.9695 25.0523 32.8078 24.4758C32.1047 21.9094 29.7703 20.2219 27.1406 20.3766ZM28.582 21.5578C29.3274 21.7336 29.9953 22.1133 30.5859 22.7039C32.3438 24.4406 32.3578 27.1969 30.6141 28.9477C30.0164 29.5453 29.0953 30.0375 28.3078 30.1711C25.5867 30.6352 23.1117 28.5961 23.1047 25.875C23.0977 25.0594 23.2031 24.6023 23.5617 23.8641C24.4617 22.0078 26.5219 21.0656 28.582 21.5578Z" fill="#272727"/>
<path id="Vector_3" d="M28.2797 25.1999L27.1687 26.2827L26.6695 25.7976C26.2477 25.3898 26.1352 25.3124 25.9312 25.3124C25.6289 25.3124 25.4461 25.4952 25.4391 25.8046C25.432 25.9944 25.5305 26.121 26.1211 26.7187C26.8875 27.4921 27.1055 27.6257 27.3656 27.4851C27.6328 27.3374 30.0094 25.0171 30.0937 24.8132C30.157 24.6655 30.15 24.5812 30.0656 24.4124C30.0094 24.2999 29.9039 24.1874 29.8477 24.1593C29.5172 24.0327 29.3977 24.1171 28.2797 25.1999Z" fill="#272727"/>
</g>
</g>
</svg>
