<svg width="36" height="37" viewBox="0 0 36 37" fill="none" xmlns="http://www.w3.org/2000/svg">
<g id="free-icon-businessman-998463 1">
<g id="Group">
<path id="Vector" d="M13.9359 0.115505C11.0109 0.621365 8.64844 2.8616 7.86094 5.87508C7.72734 6.38816 7.69922 6.72781 7.67109 8.35379C7.63594 9.96531 7.61484 10.2688 7.51641 10.3772C7.05234 10.912 6.89766 11.9888 7.16484 12.7186C7.48125 13.5786 8.1 14.1423 8.97187 14.3591L9.46406 14.4891L9.58359 15.0673C9.6539 15.4358 9.82969 15.92 10.0617 16.4042C10.3852 17.0763 10.5047 17.2425 11.1234 17.8712L11.8125 18.5794V19.4032C11.8125 20.1259 11.7984 20.2343 11.6859 20.2993C11.6156 20.3354 9.88594 21.0364 7.85391 21.8458C3.81094 23.4573 3.56484 23.5874 2.7 24.4618C2.12344 25.0544 1.70859 25.7409 1.42734 26.5575L1.23047 27.1356V31.6956V36.2555L1.42031 36.5085C1.81406 37.0432 0.710156 37.0071 15.3703 36.9854L28.5187 36.9638L28.7789 36.7831C29.2359 36.4651 29.3203 36.1761 29.3203 34.9331V33.8563L29.925 33.6468C32.175 32.8591 33.968 30.8501 34.6078 28.4147C34.8258 27.5692 34.8609 25.9794 34.6781 25.0761C34.1016 22.2216 32.0484 19.9813 29.3484 19.2587C28.7437 19.0997 28.5117 19.1141 28.343 19.3382C28.0195 19.7645 28.2656 20.097 29.0531 20.2993C31.1836 20.8557 32.9273 22.5973 33.5391 24.7942C33.7359 25.488 33.8062 26.9044 33.6797 27.6343C33.2508 30.1419 31.4367 32.1509 29.0461 32.7868C27.8297 33.1048 26.3953 33.018 25.2352 32.5555C22.8234 31.58 21.2344 29.2024 21.2344 26.5575C21.2344 24.4473 22.2539 22.4528 23.9344 21.2532C24.6586 20.7401 25.1508 20.5233 26.2125 20.2343C26.7609 20.0897 26.9367 19.7284 26.6414 19.3382C26.543 19.2081 26.4305 19.1503 26.2758 19.1503C25.6359 19.1503 23.9836 19.844 23.2031 20.4438C22.9922 20.61 22.6266 20.9352 22.3945 21.1665L21.9727 21.5929L20.3414 20.9352L18.7031 20.2848V19.3598V18.4348L19.2516 17.8712C20.0672 17.0257 20.6016 16.0139 20.8125 14.9083L20.8969 14.4675L21.2977 14.388C22.4859 14.1495 23.3437 13.08 23.3437 11.8442C23.3437 11.3745 23.1398 10.7024 22.8937 10.37C22.732 10.1532 22.725 10.1098 22.6969 8.34656C22.6617 6.67723 22.6477 6.48211 22.4789 5.81726C21.4664 1.9366 17.7609 -0.54211 13.9359 0.115505ZM16.7695 1.29344C19.0406 1.90047 20.7633 3.66375 21.4523 6.07742C21.5719 6.51824 21.607 6.86512 21.6352 8.01414C21.6703 9.26434 21.6633 9.40887 21.5648 9.37274C21.5016 9.35106 21.3398 9.3077 21.2062 9.27879C21.0094 9.24266 20.9531 9.1993 20.9531 9.07645C20.9531 8.98973 20.8969 8.81629 20.8336 8.68621C20.6578 8.36824 18.9914 6.51824 18.7594 6.38816C18.4219 6.2075 18.007 6.25809 17.543 6.54715C15.4687 7.83348 13.2961 8.45496 10.8703 8.45496C10.0617 8.45496 10.0617 8.45496 9.80859 8.67899C9.675 8.80184 9.5414 8.9825 9.52031 9.07645C9.47812 9.24988 9.42187 9.28602 8.97187 9.36551L8.70469 9.41609L8.73281 7.97801C8.76094 6.67723 8.78203 6.48211 8.95781 5.88953C9.45 4.2202 10.5891 2.76043 12.0516 1.91492C12.593 1.60418 13.1344 1.40184 13.9219 1.22117C14.6953 1.04051 15.9469 1.07664 16.7695 1.29344ZM19.1109 8.25984L19.9055 9.14149L19.8773 11.8514C19.8492 14.8866 19.8422 14.9083 19.3219 15.9634C18.6047 17.4304 17.1633 18.3915 15.5391 18.4782C13.2961 18.6083 11.3906 17.322 10.7086 15.219C10.5187 14.6337 10.5187 14.6337 10.4906 12.0827L10.4695 9.53895H11.0602C13.3031 9.53895 15.6937 8.88856 17.5852 7.76844C17.9508 7.55164 18.2602 7.3782 18.2812 7.3782C18.3023 7.38543 18.675 7.78289 19.1109 8.25984ZM9.38672 13.3546C9.31641 13.4268 8.73281 13.1378 8.50781 12.9138C8.2125 12.6175 8.08594 12.3067 8.08594 11.8731C8.08594 11.23 8.52187 10.6446 9.17578 10.4278L9.38672 10.3555L9.40781 11.837C9.41484 12.6536 9.40781 13.3329 9.38672 13.3546ZM21.5648 10.5651C22.6055 11.2083 22.4859 12.7764 21.3609 13.2534C21.2133 13.3184 21.0656 13.369 21.0234 13.369C20.9812 13.369 20.9531 12.8487 20.9531 11.8514V10.3339L21.15 10.3772C21.2555 10.4061 21.4383 10.4856 21.5648 10.5651ZM17.6484 19.7718V20.4583L16.4812 21.9397C15.8414 22.7491 15.293 23.4284 15.2648 23.4429C15.2367 23.4645 14.6883 22.8069 14.0414 21.9831L12.8672 20.4944V19.8151C12.8672 19.2009 12.8812 19.1358 12.9937 19.172C14.5477 19.6995 16.0172 19.7139 17.2125 19.2298C17.3953 19.1503 17.5641 19.0925 17.5992 19.0852C17.6273 19.078 17.6484 19.3888 17.6484 19.7718ZM13.3383 22.8141L14.4773 24.2667L13.3172 25.1122C12.6773 25.5819 12.143 25.9505 12.1359 25.936C12.0516 25.8421 10.2656 22.0915 10.2867 22.0626C10.357 21.9975 12.0586 21.3255 12.1219 21.3471C12.1641 21.3544 12.7055 22.0192 13.3383 22.8141ZM19.3078 21.6868L20.243 22.0626L19.2937 24.0065C18.6328 25.3579 18.3234 25.936 18.2602 25.8999C18.0281 25.7554 16.1016 24.3317 16.0664 24.2811C16.0383 24.2305 18.2742 21.3255 18.3445 21.3182C18.3656 21.3182 18.7945 21.4845 19.3078 21.6868ZM10.2937 24.5991C11.3625 26.8393 11.4469 26.9622 11.9602 27.0634C12.2273 27.1139 12.6492 26.9766 12.8883 26.7598C12.9727 26.6804 13.0359 26.6587 13.0641 26.7093C13.0922 26.7526 13.2187 26.955 13.3523 27.1645L13.5914 27.5403L12.9094 31.6739C12.5367 33.9503 12.2344 35.8292 12.2344 35.8581C12.2344 35.8942 11.0812 35.9159 9.66797 35.9159H7.10156V32.6061C7.10156 29.412 7.09453 29.2891 6.96094 29.1446C6.77812 28.935 6.57422 28.8845 6.38437 28.9856C6.04687 29.1735 6.05391 29.1157 6.04687 32.6061V35.9159H4.14844H2.25V31.7751C2.25 27.244 2.25 27.2223 2.67187 26.3335C3.0375 25.5675 3.77578 24.7725 4.5 24.3895C4.76016 24.245 9.13359 22.4817 9.23203 22.4745C9.26015 22.4745 9.73828 23.4284 10.2937 24.5991ZM21.1992 22.6913C21.1359 22.8069 21.0727 22.9081 21.0516 22.9081C21.0375 22.9081 21.0656 22.8069 21.1289 22.6913C21.1922 22.5684 21.2555 22.4745 21.2766 22.4745C21.2906 22.4745 21.2625 22.5684 21.1992 22.6913ZM20.5945 24.0571C19.5609 27.0561 20.5031 30.4237 22.943 32.4255L23.4141 32.8157V34.3622V35.9159H20.8477H18.2812L18.2461 35.7497C18.225 35.663 18.1195 34.9909 18 34.2538C17.8102 33.0542 17.768 32.9024 17.6062 32.7507C17.325 32.4977 17.0086 32.5483 16.8398 32.8807C16.7484 33.0542 16.7625 33.2276 16.9734 34.4995L17.2055 35.9159H15.2367H13.275L13.3102 35.7136C13.3312 35.6052 13.6266 33.8202 13.9641 31.7389L14.5898 27.9667H15.2367C15.7922 27.9667 15.8836 27.9811 15.9187 28.0895C15.9328 28.1618 16.0312 28.7544 16.1367 29.412C16.3477 30.7923 16.3969 30.9513 16.6359 31.0669C16.882 31.1825 16.9734 31.168 17.1844 30.9946C17.4234 30.7995 17.4164 30.72 17.1281 28.9639L16.8961 27.5403L17.1773 27.0995L17.4586 26.6659L17.6414 26.7888C18.1336 27.1139 18.3234 27.1573 18.682 27.02C19.0477 26.8827 19.2305 26.6081 20.0039 25.011C20.4258 24.1366 20.7773 23.4284 20.7844 23.4356C20.7984 23.4429 20.707 23.7247 20.5945 24.0571ZM15.982 25.5819L16.6008 26.03L16.4812 26.2251C16.4109 26.3263 16.2914 26.5214 16.2141 26.6442L16.0664 26.8827H15.2508H14.4352L14.175 26.4852C14.0344 26.2684 13.9219 26.0661 13.9289 26.0372C13.9289 25.936 15.1523 25.0833 15.2578 25.105C15.3141 25.1194 15.6445 25.329 15.982 25.5819ZM25.0312 33.6323C25.7977 33.9141 26.543 34.0514 27.443 34.0514L28.2727 34.0587L28.2516 34.9692L28.2305 35.8798L26.3531 35.9014L24.4687 35.9159V34.6874C24.4687 34.0153 24.4898 33.4589 24.5109 33.4589C24.5391 33.4589 24.7711 33.5384 25.0312 33.6323Z" fill="#272727"/>
<path id="Vector_2" d="M27.1406 20.9426C25.5726 21.0365 23.9133 21.9832 23.0625 23.2695C22.3383 24.3607 22.05 25.293 22.057 26.5215C22.057 27.5477 22.1836 28.1402 22.6054 29.0146C23.1469 30.1564 24.0469 31.0814 25.1297 31.6162C25.9594 32.0209 26.4164 32.1148 27.5273 32.1221C28.4203 32.1221 28.5679 32.1004 29.1234 31.9197C30.9867 31.291 32.3508 29.7879 32.8429 27.8223C32.9836 27.2441 32.9695 25.7482 32.8078 25.1557C32.1047 22.518 29.7703 20.7836 27.1406 20.9426ZM28.582 22.1566C29.3273 22.3373 29.9953 22.7275 30.5859 23.3346C32.3437 25.1195 32.3578 27.9523 30.614 29.7518C30.0164 30.366 29.0953 30.8719 28.3078 31.0092C25.5867 31.4861 23.1117 29.3904 23.1047 26.5938C23.0976 25.7555 23.2031 25.2857 23.5617 24.527C24.4617 22.6191 26.5219 21.6508 28.582 22.1566Z" fill="#272727"/>
<path id="Vector_3" d="M28.2797 25.9L27.1687 27.0129L26.6695 26.5142C26.2477 26.0951 26.1352 26.0156 25.9312 26.0156C25.6289 26.0156 25.4461 26.2035 25.4391 26.5214C25.432 26.7166 25.5305 26.8466 26.1211 27.4609C26.8875 28.2558 27.1055 28.3931 27.3656 28.2486C27.6328 28.0968 30.0094 25.7121 30.0937 25.5025C30.157 25.3507 30.15 25.264 30.0656 25.0906C30.0094 24.975 29.9039 24.8593 29.8477 24.8304C29.5172 24.7004 29.3977 24.7871 28.2797 25.9Z" fill="#272727"/>
</g>
</g>
</svg>
