<svg width="36" height="36" viewBox="0 0 36 36" fill="none" xmlns="http://www.w3.org/2000/svg">
<path d="M6.15236 0.0843239C5.65314 0.175732 4.73908 0.639793 4.31017 1.01948C3.60704 1.63823 3.15704 2.50307 3.01642 3.49448C2.83361 4.80932 3.36798 6.60933 4.38751 8.13511L4.70392 8.6062L4.48595 8.88745C3.46642 10.2445 2.1797 12.6773 2.1797 13.2468C2.1797 13.5 2.41173 13.7109 2.69298 13.7109C2.98829 13.7109 3.09376 13.5914 3.33986 13.0078C3.67736 12.1921 4.28204 11.0742 4.80236 10.2937L5.30861 9.52729L5.34376 11.1796C5.38595 13.0429 5.40704 13.1273 5.91329 13.5C6.27189 13.7531 6.68673 13.8234 7.07345 13.6898C7.23517 13.6406 7.87501 13.2328 8.50079 12.7968C10.0899 11.6929 10.1531 11.6789 12.1289 11.6718C13.9711 11.6718 14.4211 11.6085 15.1172 11.271C15.5883 11.046 15.8063 10.8562 17.1422 9.53432C18.886 7.80464 19.0758 7.53042 19.0758 6.68667C19.0758 6.0187 18.8719 5.61089 18.0563 4.67573C17.318 3.81792 17.2266 3.68433 17.2266 3.40308V3.21323L18.5133 3.25542C21.5578 3.33979 24.1664 4.16948 26.775 5.87807C27.2039 6.15932 27.5625 6.41245 27.5625 6.44057C27.5625 6.46167 27.457 6.70776 27.3235 6.98198C27.1899 7.26323 27.0492 7.65698 27 7.86792C26.8805 8.38823 26.9508 9.73823 27.1266 10.364C27.232 10.7367 27.2602 10.9687 27.232 11.3554C27.1828 11.9601 27.3024 12.8531 27.5203 13.5351C27.8227 14.4632 28.9125 16.7976 29.25 17.2125C30.2414 18.4429 31.943 18.8226 33.3633 18.1406C33.5953 18.0281 33.7992 17.9578 33.8203 17.9718C33.8836 18.0421 33.8344 20.3484 33.757 20.9531C33.2649 24.6164 31.732 27.7523 29.1797 30.3117C25.8891 33.6093 21.1289 35.325 16.5164 34.875C13.2539 34.5515 10.1461 33.2226 7.62892 31.064C3.41017 27.45 1.3922 21.7476 2.39064 16.2492C2.56642 15.2999 2.56642 15.1031 2.39064 14.9414C2.21486 14.7796 1.8422 14.7867 1.68048 14.9554C1.37814 15.2507 1.09689 17.325 1.10392 19.1601C1.12501 23.7375 2.82658 27.8015 6.07501 31.0429C7.9172 32.871 9.91408 34.1507 12.2695 35.0015C14.175 35.6906 15.7992 35.9578 18 35.9578C19.7789 35.9578 20.6438 35.8593 22.1836 35.4726C25.1367 34.7273 27.6961 33.2648 29.925 31.0429C33.1945 27.7804 34.8891 23.7023 34.8891 19.0898C34.8961 17.0718 34.657 15.5882 34.0172 13.6687L33.6656 12.607L33.9539 12.0726C34.7344 10.6593 35.0438 9.0562 34.7695 7.88198C34.432 6.45464 33.2719 5.25229 31.8797 4.88667C31.3735 4.76011 30.3891 4.75307 29.918 4.87964C29.4469 4.99917 28.9195 5.23823 28.6453 5.44917C28.5188 5.54761 28.3852 5.62495 28.357 5.62495C28.3219 5.62495 27.886 5.35073 27.3797 5.01323C25.3758 3.67026 23.0274 2.76323 20.4961 2.34135C19.3922 2.15854 16.6008 2.15854 15.5039 2.34135C14.0625 2.58042 12.7055 2.96011 11.5242 3.44526C11.25 3.56479 10.9969 3.6562 10.9758 3.6562C10.9477 3.6562 10.8914 3.45229 10.8422 3.2062C10.4414 1.0687 8.33908 -0.330521 6.15236 0.0843239ZM8.00158 1.25151C8.77501 1.54683 9.46408 2.27808 9.74533 3.10776C10.1391 4.23979 9.68204 6.03276 8.61329 7.62182C8.08595 8.40229 7.1297 9.49214 6.96798 9.49214C6.7922 9.49214 5.88517 8.45151 5.30861 7.58667C4.60548 6.54604 4.22579 5.61792 4.07111 4.57026C3.84611 2.98823 4.71798 1.57495 6.18751 1.16011C6.68673 1.02651 7.50939 1.06167 8.00158 1.25151ZM16.1719 3.60698C16.1789 3.97964 16.411 4.38042 17.1 5.17495C17.9649 6.18745 17.9367 6.14526 18.007 6.44761C18.1336 7.01011 18.0281 7.16479 16.5727 8.63433C15.8274 9.37964 15.082 10.0828 14.9063 10.1953C14.3508 10.5539 13.9289 10.6171 12.1852 10.6171C11.2992 10.6171 10.4625 10.6523 10.2516 10.6945C9.63283 10.8281 9.04923 11.1374 7.88204 11.9531C7.26329 12.375 6.72892 12.7265 6.69376 12.7265C6.65158 12.7265 6.5672 12.6773 6.51095 12.614C6.41954 12.5226 6.39845 12.3187 6.39845 11.4609V10.4062L6.58126 10.4765C7.08751 10.6734 7.60783 10.4625 8.18439 9.83667C9.67501 8.22651 10.4555 6.83433 10.8563 5.05542C10.8844 4.90776 10.9969 4.82339 11.3695 4.66167C12.1149 4.3312 13.1203 3.96557 13.8516 3.7687C14.5758 3.57182 16.0313 3.30464 16.1227 3.35386C16.1508 3.36792 16.1719 3.48745 16.1719 3.60698ZM32.0836 6.06089C32.3016 6.16636 32.6531 6.41245 32.857 6.60229C34.4742 8.13511 34.0313 10.6804 31.6688 13.5C30.9164 14.4 30.9445 14.3929 30.368 13.7812C29.4117 12.7617 28.6383 11.5312 28.2586 10.4203C28.0406 9.79448 28.0266 9.66792 28.0195 8.85933C28.0195 8.0437 28.0336 7.95229 28.2164 7.56557C28.575 6.79214 29.0461 6.34214 29.8617 6.00464C30.2203 5.84995 30.3539 5.83589 30.9727 5.85698C31.5563 5.87104 31.7461 5.9062 32.0836 6.06089ZM29.1235 13.957C30.0656 15.1031 30.5297 15.4054 31.1414 15.2648C31.5211 15.1804 31.7672 14.9906 32.3578 14.3226C32.632 14.0062 32.8852 13.739 32.9063 13.725C32.9766 13.6968 33.3774 15.082 33.5531 15.9539L33.7008 16.6851L33.532 16.8187C33.1664 17.1 32.4914 17.3812 32.0836 17.4164C31.3172 17.4867 30.4594 17.1 30.0164 16.4882C29.8406 16.2421 28.5469 13.4507 28.5469 13.3171C28.5469 13.2539 28.5258 13.2257 29.1235 13.957Z" fill="#272727"/>
<path d="M6.36329 1.9899C5.88517 2.15162 5.65314 2.29927 5.32267 2.67193C4.89376 3.14302 4.75314 3.57896 4.79532 4.28208C4.86564 5.44224 5.68829 6.25787 6.85548 6.31412C7.79064 6.36333 8.52892 5.9274 8.94376 5.08365C9.13361 4.6899 9.16876 4.54224 9.16876 4.12037C9.16876 3.25552 8.71876 2.53833 7.93829 2.13755C7.50236 1.91958 6.78517 1.8563 6.36329 1.9899ZM7.36173 3.03052C7.66407 3.14302 8.00861 3.51568 8.09298 3.81802C8.28986 4.54927 7.72736 5.27349 6.96095 5.27349C6.62345 5.27349 6.36329 5.15396 6.11017 4.87271C5.30861 4.0149 6.25782 2.61568 7.36173 3.03052Z" fill="#272727"/>
<path d="M30.0516 6.82729C29.6156 6.98901 29.1094 7.47417 28.8914 7.9312C28.6735 8.36714 28.6313 9.07729 28.786 9.54839C29.4047 11.4117 31.9149 11.6226 32.843 9.89995C33.0539 9.5062 33.075 9.40073 33.075 8.89448C33.0821 8.45151 33.0469 8.25464 32.9133 7.95932C32.7024 7.49526 32.1188 6.94682 31.6688 6.79214C31.2117 6.63745 30.4946 6.65151 30.0516 6.82729ZM31.4227 7.83979C32.1399 8.20542 32.2664 9.09135 31.6828 9.67495C31.3031 10.0546 30.9024 10.139 30.4313 9.92807C30.0024 9.73823 29.7914 9.42885 29.7563 8.93667C29.7281 8.47964 29.8899 8.17026 30.2977 7.89604C30.5789 7.7062 31.1133 7.67807 31.4227 7.83979Z" fill="#272727"/>
<path d="M19.1461 10.3641C17.775 10.6805 16.5586 11.8055 16.1719 13.1274C16.0805 13.4227 16.0805 13.4227 15.6867 13.4649C14.8008 13.5633 14.0133 13.9149 13.4438 14.4774C13.0219 14.8852 11.1586 17.5149 10.9336 18.0211C10.582 18.7875 10.5469 19.6594 10.8281 20.4117C10.9617 20.7633 10.9617 20.7703 10.8281 21.1711C10.2516 22.9289 11.025 25.425 12.8039 27.5625L13.1695 27.9984L13.1414 29.032C13.1274 29.5945 13.1133 30.4524 13.1133 30.9375C13.1133 31.7531 13.1274 31.8445 13.3031 32.175C13.8305 33.1734 15.0188 33.6516 16.0242 33.2649C16.3617 33.1383 20.6649 30.2063 21.7688 29.3484C22.0852 29.1024 22.5141 28.7016 22.732 28.4625C23.2031 27.9141 24.8906 25.5375 24.8906 25.4109C24.8906 25.0453 24.4688 24.7359 24.1594 24.8766C24.068 24.9188 23.5828 25.5305 23.0836 26.2406C21.7055 28.1813 21.8461 28.0547 18.1477 30.6141C16.1016 32.0414 15.6867 32.2945 15.4336 32.3297C15.0188 32.3719 14.8149 32.3086 14.5266 32.0555C14.1469 31.725 14.1117 31.5141 14.168 30.1359L14.2172 28.9336H14.618C15.1453 28.9336 15.3844 28.7719 16.0945 27.9633C17.5008 26.3602 18.3024 24.8133 18.5344 23.2383C18.6609 22.4156 18.6188 21.9164 18.3727 21.1641C18.0563 20.1797 17.2477 19.2445 16.3477 18.8086C14.9766 18.1406 13.1766 18.3656 12.0797 19.3359C11.8969 19.4906 11.7352 19.6172 11.707 19.6172C11.6227 19.6172 11.7281 18.8016 11.8477 18.5203C11.9953 18.1688 13.732 15.7219 14.1258 15.307C14.3016 15.1172 14.5969 14.8852 14.7797 14.7938C15.1031 14.632 15.9399 14.4633 15.9891 14.5477C16.0031 14.5688 16.0383 14.7938 16.0594 15.0469C16.1789 16.0875 16.8117 17.5852 17.6274 18.7242C18.2391 19.575 19.1039 20.5172 19.4063 20.6719C19.7227 20.8336 20.1586 20.8547 20.482 20.7141C20.7563 20.6016 21.5086 19.8352 22.0641 19.1109L22.4719 18.5766L23.9625 19.6313C25.1438 20.4609 25.4883 20.7422 25.6219 20.9742C25.9945 21.6211 25.9524 22.1203 25.4461 22.8867C25.0031 23.5688 24.9891 23.8359 25.4039 24.0117C25.7484 24.1594 25.9453 24.0399 26.3461 23.4281C26.7961 22.7602 26.9649 22.2188 26.9086 21.6281C26.7961 20.4961 26.5289 20.1656 24.6094 18.7945C23.7797 18.2039 23.0906 17.6906 23.0766 17.6625C23.0695 17.6274 23.1539 17.4094 23.2664 17.1774C24.3492 15.0047 24.1594 12.832 22.7883 11.4539C21.8391 10.5047 20.4047 10.0828 19.1461 10.3641ZM21.0094 11.5172C21.7899 11.8125 22.4367 12.4805 22.7531 13.3242C22.8586 13.5984 22.8867 13.8516 22.8797 14.4492C22.8797 15.1313 22.8516 15.3 22.6477 15.8906C22.3734 16.6992 21.9375 17.5219 21.382 18.2602C20.8547 18.9774 20.1234 19.7578 19.9828 19.7578C19.807 19.7578 18.7664 18.5484 18.225 17.7188C17.8313 17.1 17.3742 16.0875 17.2195 15.4617C17.0086 14.632 17.0508 13.6266 17.325 13.0641C17.993 11.6649 19.6102 10.9899 21.0094 11.5172ZM15.4406 19.582C16.2844 19.8281 17.0297 20.5453 17.3742 21.4383C17.7609 22.4367 17.4656 24.0117 16.6149 25.4742C16.0875 26.3742 14.8219 27.9141 14.6109 27.9141C14.4492 27.9141 13.4016 26.6906 12.8883 25.8961C11.032 23.0484 11.3906 20.4188 13.7461 19.6031C14.182 19.4484 14.9766 19.4414 15.4406 19.582Z" fill="#272727"/>
<path d="M19.4063 12.2553C17.7891 12.7124 17.2477 14.7725 18.4289 15.9538C18.8508 16.3686 19.2727 16.5514 19.9055 16.5795C20.3766 16.6077 20.5031 16.5795 20.8758 16.4178C21.607 16.0874 22.1133 15.3913 22.1977 14.6038C22.2469 14.1256 22.0852 13.8936 21.6985 13.8936C21.361 13.8936 21.2274 14.0413 21.157 14.4842C20.9742 15.6374 19.6524 15.9397 18.9985 14.9764C18.8578 14.7725 18.8367 14.66 18.8578 14.3366C18.907 13.6264 19.4203 13.1975 20.1727 13.2327C20.461 13.2467 20.5594 13.2186 20.686 13.0991C20.8758 12.9022 20.8828 12.5577 20.693 12.3678C20.5102 12.185 19.8563 12.1288 19.4063 12.2553Z" fill="#272727"/>
<path d="M13.8305 20.4608C13.3031 20.6647 12.9023 21.0374 12.6492 21.5577C12.1008 22.6687 12.5367 23.9343 13.6758 24.5249C14.1609 24.778 14.9836 24.7921 15.5039 24.553C16.425 24.1312 16.9594 23.1468 16.8047 22.1765C16.5867 20.8054 15.1102 19.9546 13.8305 20.4608ZM15.1945 21.5296C16.3336 22.1694 15.6586 23.9062 14.3719 23.6671C14.0344 23.5968 13.6125 23.203 13.507 22.8515C13.2117 21.8601 14.2875 21.0163 15.1945 21.5296Z" fill="#272727"/>
</svg>
