<svg width="36" height="36" viewBox="0 0 36 36" fill="none" xmlns="http://www.w3.org/2000/svg">
<g id="free-icon-web-development-5813784 1" clip-path="url(#clip0_23_94)">
<g id="Group">
<path id="Vector" opacity="0.948" fill-rule="evenodd" clip-rule="evenodd" d="M1.79297 -0.0351562C12.5742 -0.0351562 23.3555 -0.0351562 34.1367 -0.0351562C35.0508 0.269531 35.6602 0.878906 35.9648 1.79297C35.9648 12.5742 35.9648 23.3555 35.9648 34.1367C35.6602 35.0508 35.0508 35.6602 34.1367 35.9648C23.3555 35.9648 12.5742 35.9648 1.79297 35.9648C0.878906 35.6602 0.269531 35.0508 -0.0351562 34.1367C-0.0351562 23.3555 -0.0351562 12.5742 -0.0351562 1.79297C0.269531 0.878906 0.878906 0.269531 1.79297 -0.0351562ZM2.00391 1.23047C12.6446 1.21875 23.2852 1.23047 33.9258 1.26562C34.2656 1.41797 34.5117 1.66406 34.6641 2.00391C34.6992 2.91767 34.711 3.83173 34.6992 4.74609C23.5429 4.74609 12.3867 4.74609 1.23047 4.74609C1.21875 3.83173 1.23048 2.91767 1.26562 2.00391C1.43132 1.66257 1.67742 1.40476 2.00391 1.23047ZM1.23047 6.01172C12.3867 6.01172 23.5429 6.01172 34.6992 6.01172C34.711 15.3165 34.6992 24.6211 34.6641 33.9258C34.5117 34.2656 34.2656 34.5117 33.9258 34.6641C23.2852 34.711 12.6445 34.711 2.00391 34.6641C1.66406 34.5117 1.41797 34.2656 1.26562 33.9258C1.23047 24.6211 1.21875 15.3165 1.23047 6.01172Z" fill="#272727"/>
</g>
<g id="Group_2">
<path id="Vector_2" opacity="0.91" fill-rule="evenodd" clip-rule="evenodd" d="M2.70701 2.35545C3.13737 2.32661 3.55925 2.36177 3.97263 2.46092C4.17078 2.69561 4.22938 2.96514 4.14841 3.26951C4.03328 3.43195 3.88094 3.53742 3.69138 3.58592C3.33354 3.64397 2.98198 3.62054 2.63669 3.5156C2.33519 3.25044 2.27659 2.93404 2.46091 2.56639C2.54143 2.48648 2.62345 2.41617 2.70701 2.35545Z" fill="#272727"/>
</g>
<g id="Group_3">
<path id="Vector_3" opacity="0.896" fill-rule="evenodd" clip-rule="evenodd" d="M5.66016 2.3554C6.11383 2.32619 6.55914 2.36134 6.99609 2.46087C7.38394 3.23959 7.13784 3.62631 6.25781 3.62103C5.73166 3.68127 5.41526 3.45861 5.30859 2.95306C5.35335 2.70956 5.47054 2.51034 5.66016 2.3554Z" fill="#272727"/>
</g>
<g id="Group_4">
<path id="Vector_4" opacity="0.897" fill-rule="evenodd" clip-rule="evenodd" d="M8.68357 2.35545C9.08267 2.34377 9.48113 2.35549 9.87889 2.3906C10.363 2.85192 10.3161 3.25036 9.73826 3.58591C9.3571 3.64492 8.98212 3.62149 8.61326 3.5156C8.22324 3.09596 8.24672 2.70924 8.68357 2.35545Z" fill="#272727"/>
</g>
<g id="Group_5">
<path id="Vector_5" opacity="0.933" fill-rule="evenodd" clip-rule="evenodd" d="M29.0742 2.35547C30.4572 2.34375 31.84 2.35547 33.2226 2.39062C33.5499 2.59429 33.6554 2.88726 33.5391 3.26953C33.4239 3.43197 33.2716 3.53743 33.082 3.58594C31.793 3.63281 30.5039 3.63281 29.2148 3.58594C28.7136 3.34717 28.6081 2.98388 28.8984 2.49609C28.9684 2.4563 29.027 2.40942 29.0742 2.35547Z" fill="#272727"/>
</g>
<g id="Group_6">
<path id="Vector_6" opacity="0.945" fill-rule="evenodd" clip-rule="evenodd" d="M6.92578 7.13669C7.28684 7.06118 7.55635 7.17839 7.73438 7.48826C7.78128 16.0898 7.78128 24.6914 7.73438 33.2929C7.4956 33.5533 7.2026 33.6353 6.85547 33.539C6.69303 33.4239 6.58757 33.2716 6.53906 33.082C6.49219 24.5976 6.49219 16.1133 6.53906 7.62888C6.60504 7.41105 6.73394 7.24701 6.92578 7.13669Z" fill="#272727"/>
</g>
<g id="Group_7">
<path id="Vector_7" opacity="0.916" fill-rule="evenodd" clip-rule="evenodd" d="M3.48048 7.69921C4.02457 7.67418 4.56363 7.70934 5.09767 7.80468C5.4679 8.17453 5.4679 8.5495 5.09767 8.92968C4.4343 8.99613 3.77805 8.97264 3.12892 8.85937C2.78873 8.32183 2.90592 7.93511 3.48048 7.69921Z" fill="#272727"/>
</g>
<g id="Group_8">
<path id="Vector_8" opacity="0.938" fill-rule="evenodd" clip-rule="evenodd" d="M9.52733 7.69923C11.1681 7.68749 12.8087 7.69923 14.4492 7.73438C15.0033 7.94117 15.1323 8.30448 14.8359 8.82423C14.7832 8.86824 14.7245 8.9034 14.6601 8.9297C12.8554 8.9766 11.0508 8.9766 9.24608 8.9297C8.97699 8.6971 8.89494 8.40418 8.99998 8.05079C9.13449 7.85532 9.31027 7.73811 9.52733 7.69923Z" fill="#272727"/>
</g>
<g id="Group_9">
<path id="Vector_9" opacity="0.916" fill-rule="evenodd" clip-rule="evenodd" d="M3.26955 10.1601C3.85596 10.1485 4.44189 10.1601 5.02737 10.1953C5.35466 10.399 5.46013 10.6919 5.34377 11.0742C5.22864 11.2366 5.0763 11.3421 4.88674 11.3906C4.34207 11.4536 3.80301 11.4302 3.26955 11.3203C2.80444 10.9369 2.80444 10.5502 3.26955 10.1601Z" fill="#272727"/>
</g>
<g id="Group_10">
<path id="Vector_10" opacity="0.94" fill-rule="evenodd" clip-rule="evenodd" d="M9.24607 10.1602C11.4493 10.1484 13.6524 10.1602 15.8554 10.1953C16.2041 10.4372 16.2861 10.7536 16.1015 11.1445C15.975 11.2723 15.8227 11.3544 15.6445 11.3906C13.582 11.4375 11.5195 11.4375 9.457 11.3906C8.99224 11.2354 8.83994 10.919 8.99997 10.4414C9.09672 10.3567 9.17871 10.263 9.24607 10.1602Z" fill="#272727"/>
</g>
<g id="Group_11">
<path id="Vector_11" opacity="0.913" fill-rule="evenodd" clip-rule="evenodd" d="M3.26956 12.5508C3.85597 12.5391 4.4419 12.5508 5.02737 12.5859C5.35467 12.7896 5.46014 13.0825 5.34378 13.4648C5.2353 13.5969 5.10639 13.7023 4.95706 13.7812C4.36564 13.8449 3.77971 13.8214 3.19925 13.7109C2.81089 13.2978 2.83433 12.9111 3.26956 12.5508Z" fill="#272727"/>
</g>
<g id="Group_12">
<path id="Vector_12" opacity="0.932" fill-rule="evenodd" clip-rule="evenodd" d="M11.0742 12.5508C12.4572 12.539 13.8401 12.5508 15.2227 12.5859C15.55 12.7896 15.6555 13.0826 15.5391 13.4649C15.4528 13.6214 15.3239 13.7268 15.1524 13.7813C13.8398 13.8282 12.5274 13.8282 11.2149 13.7813C10.7176 13.5788 10.6004 13.2389 10.8633 12.7617C10.9526 12.7063 11.0229 12.636 11.0742 12.5508Z" fill="#272727"/>
</g>
<g id="Group_13">
<path id="Vector_13" opacity="0.937" fill-rule="evenodd" clip-rule="evenodd" d="M17.0508 12.5508C19.0431 12.539 21.0353 12.5508 23.0273 12.5859C23.3546 12.7896 23.4601 13.0826 23.3437 13.4649C23.2352 13.5969 23.1064 13.7024 22.957 13.7813C21.0352 13.8282 19.1132 13.8282 17.1914 13.7813C16.603 13.4354 16.5561 13.0253 17.0508 12.5508Z" fill="#272727"/>
</g>
<g id="Group_14">
<path id="Vector_14" opacity="0.926" fill-rule="evenodd" clip-rule="evenodd" d="M24.8555 12.5508C25.8636 12.539 26.8714 12.5508 27.8789 12.5859C28.363 13.0473 28.3161 13.4457 27.7383 13.7813C26.8242 13.8282 25.9102 13.8282 24.9961 13.7813C24.4157 13.4341 24.3688 13.0239 24.8555 12.5508Z" fill="#272727"/>
</g>
<g id="Group_15">
<path id="Vector_15" opacity="0.926" fill-rule="evenodd" clip-rule="evenodd" d="M29.707 12.5508C30.6917 12.539 31.6761 12.5508 32.6602 12.5859C33.0093 12.8308 33.0913 13.1473 32.9063 13.5352C32.8135 13.6749 32.6846 13.7569 32.5195 13.7813C31.6055 13.8282 30.6914 13.8282 29.7774 13.7813C29.3476 13.553 29.2421 13.2131 29.461 12.7617C29.5415 12.6819 29.6235 12.6115 29.707 12.5508Z" fill="#272727"/>
</g>
<g id="Group_16">
<path id="Vector_16" opacity="0.913" fill-rule="evenodd" clip-rule="evenodd" d="M3.33984 14.9414C3.90282 14.9297 4.46532 14.9414 5.02734 14.9765C5.35463 15.1802 5.4601 15.4732 5.34374 15.8554C5.25745 16.012 5.12854 16.1174 4.95702 16.1719C4.41796 16.2188 3.8789 16.2188 3.33984 16.1719C2.78125 15.7592 2.78125 15.349 3.33984 14.9414Z" fill="#272727"/>
</g>
<g id="Group_17">
<path id="Vector_17" opacity="0.932" fill-rule="evenodd" clip-rule="evenodd" d="M10.5117 14.9414C11.8713 14.9297 13.2307 14.9414 14.5898 14.9766C15.0027 15.1886 15.1082 15.505 14.9063 15.9258C14.8209 16.0347 14.7154 16.1167 14.5898 16.1719C13.2539 16.2188 11.918 16.2188 10.582 16.1719C10.2774 16.0903 10.1367 15.891 10.1602 15.5742C10.1515 15.2863 10.2687 15.0754 10.5117 14.9414Z" fill="#272727"/>
</g>
<g id="Group_18">
<path id="Vector_18" opacity="0.934" fill-rule="evenodd" clip-rule="evenodd" d="M16.4883 14.9414C18.4572 14.9297 20.4259 14.9414 22.3945 14.9766C22.8074 15.1886 22.9129 15.505 22.7109 15.9258C22.6256 16.0347 22.5201 16.1167 22.3945 16.1719C20.4492 16.2188 18.5039 16.2188 16.5586 16.1719C16.139 15.9334 16.0336 15.5935 16.2422 15.1524C16.3227 15.0725 16.4047 15.0022 16.4883 14.9414Z" fill="#272727"/>
</g>
<g id="Group_19">
<path id="Vector_19" opacity="0.925" fill-rule="evenodd" clip-rule="evenodd" d="M24.293 14.9414C25.2776 14.9297 26.262 14.9414 27.2461 14.9766C27.7329 15.4067 27.7095 15.8052 27.1758 16.1719C26.2383 16.2188 25.3008 16.2188 24.3633 16.1719C23.9335 15.9403 23.8281 15.6005 24.0469 15.1524C24.1274 15.0725 24.2095 15.0022 24.293 14.9414Z" fill="#272727"/>
</g>
<g id="Group_20">
<path id="Vector_20" opacity="0.924" fill-rule="evenodd" clip-rule="evenodd" d="M29.0742 14.9414C30.0589 14.9297 31.0432 14.9414 32.0273 14.9766C32.3546 15.1803 32.4601 15.4732 32.3437 15.8555C32.2575 16.012 32.1285 16.1175 31.957 16.1719C31.0195 16.2188 30.082 16.2188 29.1445 16.1719C28.6078 15.7968 28.5843 15.3867 29.0742 14.9414Z" fill="#272727"/>
</g>
<g id="Group_21">
<path id="Vector_21" opacity="0.908" fill-rule="evenodd" clip-rule="evenodd" d="M3.33982 17.332C3.90281 17.3203 4.46531 17.332 5.02732 17.3672C5.35462 17.5709 5.46009 17.8638 5.34373 18.2461C5.27799 18.429 5.14908 18.5345 4.95701 18.5625C4.41795 18.6094 3.87889 18.6094 3.33982 18.5625C2.78118 18.1526 2.78118 17.7424 3.33982 17.332Z" fill="#272727"/>
</g>
<g id="Group_22">
<path id="Vector_22" opacity="0.93" fill-rule="evenodd" clip-rule="evenodd" d="M11.1446 17.332C12.5041 17.3203 13.8635 17.332 15.2227 17.3672C15.55 17.5709 15.6555 17.8638 15.5391 18.2461C15.4805 18.3985 15.3751 18.5039 15.2227 18.5625C13.8633 18.6094 12.5039 18.6094 11.1446 18.5625C10.5859 18.1526 10.5859 17.7424 11.1446 17.332Z" fill="#272727"/>
</g>
<g id="Group_23">
<path id="Vector_23" opacity="0.935" fill-rule="evenodd" clip-rule="evenodd" d="M17.1211 17.332C19.09 17.3203 21.0588 17.332 23.0274 17.3672C23.2794 17.4842 23.3966 17.6834 23.3789 17.9649C23.4014 18.2844 23.2607 18.4835 22.957 18.5625C21.0117 18.6094 19.0664 18.6094 17.1211 18.5625C16.5691 18.154 16.5691 17.7438 17.1211 17.332Z" fill="#272727"/>
</g>
<g id="Group_24">
<path id="Vector_24" opacity="0.922" fill-rule="evenodd" clip-rule="evenodd" d="M24.9258 17.332C25.887 17.3203 26.8479 17.332 27.8086 17.3672C28.3711 17.7657 28.3711 18.164 27.8086 18.5625C26.8476 18.6094 25.8867 18.6094 24.9258 18.5625C24.369 18.1528 24.369 17.7427 24.9258 17.332Z" fill="#272727"/>
</g>
<g id="Group_25">
<path id="Vector_25" opacity="0.923" fill-rule="evenodd" clip-rule="evenodd" d="M29.7071 17.332C30.6683 17.3203 31.6292 17.332 32.5899 17.3672C32.9362 17.5326 33.0652 17.8022 32.9766 18.1758C32.8945 18.3516 32.7656 18.4805 32.5899 18.5625C31.6289 18.6094 30.668 18.6094 29.7071 18.5625C29.4551 18.4455 29.3378 18.2463 29.3555 17.9649C29.3468 17.6769 29.4641 17.466 29.7071 17.332Z" fill="#272727"/>
</g>
<g id="Group_26">
<path id="Vector_26" opacity="0.913" fill-rule="evenodd" clip-rule="evenodd" d="M3.33984 19.7226C3.87941 19.711 4.41848 19.7226 4.95703 19.7578C5.35022 19.9267 5.47912 20.2197 5.34375 20.6367C5.28516 20.7891 5.17969 20.8945 5.02734 20.9531C4.46484 21 3.90234 21 3.33984 20.9531C2.79045 20.5461 2.79045 20.1359 3.33984 19.7226Z" fill="#272727"/>
</g>
<g id="Group_27">
<path id="Vector_27" opacity="0.936" fill-rule="evenodd" clip-rule="evenodd" d="M9.38674 19.7227C11.1213 19.7109 12.8557 19.7227 14.5899 19.7578C14.9764 19.98 15.0819 20.2964 14.9063 20.707C14.8209 20.816 14.7154 20.8979 14.5899 20.9531C12.8321 21 11.0742 21 9.31643 20.9531C9.06443 20.8361 8.94722 20.6369 8.96487 20.3555C8.95066 20.0301 9.09129 19.8192 9.38674 19.7227Z" fill="#272727"/>
</g>
<g id="Group_28">
<path id="Vector_28" opacity="0.913" fill-rule="evenodd" clip-rule="evenodd" d="M3.41016 22.1132C3.98048 22.0826 4.54298 22.1178 5.09766 22.2187C5.39917 22.4838 5.45776 22.8002 5.27344 23.1679C5.20999 23.2523 5.12795 23.311 5.02735 23.3437C4.44141 23.3906 3.85547 23.3906 3.26954 23.3437C2.92046 23.0988 2.83843 22.7824 3.02344 22.3945C3.1289 22.256 3.2578 22.1623 3.41016 22.1132Z" fill="#272727"/>
</g>
<g id="Group_29">
<path id="Vector_29" opacity="0.937" fill-rule="evenodd" clip-rule="evenodd" d="M9.38673 22.1133C11.4962 22.1015 13.6056 22.1133 15.7149 22.1484C16.2121 22.3509 16.3293 22.6908 16.0664 23.168C15.9961 23.2265 15.9258 23.2852 15.8555 23.3438C13.6758 23.3907 11.4961 23.3907 9.31641 23.3438C9.05359 23.2454 8.93644 23.0579 8.96485 22.7813C8.93905 22.4448 9.07967 22.2221 9.38673 22.1133Z" fill="#272727"/>
</g>
<g id="Group_30">
<path id="Vector_30" opacity="0.916" fill-rule="evenodd" clip-rule="evenodd" d="M3.48048 24.5039C4.02561 24.476 4.56467 24.5112 5.09767 24.6093C5.39917 24.8745 5.45776 25.1909 5.27345 25.5585C5.20999 25.643 5.12796 25.7016 5.02735 25.7343C4.38737 25.8006 3.75456 25.7771 3.12892 25.664C2.78873 25.1265 2.90592 24.7398 3.48048 24.5039Z" fill="#272727"/>
</g>
<g id="Group_31">
<path id="Vector_31" opacity="0.934" fill-rule="evenodd" clip-rule="evenodd" d="M11.2852 24.5039C12.551 24.4922 13.8166 24.5039 15.082 24.5391C15.5387 24.6689 15.6911 24.9618 15.5391 25.418C15.4839 25.5436 15.4019 25.649 15.293 25.7344C13.8867 25.7813 12.4805 25.7813 11.0742 25.7344C10.7256 25.4925 10.6436 25.1761 10.8281 24.7852C10.9697 24.6623 11.122 24.5685 11.2852 24.5039Z" fill="#272727"/>
</g>
<g id="Group_32">
<path id="Vector_32" opacity="0.938" fill-rule="evenodd" clip-rule="evenodd" d="M17.2617 24.5039C19.1369 24.4922 21.0118 24.5039 22.8867 24.5391C23.3434 24.6689 23.4958 24.9618 23.3438 25.418C23.2852 25.5703 23.1797 25.6758 23.0274 25.7344C21.0352 25.7813 19.043 25.7813 17.0508 25.7344C16.5685 25.2252 16.6388 24.815 17.2617 24.5039Z" fill="#272727"/>
</g>
<g id="Group_33">
<path id="Vector_33" opacity="0.928" fill-rule="evenodd" clip-rule="evenodd" d="M25.0664 24.5039C25.9339 24.4922 26.8011 24.5039 27.668 24.5391C28.143 24.6981 28.2954 25.0145 28.125 25.4883C28.043 25.5703 27.961 25.6523 27.8789 25.7344C26.8711 25.7813 25.8633 25.7813 24.8555 25.7344C24.4858 25.4462 24.4272 25.1064 24.6797 24.7149C24.8116 24.6369 24.9405 24.5666 25.0664 24.5039Z" fill="#272727"/>
</g>
<g id="Group_34">
<path id="Vector_34" opacity="0.928" fill-rule="evenodd" clip-rule="evenodd" d="M29.8476 24.5039C30.7152 24.4922 31.5823 24.5039 32.4492 24.5391C32.8943 24.6314 33.0701 24.9009 32.9765 25.3477C32.9284 25.5275 32.8229 25.6564 32.6601 25.7344C31.6524 25.7813 30.6445 25.7813 29.6367 25.7344C29.3763 25.4956 29.2944 25.2026 29.3906 24.8555C29.5175 24.6919 29.6699 24.5748 29.8476 24.5039Z" fill="#272727"/>
</g>
<g id="Group_35">
<path id="Vector_35" opacity="0.918" fill-rule="evenodd" clip-rule="evenodd" d="M3.2695 26.9648C3.87933 26.9532 4.4887 26.9648 5.09763 27C5.46786 27.3802 5.46786 27.7551 5.09763 28.125C4.48729 28.2632 3.87792 28.2632 3.2695 28.125C2.80535 27.7385 2.80535 27.3518 3.2695 26.9648Z" fill="#272727"/>
</g>
<g id="Group_36">
<path id="Vector_36" opacity="0.935" fill-rule="evenodd" clip-rule="evenodd" d="M10.4414 26.9649C11.8479 26.9531 13.2541 26.9649 14.6602 27C15.0439 27.2784 15.1025 27.6183 14.836 28.0195C14.7201 28.1051 14.5912 28.1637 14.4492 28.1953C13.207 28.2422 11.9649 28.2422 10.7227 28.1953C10.1932 28.0856 10.0175 27.7692 10.1953 27.2461C10.2921 27.1614 10.3741 27.0677 10.4414 26.9649Z" fill="#272727"/>
</g>
<g id="Group_37">
<path id="Vector_37" opacity="0.936" fill-rule="evenodd" clip-rule="evenodd" d="M16.4883 26.9649C18.4806 26.9531 20.4728 26.9649 22.4648 27C22.8485 27.2784 22.9071 27.6183 22.6406 28.0195C22.5247 28.1051 22.3958 28.1637 22.2539 28.1953C20.4023 28.2422 18.5507 28.2422 16.6992 28.1953C16.2287 28.0872 16.0529 27.7942 16.1718 27.3164C16.2439 27.1626 16.3494 27.0454 16.4883 26.9649Z" fill="#272727"/>
</g>
<g id="Group_38">
<path id="Vector_38" opacity="0.928" fill-rule="evenodd" clip-rule="evenodd" d="M24.2929 26.9649C25.2776 26.9531 26.262 26.9649 27.2461 27C27.5673 27.1787 27.6728 27.4483 27.5625 27.8086C27.4584 28.031 27.2826 28.1599 27.0351 28.1953C26.0937 28.2603 25.1562 28.2369 24.2226 28.125C23.8326 27.7054 23.8561 27.3187 24.2929 26.9649Z" fill="#272727"/>
</g>
<g id="Group_39">
<path id="Vector_39" opacity="0.928" fill-rule="evenodd" clip-rule="evenodd" d="M29.0742 26.9649C30.0823 26.9531 31.0901 26.9649 32.0976 27C32.4678 27.3802 32.4678 27.7552 32.0976 28.125C31.1641 28.2369 30.2266 28.2603 29.2851 28.1953C28.768 28.0285 28.6156 27.6887 28.8281 27.1758C28.9086 27.0959 28.9907 27.0256 29.0742 26.9649Z" fill="#272727"/>
</g>
<g id="Group_40">
<path id="Vector_40" opacity="0.915" fill-rule="evenodd" clip-rule="evenodd" d="M3.26955 29.3554C3.85596 29.3438 4.44189 29.3554 5.02736 29.3906C5.35466 29.5943 5.46013 29.8872 5.34377 30.2695C5.22864 30.4319 5.0763 30.5374 4.88674 30.5859C4.39455 30.6328 3.90236 30.6328 3.41017 30.5859C2.90791 30.3443 2.80244 29.981 3.09377 29.4961C3.16371 29.4563 3.2223 29.4094 3.26955 29.3554Z" fill="#272727"/>
</g>
<g id="Group_41">
<path id="Vector_41" opacity="0.933" fill-rule="evenodd" clip-rule="evenodd" d="M11.0742 29.3555C12.4572 29.3437 13.84 29.3555 15.2226 29.3906C15.5499 29.5943 15.6554 29.8873 15.5391 30.2695C15.4239 30.432 15.2716 30.5374 15.082 30.5859C13.793 30.6328 12.5039 30.6328 11.2148 30.5859C10.7136 30.3472 10.6081 29.9839 10.8984 29.4961C10.9684 29.4563 11.027 29.4094 11.0742 29.3555Z" fill="#272727"/>
</g>
<g id="Group_42">
<path id="Vector_42" opacity="0.937" fill-rule="evenodd" clip-rule="evenodd" d="M17.0508 29.3555C19.0431 29.3437 21.0353 29.3555 23.0273 29.3906C23.3546 29.5943 23.4601 29.8873 23.3437 30.2695C23.2286 30.432 23.0763 30.5374 22.8867 30.5859C20.9883 30.6328 19.0898 30.6328 17.1914 30.5859C16.603 30.2401 16.5561 29.8299 17.0508 29.3555Z" fill="#272727"/>
</g>
<g id="Group_43">
<path id="Vector_43" opacity="0.926" fill-rule="evenodd" clip-rule="evenodd" d="M24.8555 29.3555C25.8636 29.3437 26.8714 29.3555 27.8789 29.3906C28.363 29.852 28.3161 30.2504 27.7383 30.5859C26.8242 30.6328 25.9102 30.6328 24.9961 30.5859C24.4157 30.2387 24.3688 29.8285 24.8555 29.3555Z" fill="#272727"/>
</g>
<g id="Group_44">
<path id="Vector_44" opacity="0.928" fill-rule="evenodd" clip-rule="evenodd" d="M29.707 29.3555C30.6917 29.3437 31.6761 29.3555 32.6602 29.3906C33.0088 29.6325 33.0908 29.9489 32.9062 30.3399C32.7952 30.4482 32.6663 30.5303 32.5195 30.5859C31.6289 30.6328 30.7383 30.6328 29.8477 30.5859C29.3522 30.3962 29.2232 30.0564 29.4609 29.5664C29.5414 29.4865 29.6235 29.4162 29.707 29.3555Z" fill="#272727"/>
</g>
<g id="Group_45">
<path id="Vector_45" opacity="0.913" fill-rule="evenodd" clip-rule="evenodd" d="M3.26953 31.7461C3.85593 31.7344 4.44187 31.7461 5.02734 31.7812C5.35464 31.9849 5.4601 32.2778 5.34374 32.6601C5.25745 32.8167 5.12854 32.9221 4.95703 32.9765C4.36561 33.0402 3.77967 33.0168 3.19921 32.9062C2.80993 32.4964 2.83336 32.1097 3.26953 31.7461Z" fill="#272727"/>
</g>
<g id="Group_46">
<path id="Vector_46" opacity="0.936" fill-rule="evenodd" clip-rule="evenodd" d="M9.31643 31.7461C11.0979 31.7344 12.8791 31.7461 14.6602 31.7813C15.0098 32.0293 15.0918 32.3457 14.9063 32.7305C14.8135 32.8702 14.6846 32.9522 14.5196 32.9766C12.8086 33.0235 11.0977 33.0235 9.38674 32.9766C9.07125 32.8852 8.93063 32.6742 8.96487 32.3438C8.95137 32.065 9.06858 31.8657 9.31643 31.7461Z" fill="#272727"/>
</g>
</g>
<defs>
<clipPath id="clip0_23_94">
<rect width="36" height="36" fill="white"/>
</clipPath>
</defs>
</svg>
