<svg width="36" height="36" viewBox="0 0 36 36" fill="none" xmlns="http://www.w3.org/2000/svg">
<g id="free-icon-search-3281188 1" clip-path="url(#clip0_23_60)">
<g id="Group">
<path id="Vector" opacity="0.944" fill-rule="evenodd" clip-rule="evenodd" d="M1.08984 -0.0351562C7.27734 -0.0351562 13.4648 -0.0351562 19.6523 -0.0351562C21.8765 2.22412 24.1147 4.47412 26.3672 6.71484C26.4587 8.2338 26.5055 9.75727 26.5078 11.2852C29.217 12.7998 30.7873 15.0966 31.2188 18.1758C31.1086 18.4087 30.9211 18.5259 30.6562 18.5273C30.4871 18.5131 30.3465 18.4428 30.2344 18.3164C29.6054 15.2866 27.8827 13.1421 25.0664 11.8828C21.251 10.6315 18.0518 11.5339 15.4688 14.5898C13.5794 17.3588 13.345 20.265 14.7656 23.3086C16.365 26.119 18.7907 27.5955 22.043 27.7383C25.8003 27.507 28.3901 25.6554 29.8125 22.1836C30.0488 21.3749 30.2246 20.5545 30.3398 19.7227C30.6118 19.4713 30.9048 19.4479 31.2188 19.6523C31.2969 19.7852 31.3556 19.9259 31.3945 20.0742C31.2744 21.6886 30.7822 23.1769 29.918 24.5391C30.3281 24.9492 30.7383 25.3594 31.1484 25.7695C31.3837 25.5956 31.6298 25.5839 31.8867 25.7344C33.0703 26.9179 34.2539 28.1016 35.4375 29.2852C35.6746 29.6122 35.8504 29.9638 35.9648 30.3398C35.9648 30.7383 35.9648 31.1367 35.9648 31.5352C35.3351 33.1741 34.1632 33.7484 32.4492 33.2578C32.1557 33.1464 31.8979 32.9823 31.6758 32.7656C30.5625 31.6524 29.4492 30.539 28.3359 29.4258C28.2577 29.2929 28.1991 29.1523 28.1602 29.0039C28.22 28.8385 28.2551 28.6744 28.2656 28.5117C27.8896 28.1239 27.5029 27.749 27.1055 27.3867C26.912 27.5128 26.7128 27.6299 26.5078 27.7383C26.5054 30.1316 26.4585 32.5223 26.3672 34.9102C26.1548 35.392 25.8149 35.7436 25.3477 35.9648C17.2617 35.9648 9.17578 35.9648 1.08984 35.9648C0.550781 35.7539 0.175781 35.3789 -0.0351562 34.8398C-0.0351562 25.8398 -0.0351562 16.8398 -0.0351562 7.83984C0.231943 7.52871 0.548349 7.48188 0.914062 7.69922C0.9747 7.8108 1.02158 7.92802 1.05469 8.05078C1.07812 16.9102 1.10156 25.7695 1.125 34.6289C1.23453 34.7884 1.38687 34.8704 1.58203 34.875C9.31641 34.9219 17.0508 34.9219 24.7852 34.875C24.9803 34.8704 25.1326 34.7884 25.2422 34.6289C25.3577 32.5004 25.3812 30.3676 25.3125 28.2305C24.3993 28.5912 23.4501 28.7905 22.4648 28.8281C18.3867 28.875 14.3086 28.875 10.2305 28.8281C9.83264 28.6995 9.70369 28.4299 9.84375 28.0195C9.87891 27.8906 9.96096 27.8086 10.0898 27.7734C12.5742 27.75 15.0586 27.7265 17.543 27.7031C16.8507 27.3157 16.2179 26.8469 15.6445 26.2969C13.793 26.2735 11.9414 26.25 10.0898 26.2266C10.0254 26.2003 9.9668 26.1651 9.91406 26.1211C9.70988 25.7185 9.79186 25.4021 10.1602 25.1719C11.6367 25.1485 13.1133 25.125 14.5898 25.1016C13.6945 23.9752 13.132 22.6978 12.9023 21.2695C11.9646 21.2813 11.027 21.2695 10.0898 21.2344C9.87778 21.1269 9.78405 20.9511 9.80859 20.707C9.79706 20.4485 9.91427 20.2727 10.1602 20.1797C11.0283 20.1679 11.8955 20.1328 12.7617 20.0742C12.6778 19.6304 12.6778 19.1851 12.7617 18.7383C11.9176 18.75 11.0739 18.7383 10.2305 18.7031C10.0654 18.6788 9.93649 18.5967 9.84375 18.457C9.79685 18.2461 9.79685 18.0352 9.84375 17.8242C9.90724 17.7398 9.98923 17.6811 10.0898 17.6484C11.0282 17.6367 11.9657 17.6015 12.9023 17.543C13.1917 16.2028 13.7542 14.9958 14.5898 13.9219C13.1133 13.8985 11.6367 13.875 10.1602 13.8516C9.79186 13.6214 9.70988 13.305 9.91406 12.9023C9.9668 12.8583 10.0254 12.8232 10.0898 12.7969C11.9414 12.7735 13.793 12.75 15.6445 12.7266C16.2179 12.1765 16.8507 11.7077 17.543 11.3203C15.0586 11.2969 12.5742 11.2734 10.0898 11.25C9.87778 11.1425 9.78405 10.9667 9.80859 10.7227C9.78181 10.524 9.85212 10.3717 10.0195 10.2656C14.1856 10.149 18.3575 10.1256 22.5352 10.1953C23.4966 10.2423 24.4224 10.4415 25.3125 10.793C25.3477 9.73856 25.3594 8.68388 25.3477 7.62891C23.6365 7.64065 21.9256 7.62891 20.2148 7.59375C19.551 7.49257 19.094 7.12934 18.8438 6.50391C18.8086 4.67593 18.7969 2.8478 18.8086 1.01953C12.9696 0.985148 7.13363 1.0203 1.30078 1.125C1.24219 1.18359 1.18359 1.24219 1.125 1.30078C1.12218 2.96834 1.0753 4.63241 0.984375 6.29297C0.644811 6.66337 0.304967 6.66337 -0.0351562 6.29297C-0.0351562 4.53516 -0.0351562 2.77734 -0.0351562 1.01953C0.205126 0.521351 0.580126 0.169789 1.08984 -0.0351562ZM19.9336 1.93359C21.4663 3.43114 22.9897 4.94286 24.5039 6.46875C23.0463 6.5366 21.5931 6.51316 20.1445 6.39844C20.086 6.33985 20.0273 6.28125 19.9688 6.22266C19.9336 4.79316 19.9219 3.36348 19.9336 1.93359ZM4.67578 10.793C5.4961 10.793 6.3164 10.793 7.13672 10.793C7.13672 11.6133 7.13672 12.4336 7.13672 13.2539C6.3164 13.2539 5.4961 13.2539 4.67578 13.2539C4.67578 12.4336 4.67578 11.6133 4.67578 10.793ZM4.74609 18.1758C5.54297 18.1758 6.33985 18.1758 7.13672 18.1758C7.14846 18.9964 7.13672 19.8167 7.10156 20.6367C6.30469 20.7304 5.50781 20.7304 4.71094 20.6367C4.65394 19.811 4.66566 18.9908 4.74609 18.1758ZM29.1445 25.5586C29.5609 25.8575 29.9359 26.2091 30.2695 26.6133C29.918 27.0117 29.543 27.3867 29.1445 27.7383C28.7696 27.4101 28.418 27.0586 28.0898 26.6836C28.4906 26.3533 28.8421 25.9783 29.1445 25.5586ZM4.67578 25.7695C5.4961 25.7695 6.3164 25.7695 7.13672 25.7695C7.13672 26.5899 7.13672 27.4101 7.13672 28.2305C6.3164 28.2305 5.4961 28.2305 4.67578 28.2305C4.67578 27.4101 4.67578 26.5899 4.67578 25.7695ZM31.4648 27.0352C32.5858 28.0272 33.6522 29.0819 34.6641 30.1992C35.0117 30.9637 34.8593 31.6081 34.207 32.1328C33.7148 32.3672 33.2227 32.3672 32.7305 32.1328C31.6758 31.0781 30.6211 30.0234 29.5664 28.9688C30.2134 28.3335 30.8462 27.6889 31.4648 27.0352Z" fill="#272727"/>
</g>
<g id="Group_2">
<path id="Vector_2" opacity="0.935" fill-rule="evenodd" clip-rule="evenodd" d="M4.39453 9.66798C5.40262 9.65624 6.41043 9.66798 7.41797 9.70313C7.79836 9.82569 8.06794 10.0718 8.22656 10.4414C8.27346 11.4961 8.27346 12.5508 8.22656 13.6055C8.0742 13.9453 7.8281 14.1914 7.48828 14.3438C6.45703 14.3907 5.42579 14.3907 4.39453 14.3438C3.98621 14.2167 3.71669 13.9472 3.58594 13.5352C3.53906 12.5274 3.53906 11.5195 3.58594 10.5117C3.72974 10.0986 3.99927 9.81732 4.39453 9.66798ZM4.67578 10.793C4.67578 11.6133 4.67578 12.4336 4.67578 13.2539C5.4961 13.2539 6.31641 13.2539 7.13672 13.2539C7.13672 12.4336 7.13672 11.6133 7.13672 10.793C6.31641 10.793 5.4961 10.793 4.67578 10.793Z" fill="#272727"/>
</g>
<g id="Group_3">
<path id="Vector_3" opacity="0.925" fill-rule="evenodd" clip-rule="evenodd" d="M21.1992 12.6211C24.6053 12.4188 27.0311 13.8485 28.4766 16.9102C29.4887 19.8806 28.8911 22.4704 26.6836 24.6797C24.59 26.396 22.2463 26.8413 19.6524 26.0156C18.3566 25.5033 17.2902 24.6947 16.4531 23.5899C16.3859 22.8231 16.7023 22.6005 17.4024 22.9219C19.0705 24.9857 21.2033 25.6888 23.8008 25.0313C26.6659 23.885 27.9901 21.7638 27.7734 18.668C27.2141 15.929 25.5618 14.3 22.8164 13.7813C19.9279 13.5899 17.8772 14.797 16.6641 17.4024C16.1876 18.7371 16.1524 20.0848 16.5586 21.4453C16.5649 21.8256 16.3774 22.0014 15.9961 21.9727C15.7975 21.9995 15.6452 21.9291 15.5391 21.7617C14.6649 18.9479 15.2625 16.4987 17.332 14.4141C18.4479 13.4341 19.7369 12.8365 21.1992 12.6211ZM24.1524 17.6133C24.6237 17.6665 24.8229 17.9244 24.75 18.3867C23.7521 19.4548 22.7326 20.4979 21.6914 21.5156C21.4538 21.5816 21.2428 21.5347 21.0586 21.375C20.5547 20.8711 20.0508 20.3672 19.5469 19.8633C19.4331 19.227 19.6791 18.9809 20.2852 19.125C20.5664 19.3828 20.8477 19.6406 21.1289 19.8984C21.3068 19.9984 21.4943 20.0218 21.6914 19.9688C22.481 19.1439 23.3014 18.3587 24.1524 17.6133Z" fill="#272727"/>
</g>
<g id="Group_4">
<path id="Vector_4" opacity="0.921" fill-rule="evenodd" clip-rule="evenodd" d="M24.0117 16.4883C25.3922 16.5211 26.0134 17.2242 25.875 18.5977C25.824 18.7699 25.7537 18.934 25.6641 19.0898C24.5959 20.2283 23.506 21.3416 22.3945 22.4297C21.7851 22.7578 21.1758 22.7578 20.5664 22.4297C19.9005 21.8342 19.256 21.2131 18.6328 20.5664C18.276 19.96 18.2526 19.3506 18.5625 18.7383C19.0581 18.034 19.7261 17.7879 20.5664 18C20.8996 18.1577 21.2043 18.357 21.4805 18.5977C22.0537 17.9893 22.6396 17.3917 23.2383 16.8047C23.4881 16.6556 23.7459 16.5501 24.0117 16.4883ZM24.1523 17.6133C23.3014 18.3587 22.481 19.1438 21.6914 19.9688C21.4943 20.0218 21.3068 19.9984 21.1289 19.8984C20.8477 19.6406 20.5664 19.3828 20.2852 19.125C19.6791 18.9809 19.433 19.227 19.5469 19.8633C20.0508 20.3672 20.5547 20.8711 21.0586 21.375C21.2428 21.5347 21.4538 21.5816 21.6914 21.5156C22.7326 20.4979 23.7521 19.4548 24.75 18.3867C24.8228 17.9243 24.6236 17.6665 24.1523 17.6133Z" fill="#272727"/>
</g>
<g id="Group_5">
<path id="Vector_5" opacity="0.936" fill-rule="evenodd" clip-rule="evenodd" d="M4.53516 17.0508C5.47295 17.039 6.41045 17.0508 7.34766 17.0859C7.79942 17.1863 8.09241 17.4558 8.22656 17.8945C8.27346 18.9258 8.27346 19.957 8.22656 20.9883C8.07145 21.4468 7.75505 21.7163 7.27735 21.7969C6.38672 21.8438 5.4961 21.8438 4.60547 21.7969C4.09116 21.7044 3.75132 21.4114 3.58594 20.918C3.53906 19.9336 3.53906 18.9492 3.58594 17.9649C3.75827 17.4994 4.07467 17.1947 4.53516 17.0508ZM4.7461 18.1758C4.66567 18.9908 4.65394 19.811 4.71094 20.6367C5.50781 20.7305 6.30469 20.7305 7.10156 20.6367C7.13672 19.8167 7.14846 18.9964 7.13672 18.1758C6.33985 18.1758 5.54297 18.1758 4.7461 18.1758Z" fill="#272727"/>
</g>
<g id="Group_6">
<path id="Vector_6" opacity="0.935" fill-rule="evenodd" clip-rule="evenodd" d="M4.39453 24.6445C5.42605 24.6328 6.4573 24.6445 7.48828 24.6797C7.8281 24.8321 8.0742 25.0782 8.22656 25.418C8.27346 26.4727 8.27346 27.5274 8.22656 28.582C8.06794 28.9517 7.79836 29.1978 7.41797 29.3203C6.41016 29.3672 5.40234 29.3672 4.39453 29.3203C3.98438 29.1914 3.71484 28.9219 3.58594 28.5117C3.53906 27.5039 3.53906 26.4961 3.58594 25.4883C3.72789 25.077 3.99742 24.7957 4.39453 24.6445ZM4.67578 25.7695C4.67578 26.5899 4.67578 27.4101 4.67578 28.2305C5.4961 28.2305 6.31641 28.2305 7.13672 28.2305C7.13672 27.4101 7.13672 26.5899 7.13672 25.7695C6.31641 25.7695 5.4961 25.7695 4.67578 25.7695Z" fill="#272727"/>
</g>
</g>
<defs>
<clipPath id="clip0_23_60">
<rect width="36" height="36" fill="white"/>
</clipPath>
</defs>
</svg>
