<svg width="178" height="40" viewBox="0 0 178 40" fill="none" xmlns="http://www.w3.org/2000/svg">
<path d="M7.8291 14.0188L16.9741 8.32251L25.5516 14.0188L22.7846 14.0203L9.28299 22.5101L9.27581 14.0188H7.8291Z" fill="white"/>
<path d="M23.0336 14.3901L17.1958 18.0924L24.3 22.5503V14.3901H23.0336Z" fill="white"/>
<path d="M5.00097 18.6254L2.23973 16.9668L4.98732 15.3161C5.69846 9.96458 9.91861 5.72504 15.2608 4.98516L16.9129 2.2347L18.5622 4.98085C22.4074 5.50308 25.6743 7.83763 27.4766 11.0967L31.5028 8.46185C28.5692 3.40126 23.1322 0 16.9057 0C7.56897 0 0 7.64296 0 17.071C0 20.0175 1.60976 23.362 3.83513 26.5672L7.37359 24.2513C6.13951 22.6473 5.29907 20.7243 5.00097 18.6254Z" fill="white"/>
<path d="M31.5029 8.46191L27.4767 11.0967C28.1878 12.384 28.6712 13.8149 28.8709 15.3356L31.5855 16.9669L28.8566 18.6061C28.1095 23.9303 23.8836 28.1368 18.55 28.8551L16.9123 31.5812L15.2723 28.8508C12.0621 28.4098 9.2571 26.7037 7.37293 24.2528L3.83447 26.5687C8.73057 33.6198 16.6091 39.9999 16.9051 39.9999C16.9051 39.9999 33.8116 26.5005 33.8116 17.0725C33.8116 13.9305 32.9682 10.9904 31.5029 8.46191Z" fill="white"/>
<path d="M64.3371 15.9101H67.6351C65.9671 19.4205 63.0462 21.1765 58.8694 21.1765C56.0298 21.1765 53.6443 20.1296 51.7114 18.0343C49.7786 15.939 48.8115 13.4207 48.8115 10.4749C48.8115 7.62584 49.8053 5.16668 51.7927 3.1003C53.7802 1.03391 56.1573 0 58.9241 0C60.8835 0 62.6159 0.453421 64.1184 1.35882C65.6938 2.3032 66.867 3.67068 67.6351 5.46415H64.5025C63.1653 3.61437 61.2872 2.6902 58.8694 2.6902C56.8904 2.6902 55.1776 3.4743 53.7312 5.03961C52.2833 6.60636 51.5601 8.4186 51.5601 10.4749C51.5601 12.6077 52.2553 14.4676 53.6485 16.0531C55.0781 17.695 56.8175 18.5166 58.8694 18.5166C61.2858 18.5152 63.1093 17.6473 64.3371 15.9101Z" fill="white"/>
<path d="M80.576 17.4726V20H69.9878V0H80.576V2.38861H72.7348V8.77807H80.576V11.1114H72.7348V17.4726H80.576Z" fill="white"/>
<path d="M84.1055 20V0H88.2926C92.5725 0 94.7124 1.81483 94.7124 5.4445C94.7124 7.09216 93.9227 8.37005 92.3434 9.27676C94.6941 9.98087 95.8702 11.5364 95.8702 13.9435C95.8702 17.9812 93.4549 19.9986 88.6242 19.9986H84.1055V20ZM86.695 2.47219V8.5273H87.7966C90.6433 8.5273 92.0666 7.48034 92.0666 5.38783C92.0666 3.44407 90.8541 2.47219 88.4303 2.47219H86.695ZM86.695 10.6382V17.5278H89.1188C91.8362 17.5278 93.1963 16.4454 93.1963 14.2778C93.1963 11.8524 91.8376 10.6382 89.1188 10.6382H86.695Z" fill="white"/>
<path d="M108.812 17.4726V20H99.3999V0H108.812V2.38861H101.842V8.77807H108.812V11.1114H101.842V17.4726H108.812Z" fill="white"/>
<path d="M115.816 11.8334V20H113.518V0H118.262C119.989 0 121.375 0.463302 122.418 1.38849C123.543 2.4072 124.106 3.87928 124.106 5.80476C124.106 7.76849 123.511 9.28733 122.321 10.3599C121.229 11.3417 119.793 11.832 118.017 11.832H115.816V11.8334ZM115.816 2.38878V9.4446H117.821C120.462 9.4446 121.782 8.28705 121.782 5.97336C121.782 3.58458 120.494 2.38878 117.919 2.38878H115.816Z" fill="white"/>
<path d="M130.103 11.1667V20H127.635V0H130.103V8.63923H138.107V0H140.576V20H138.107V11.1667H130.103Z" fill="white"/>
<path d="M164.106 10.4606C164.106 13.4197 163.093 15.9462 161.069 18.0386C159.043 20.131 156.531 21.1765 153.532 21.1765C150.571 21.1765 148.065 20.1209 146.01 18.0097C143.957 15.9 142.929 13.3836 142.929 10.4606C142.929 7.59527 143.98 5.13657 146.082 3.08166C148.183 1.02818 150.685 0 153.589 0C156.512 0 158.995 1.02241 161.04 3.06868C163.083 5.11206 164.106 7.57652 164.106 10.4606ZM161.212 10.4044C161.212 8.34945 160.452 6.54978 158.934 5.00391C157.415 3.45803 155.615 2.68509 153.532 2.68509C151.449 2.68509 149.645 3.46813 148.117 5.03131C146.589 6.59593 145.826 8.4057 145.826 10.4592C145.826 12.5891 146.571 14.4609 148.06 16.0716C149.55 17.6824 151.375 18.4885 153.534 18.4885C155.787 18.4885 157.64 17.6867 159.093 16.0846C160.505 14.5416 161.212 12.6482 161.212 10.4044Z" fill="white"/>
<path d="M177.047 17.4726V20H167.635V0H177.047V2.38861H170.077V8.77807H177.047V11.1114H170.077V17.4726H177.047Z" fill="white"/>
<path d="M51.351 27.4005V37.647H49.9878V25.8823H57.0466V37.647H55.6834V27.4005H51.351Z" fill="white"/>
<path d="M73.5173 31.6946C73.5173 33.3382 72.8989 34.7416 71.6607 35.9032C70.4224 37.0649 68.8877 37.647 67.055 37.647C65.245 37.647 63.7133 37.0609 62.4584 35.8872C61.2036 34.7149 60.5762 33.3169 60.5762 31.6932C60.5762 30.1016 61.2186 28.7344 62.5021 27.5941C63.787 26.4525 65.3157 25.8823 67.0896 25.8823C68.8756 25.8823 70.3938 26.4498 71.6426 27.5861C72.8929 28.7224 73.5173 30.091 73.5173 31.6946ZM71.7479 31.6625C71.7479 30.5209 71.2845 29.5208 70.3546 28.6623C69.4263 27.8037 68.3264 27.3738 67.055 27.3738C65.7821 27.3738 64.6793 27.8091 63.7449 28.677C62.812 29.5462 62.3441 30.5516 62.3441 31.6932C62.3441 32.8763 62.7985 33.9151 63.7103 34.811C64.6206 35.7056 65.7355 36.1542 67.055 36.1542C68.4318 36.1542 69.5647 35.7096 70.4525 34.819C71.3161 33.9618 71.7479 32.9083 71.7479 31.6625Z" fill="white"/>
<path d="M78.007 25.8823H79.6021L83.2076 36.1928H84.1058V40H82.5593V37.647H75.064V40H73.5176V36.1928H74.3986L78.007 25.8823ZM81.6797 36.1928L78.8124 27.8477L75.9465 36.1928H81.6797Z" fill="white"/>
<path d="M87.959 26.9129L88.085 37.647H86.4585V25.8823H89.1217L92.9659 35.301L96.8087 25.8823H99.3997V37.647H97.827L97.9345 26.9102L93.5542 37.647H92.3393L87.959 26.9129Z" fill="white"/>
<path d="M113.517 31.6946C113.517 33.3382 112.899 34.7416 111.661 35.9032C110.422 37.0649 108.888 37.647 107.055 37.647C105.245 37.647 103.713 37.0609 102.458 35.8872C101.204 34.7149 100.576 33.3169 100.576 31.6932C100.576 30.1016 101.219 28.7344 102.502 27.5941C103.786 26.4525 105.316 25.8823 107.09 25.8823C108.876 25.8823 110.394 26.4498 111.643 27.5861C112.893 28.7224 113.517 30.091 113.517 31.6946ZM111.749 31.6625C111.749 30.5209 111.286 29.5208 110.358 28.6623C109.429 27.8037 108.329 27.3738 107.057 27.3738C105.784 27.3738 104.681 27.8091 103.746 28.677C102.812 29.5462 102.346 30.5516 102.346 31.6932C102.346 32.8763 102.801 33.9151 103.712 34.811C104.622 35.7056 105.737 36.1542 107.057 36.1542C108.433 36.1542 109.566 35.7096 110.454 34.819C111.318 33.9618 111.749 32.9083 111.749 31.6625Z" fill="white"/>
<path d="M124.397 34.7219H126.459C125.417 36.6724 123.59 37.647 120.98 37.647C119.205 37.647 117.714 37.0655 116.506 35.901C115.297 34.7366 114.694 33.3369 114.694 31.7018C114.694 30.119 115.315 28.7526 116.557 27.6042C117.8 26.4559 119.284 25.8823 121.014 25.8823C122.238 25.8823 123.32 26.1337 124.26 26.6363C125.244 27.1604 125.978 27.9211 126.459 28.9171H124.5C123.664 27.889 122.491 27.3756 120.98 27.3756C119.743 27.3756 118.672 27.8115 117.767 28.6805C116.863 29.5508 116.411 30.5575 116.411 31.7005C116.411 32.885 116.847 33.9171 117.716 34.7981C118.609 35.7099 119.697 36.1657 120.98 36.1657C122.491 36.1684 123.63 35.6871 124.397 34.7219Z" fill="white"/>
<path d="M130.389 25.8823V37.6456H128.812V25.8823H130.389ZM134.956 37.6456L130.556 31.7154L135.155 25.8837H137.047L132.281 31.714L136.948 37.647H134.956V37.6456Z" fill="white"/>
<path d="M149.988 31.6946C149.988 33.3382 149.37 34.7416 148.131 35.9032C146.895 37.0649 145.358 37.647 143.526 37.647C141.716 37.647 140.184 37.0609 138.929 35.8872C137.674 34.7149 137.047 33.3169 137.047 31.6932C137.047 30.1016 137.689 28.7344 138.973 27.5941C140.256 26.4525 141.786 25.8823 143.56 25.8823C145.346 25.8823 146.863 26.4498 148.113 27.5861C149.364 28.7224 149.988 30.091 149.988 31.6946ZM148.219 31.6625C148.219 30.5209 147.755 29.5208 146.827 28.6623C145.899 27.8037 144.797 27.3738 143.526 27.3738C142.253 27.3738 141.15 27.8091 140.216 28.677C139.281 29.5462 138.815 30.5516 138.815 31.6932C138.815 32.8763 139.271 33.9151 140.181 34.811C141.091 35.7056 142.206 36.1542 143.526 36.1542C144.904 36.1542 146.035 35.7096 146.923 34.819C147.787 33.9618 148.219 32.9083 148.219 31.6625Z" fill="white"/>
<path d="M151.165 37.647V25.8823H154.096C157.092 25.8823 158.59 26.9505 158.59 29.0839C158.59 30.0534 158.036 30.8049 156.931 31.3383C158.576 31.7522 159.4 32.6675 159.4 34.0843C159.4 36.4594 157.708 37.6456 154.328 37.6456H151.165V37.647ZM152.979 27.3366V30.8979H153.751C155.743 30.8979 156.74 30.2826 156.74 29.052C156.74 27.9075 155.892 27.3366 154.195 27.3366H152.979ZM152.979 32.1397V36.1914H154.676C156.578 36.1914 157.529 35.5538 157.529 34.2801C157.529 32.8536 156.578 32.1397 154.676 32.1397H152.979Z" fill="white"/>
<path d="M161.753 37.6456V25.8823H163.317V30.6196H164.583C165.856 30.6196 166.854 30.8807 167.578 31.4043C168.4 32.0042 168.812 32.9125 168.812 34.1333C168.812 35.3527 168.4 36.2624 167.578 36.8623C166.854 37.3845 165.854 37.647 164.583 37.647H161.753V37.6456ZM163.317 32.0737V36.1902H164.583C165.427 36.1902 166.054 36.0596 166.459 35.7985C166.964 35.4832 167.217 34.9263 167.217 34.1319C167.217 33.3264 166.97 32.7653 166.476 32.4487C166.082 32.1987 165.45 32.0723 164.585 32.0723H163.317V32.0737Z" fill="white"/>
<path d="M177.047 36.1594V37.647H171.165V25.8823H177.047V27.2866H172.691V31.0452H177.047V32.4175H172.691V36.1594H177.047Z" fill="white"/>
</svg>
