<svg width="100" height="40" viewBox="0 0 100 40" fill="none" xmlns="http://www.w3.org/2000/svg">
<g id="Group">
<path id="Vector" d="M7.52441 14.2516L16.3136 8.77686L24.5574 14.2516L21.8981 14.2529L8.92174 22.4125L8.91484 14.2516H7.52441Z" fill="#E30613"/>
<path id="Vector_2" d="M22.1381 14.6084L16.5273 18.1666L23.3552 22.4511V14.6084H22.1381Z" fill="#891002"/>
<path id="Vector_3" d="M4.80642 18.6789L2.1526 17.0848L4.7933 15.4983C5.47678 10.355 9.53275 6.2804 14.6671 5.56931L16.255 2.92584L17.8401 5.56516C21.5357 6.06707 24.6755 8.3108 26.4077 11.4431L30.2773 8.91074C27.4577 4.04702 22.2323 0.778076 16.2481 0.778076C7.27452 0.778076 0 8.12371 0 17.1849C0 20.0169 1.54714 23.2313 3.68593 26.3117L7.08674 24.086C5.90067 22.5443 5.09293 20.6962 4.80642 18.6789Z" fill="black"/>
<path id="Vector_4" d="M30.2776 8.91089L26.408 11.4432C27.0915 12.6804 27.5561 14.0556 27.748 15.5171L30.357 17.085L27.7342 18.6604C27.0162 23.7775 22.9547 27.8204 17.8286 28.5107L16.2546 31.1307L14.6784 28.5066C11.5931 28.0827 8.89722 26.4431 7.08635 24.0875L3.68555 26.3133C8.39117 33.09 15.9632 39.222 16.2477 39.222C16.2477 39.222 32.4964 26.2477 32.4964 17.1865C32.4964 14.1667 31.6859 11.341 30.2776 8.91089Z" fill="black"/>
<path id="Vector_5" d="M45.3876 16.5133H47.012C46.1905 18.1916 44.7517 19.0311 42.6944 19.0311C41.2957 19.0311 40.1207 18.5306 39.1686 17.5289C38.2166 16.5271 37.7402 15.3231 37.7402 13.9147C37.7402 12.5526 38.2297 11.3769 39.2087 10.389C40.1876 9.40105 41.3585 8.90674 42.7213 8.90674C43.6865 8.90674 44.5398 9.12352 45.2799 9.55639C46.0559 10.0079 46.6337 10.6617 47.012 11.5191H45.469C44.8104 10.6348 43.8853 10.1929 42.6944 10.1929C41.7196 10.1929 40.8759 10.5678 40.1635 11.3162C39.4503 12.0652 39.0941 12.9316 39.0941 13.9147C39.0941 14.9344 39.4365 15.8236 40.1227 16.5817C40.8269 17.3666 41.6837 17.7595 42.6944 17.7595C43.8846 17.7588 44.7828 17.3439 45.3876 16.5133Z" fill="black"/>
<path id="Vector_6" d="M53.3059 17.6101V18.8418H48.2979V9.0957H53.3059V10.2597H49.5971V13.3733H53.3059V14.5103H49.5971V17.6101H53.3059Z" fill="black"/>
<path id="Vector_7" d="M54.9434 18.8418V9.0957H57.0007C59.1036 9.0957 60.155 9.98008 60.155 11.7488C60.155 12.5517 59.767 13.1745 58.9911 13.6163C60.1461 13.9594 60.7239 14.7175 60.7239 15.8904C60.7239 17.858 59.5371 18.8411 57.1636 18.8411H54.9434V18.8418ZM56.2157 10.3004V13.2511H56.757C58.1557 13.2511 58.855 12.7409 58.855 11.7212C58.855 10.774 58.2593 10.3004 57.0683 10.3004H56.2157ZM56.2157 14.2798V17.6371H57.4066C58.7418 17.6371 59.4101 17.1096 59.4101 16.0533C59.4101 14.8714 58.7425 14.2798 57.4066 14.2798H56.2157Z" fill="black"/>
<path id="Vector_8" d="M66.9768 17.6101V18.8418H61.9688V9.0957H66.9768V10.2597H63.268V13.3733H66.9768V14.5103H63.268V17.6101H66.9768Z" fill="black"/>
<path id="Vector_9" d="M69.8866 14.8617V18.8411H68.6143V9.0957H71.2405C72.1966 9.0957 72.9636 9.32146 73.5415 9.77227C74.1642 10.2687 74.4756 10.986 74.4756 11.9242C74.4756 12.881 74.1463 13.6211 73.4876 14.1438C72.8829 14.6222 72.0882 14.8611 71.1051 14.8611H69.8866V14.8617ZM69.8866 10.2597V13.6978H70.9968C72.4583 13.6978 73.1894 13.1337 73.1894 12.0063C73.1894 10.8424 72.4762 10.2597 71.0506 10.2597H69.8866Z" fill="black"/>
<path id="Vector_10" d="M76.8978 14.5373V18.8418H75.6123V9.0957H76.8978V13.3056H81.067V9.0957H82.3532V18.8418H81.067V14.5373H76.8978Z" fill="black"/>
<path id="Vector_11" d="M93.6286 13.9147C93.6286 15.3314 93.1502 16.5409 92.194 17.5427C91.2371 18.5444 90.0504 19.045 88.6337 19.045C87.235 19.045 86.051 18.5396 85.0803 17.5289C84.1103 16.5189 83.625 15.3141 83.625 13.9147C83.625 12.543 84.1214 11.3659 85.1141 10.3821C86.1069 9.39898 87.2888 8.90674 88.6606 8.90674C90.0414 8.90674 91.2143 9.39622 92.1802 10.3759C93.1453 11.3541 93.6286 12.534 93.6286 13.9147ZM92.2616 13.8878C92.2616 12.904 91.9026 12.0424 91.1853 11.3024C90.468 10.5623 89.6175 10.1922 88.6337 10.1922C87.6499 10.1922 86.7973 10.5671 86.0758 11.3155C85.3537 12.0645 84.9933 12.931 84.9933 13.9141C84.9933 14.9337 85.3454 15.8299 86.0489 16.601C86.7524 17.3722 87.6147 17.7581 88.6344 17.7581C89.6989 17.7581 90.5744 17.3742 91.2606 16.6072C91.9275 15.8685 92.2616 14.9621 92.2616 13.8878Z" fill="black"/>
<path id="Vector_12" d="M99.8947 17.6101V18.8418H94.8867V9.0957H99.8947V10.2597H96.186V13.3733H99.8947V14.5103H96.186V17.6101H99.8947Z" fill="black"/>
<path id="Vector_13" d="M39.1239 22.0209V27.1139H38.3604V21.2664H42.3141V27.1139H41.5506V22.0209H39.1239Z" fill="black"/>
<path id="Vector_14" d="M49.4087 24.1576C49.4087 25.0074 49.1249 25.733 48.5567 26.3336C47.9885 26.9343 47.2844 27.2353 46.4435 27.2353C45.6129 27.2353 44.9101 26.9322 44.3344 26.3254C43.7586 25.7192 43.4707 24.9964 43.4707 24.1569C43.4707 23.3339 43.7655 22.627 44.3544 22.0374C44.944 21.4471 45.6454 21.1523 46.4594 21.1523C47.2788 21.1523 47.9754 21.4458 48.5484 22.0333C49.1221 22.6208 49.4087 23.3284 49.4087 24.1576ZM48.5968 24.141C48.5968 23.5507 48.3841 23.0336 47.9575 22.5897C47.5315 22.1458 47.0268 21.9235 46.4435 21.9235C45.8594 21.9235 45.3534 22.1486 44.9246 22.5973C44.4966 23.0467 44.2819 23.5666 44.2819 24.1569C44.2819 24.7685 44.4904 25.3057 44.9088 25.7689C45.3264 26.2315 45.838 26.4634 46.4435 26.4634C47.0752 26.4634 47.595 26.2335 48.0024 25.773C48.3986 25.3298 48.5968 24.7851 48.5968 24.141Z" fill="black"/>
<path id="Vector_15" d="M52.068 21.2583H52.8392L54.5824 26.383H55.0166V28.2753H54.2689V27.1058H50.6451V28.2753H49.8975V26.383H50.3234L52.068 21.2583ZM53.8437 26.383L52.4574 22.2352L51.0718 26.383H53.8437Z" fill="black"/>
<path id="Vector_16" d="M56.6403 21.7786L56.6969 27.1139H55.9658V21.2664H57.1629L58.891 25.9478L60.6183 21.2664H61.783V27.1139H61.076L61.1243 21.7772L59.1554 27.1139H58.6093L56.6403 21.7786Z" fill="black"/>
<path id="Vector_17" d="M68.894 24.1576C68.894 25.0074 68.6103 25.733 68.0421 26.3336C67.4739 26.9343 66.7697 27.2353 65.9288 27.2353C65.0983 27.2353 64.3955 26.9322 63.8197 26.3254C63.2439 25.7192 62.9561 24.9964 62.9561 24.1569C62.9561 23.3339 63.2508 22.627 63.8397 22.0374C64.4286 21.4471 65.1307 21.1523 65.9447 21.1523C66.7642 21.1523 67.4608 21.4458 68.0338 22.0333C68.6075 22.6208 68.894 23.3284 68.894 24.1576ZM68.0828 24.141C68.0828 23.5507 67.8702 23.0336 67.4442 22.5897C67.0182 22.1458 66.5136 21.9235 65.9295 21.9235C65.3455 21.9235 64.8394 22.1486 64.4107 22.5973C63.982 23.0467 63.7679 23.5666 63.7679 24.1569C63.7679 24.7685 63.9771 25.3057 64.3948 25.7689C64.8125 26.2315 65.3241 26.4634 65.9295 26.4634C66.5612 26.4634 67.0811 26.2335 67.4884 25.773C67.8847 25.3298 68.0828 24.7851 68.0828 24.141Z" fill="black"/>
<path id="Vector_18" d="M74.3251 25.7166H75.2895C74.8021 26.7239 73.9474 27.2272 72.7262 27.2272C71.8956 27.2272 71.1984 26.9269 70.6329 26.3256C70.0675 25.7242 69.7852 25.0014 69.7852 24.1571C69.7852 23.3397 70.0758 22.6341 70.6571 22.0411C71.2384 21.448 71.9329 21.1519 72.7421 21.1519C73.3151 21.1519 73.8211 21.2816 74.2609 21.5412C74.7214 21.8119 75.0645 22.2047 75.2895 22.719H74.3734C73.982 22.1881 73.4331 21.923 72.7262 21.923C72.1476 21.923 71.6464 22.1481 71.2232 22.5968C70.8 23.0463 70.5888 23.5661 70.5888 24.1564C70.5888 24.7681 70.7924 25.301 71.1991 25.756C71.6167 26.2268 72.1262 26.4622 72.7262 26.4622C73.4331 26.4636 73.9661 26.2151 74.3251 25.7166Z" fill="black"/>
<path id="Vector_19" d="M77.2343 21.2664V27.1139H76.4707V21.2664H77.2343ZM79.4442 27.1139L77.315 24.1659L79.5408 21.267H80.4563L78.1497 24.1653L80.4086 27.1146H79.4442V27.1139Z" fill="black"/>
<path id="Vector_20" d="M86.6674 24.1576C86.6674 25.0074 86.3837 25.733 85.8155 26.3336C85.248 26.9343 84.5431 27.2353 83.7023 27.2353C82.8717 27.2353 82.1689 26.9322 81.5932 26.3254C81.0174 25.7192 80.7295 24.9964 80.7295 24.1569C80.7295 23.3339 81.0243 22.627 81.6132 22.0374C82.2021 21.4471 82.9042 21.1523 83.7181 21.1523C84.5376 21.1523 85.2335 21.4458 85.8072 22.0333C86.3809 22.6208 86.6674 23.3284 86.6674 24.1576ZM85.8556 24.141C85.8556 23.5507 85.6429 23.0336 85.217 22.5897C84.791 22.1458 84.2856 21.9235 83.7023 21.9235C83.1182 21.9235 82.6122 22.1486 82.1834 22.5973C81.7547 23.0467 81.5407 23.5666 81.5407 24.1569C81.5407 24.7685 81.7499 25.3057 82.1675 25.7689C82.5852 26.2315 83.0968 26.4634 83.7023 26.4634C84.3347 26.4634 84.8538 26.2335 85.2611 25.773C85.6574 25.3298 85.8556 24.7851 85.8556 24.141Z" fill="black"/>
<path id="Vector_21" d="M87.8242 27.1139V21.2664H89.0455C90.2937 21.2664 90.9178 21.7973 90.9178 22.8577C90.9178 23.3396 90.6872 23.7131 90.2267 23.9782C90.9123 24.1839 91.2554 24.6389 91.2554 25.343C91.2554 26.5236 90.5505 27.1132 89.1421 27.1132H87.8242V27.1139ZM88.5802 21.9892V23.7593H88.9019C89.7317 23.7593 90.1473 23.4535 90.1473 22.8418C90.1473 22.2729 89.7939 21.9892 89.0869 21.9892H88.5802ZM88.5802 24.3765V26.3904H89.2871C90.0797 26.3904 90.476 26.0735 90.476 25.4404C90.476 24.7314 90.0797 24.3765 89.2871 24.3765H88.5802Z" fill="black"/>
<path id="Vector_22" d="M92.3965 27.1139V21.2664H93.16V23.6212H93.7786C94.4 23.6212 94.8874 23.751 95.2409 24.0113C95.6427 24.3095 95.8435 24.7611 95.8435 25.3679C95.8435 25.9741 95.6427 26.4262 95.2409 26.7245C94.8874 26.9841 94.3993 27.1146 93.7786 27.1146H92.3965V27.1139ZM93.16 24.3441V26.3904H93.7786C94.1908 26.3904 94.4966 26.3255 94.6948 26.1957C94.9412 26.0389 95.0648 25.7621 95.0648 25.3672C95.0648 24.9668 94.944 24.6879 94.703 24.5305C94.5104 24.4062 94.2018 24.3434 93.7793 24.3434H93.16V24.3441Z" fill="black"/>
<path id="Vector_23" d="M99.9412 26.3745V27.1139H96.9678V21.2664H99.9412V21.9643H97.7396V23.8325H99.9412V24.5146H97.7396V26.3745H99.9412Z" fill="black"/>
<path id="Vector_24" d="M100 30.6686H38.4131V30.0293H100V30.6686Z" fill="black"/>
</g>
</svg>
