<svg width="0" height="0" class="hidden">
  <symbol xmlns="http://www.w3.org/2000/svg" viewBox="0 0 11 21" id="ic_arr_hor">
    <path d="M1.79544 10.0058L10.2874 1.27877C10.3574 1.20844 10.4126 1.12494 10.4501 1.03311C10.4875 0.941279 10.5063 0.842935 10.5055 0.74377C10.5047 0.644604 10.4842 0.546587 10.4453 0.45539C10.4063 0.364193 10.3497 0.281627 10.2786 0.212469C10.2075 0.143312 10.1234 0.0889362 10.0312 0.0524894C9.93897 0.0160426 9.84042 -0.00175181 9.74127 0.000135901C9.64212 0.00202361 9.54433 0.023556 9.45356 0.0634869C9.36278 0.103418 9.28083 0.160954 9.21244 0.232767L0.21244 9.48277C0.0762178 9.62278 0 9.81042 0 10.0058C0 10.2011 0.0762178 10.3888 0.21244 10.5288L9.21244 19.7788C9.28083 19.8506 9.36278 19.9081 9.45356 19.948C9.54433 19.988 9.64212 20.0095 9.74127 20.0114C9.84042 20.0133 9.93897 19.9955 10.0312 19.959C10.1234 19.9226 10.2075 19.8682 10.2786 19.7991C10.3497 19.7299 10.4063 19.6473 10.4453 19.5561C10.4842 19.4649 10.5047 19.3669 10.5055 19.2678C10.5063 19.1686 10.4875 19.0703 10.4501 18.9784C10.4126 18.8866 10.3574 18.8031 10.2874 18.7328L1.79544 10.0058Z" fill="currentColor"></path>
  </symbol>
  <symbol xmlns="http://www.w3.org/2000/svg" viewBox="0 0 13 8" id="ic_arr_ver">
    <path d="M6.36452 4.95008L11.3145 7.62939e-05L12.7285 1.41408L6.36452 7.77808L0.000514984 1.41408L1.41552 7.62939e-05L6.36552 4.95008H6.36452Z" fill="currentColor"></path>
  </symbol>
  <symbol xmlns="http://www.w3.org/2000/svg" viewBox="0 0 10 9" id="ic_check">
    <path d="M5 6.5L8.5 2.5L9.5 4L5 9L0 1.59077L1.11172 0.5L5 6.5Z" fill="currentColor"></path>
  </symbol>
  <symbol fill="none" xmlns="http://www.w3.org/2000/svg" viewBox="0 0 10 11" id="ic_distance">
    <path d="M1 1.12109V9.88473M4.65152 1.12109V2.09483M4.65152 4.52917V6.47665M4.65152 8.91099V9.88473M8.30303 1.12109V9.88473" stroke="currentColor" stroke-width="2" stroke-linecap="round" stroke-linejoin="round"></path>
  </symbol>
  <symbol xmlns="http://www.w3.org/2000/svg" viewBox="0 0 36 36" id="ic_email">
    <path d="M4.15385 5.53857C1.86092 5.53857 0 7.3995 0 9.69242V26.3078C0 28.6007 1.86092 30.4617 4.15385 30.4617H31.8462C34.1391 30.4617 36 28.6007 36 26.3078V9.69242C36 7.3995 34.1391 5.53857 31.8462 5.53857H4.15385ZM4.15385 8.30781H31.8462C32.6091 8.30781 33.2308 8.9295 33.2308 9.69242V10.3847L18 18.6066L2.76923 10.3847V9.69242C2.76923 8.9295 3.39092 8.30781 4.15385 8.30781ZM2.76923 10.7738L11.8122 17.827L2.94231 26.9143L13.7603 19.2117L18 21.938L22.2411 19.2117L33.0577 26.9143L24.1878 17.827L33.2308 10.7738V26.3078C33.2231 26.521 33.1637 26.7291 33.0577 26.9143C32.8292 27.3643 32.3848 27.6924 31.8462 27.6924H4.15385C3.61523 27.6924 3.17077 27.3657 2.94231 26.9143C2.8365 26.7296 2.77711 26.5205 2.76923 26.3078V10.7738Z" fill="currentColor"></path>
  </symbol>
  <symbol xmlns="http://www.w3.org/2000/svg" viewBox="0 0 33 26" id="ic_email_big">
    <path d="M3.3 26C2.3925 26 1.61535 25.6815 0.968552 25.0445C0.321753 24.4075 -0.0010972 23.6427 2.80136e-06 22.75V3.25C2.80136e-06 2.35625 0.323403 1.59088 0.970203 0.953877C1.617 0.316877 2.3936 -0.00108057 3.3 2.75891e-06H29.7C30.6075 2.75891e-06 31.3846 0.318502 32.0314 0.955502C32.6782 1.5925 33.0011 2.35734 33 3.25V22.75C33 23.6437 32.6766 24.4091 32.0298 25.0461C31.383 25.6831 30.6064 26.0011 29.7 26H3.3ZM16.5 14.625L3.3 6.5V22.75H29.7V6.5L16.5 14.625ZM16.5 11.375L29.7 3.25H3.3L16.5 11.375ZM3.3 6.5V3.25V22.75V6.5Z" fill="currentColor"></path>
  </symbol>
  <symbol xmlns="http://www.w3.org/2000/svg" viewBox="0 0 18 15" id="ic_favorite">
    <path d="M12.8793 0C11.3206 0 9.93724 0.594736 9 1.61696C8.06276 0.594736 6.6794 0 5.12069 0C3.7631 0.00158778 2.46159 0.523602 1.50163 1.45154C0.54167 2.37948 0.00164258 3.63758 0 4.94988C0 10.3753 8.2094 14.7101 8.55853 14.8924C8.69421 14.963 8.8459 15 9 15C9.1541 15 9.30579 14.963 9.44147 14.8924C9.7906 14.7101 18 10.3753 18 4.94988C17.9984 3.63758 17.4583 2.37948 16.4984 1.45154C15.5384 0.523602 14.2369 0.00158778 12.8793 0ZM12.4534 10.6767C11.3728 11.5631 10.2177 12.3608 9 13.0617C7.78232 12.3608 6.6272 11.5631 5.54664 10.6767C3.86534 9.28253 1.86207 7.15633 1.86207 4.94988C1.86207 4.11447 2.20539 3.31327 2.8165 2.72255C3.42761 2.13182 4.25645 1.79996 5.12069 1.79996C6.50172 1.79996 7.65776 2.50494 8.13802 3.64041C8.20792 3.80594 8.32724 3.94759 8.48076 4.0473C8.63428 4.14701 8.81504 4.20026 9 4.20026C9.18496 4.20026 9.36572 4.14701 9.51924 4.0473C9.67276 3.94759 9.79208 3.80594 9.86198 3.64041C10.3422 2.50494 11.4983 1.79996 12.8793 1.79996C13.7435 1.79996 14.5724 2.13182 15.1835 2.72255C15.7946 3.31327 16.1379 4.11447 16.1379 4.94988C16.1379 7.15633 14.1347 9.28253 12.4534 10.6767Z" fill="currentColor"></path>
  </symbol>
  <symbol xmlns="http://www.w3.org/2000/svg" viewBox="0 0 25 25" id="ic_grid">
    <rect width="9" height="9" rx="1" fill="currentColor"></rect>
    <rect y="16" width="9" height="9" rx="1" fill="currentColor"></rect>
    <rect x="16" width="9" height="9" rx="1" fill="currentColor"></rect>
    <rect x="16" y="16" width="9" height="9" rx="1" fill="currentColor"></rect>
  </symbol>
  <symbol xmlns="http://www.w3.org/2000/svg" viewBox="0 0 18 18" id="ic_hide">
    <path d="M13.8937 15.1913C12.4303 16.1381 10.7325 16.6394 8.99958 16.6364C4.51393 16.6364 0.781994 13.3441 0 8.99958C0.357461 7.02361 1.33151 5.21843 2.77691 3.8532L0.176365 1.19983L1.35268 0L17.8236 16.7993L16.6473 18L13.8937 15.1913ZM3.95489 5.05388C2.82403 6.10221 2.03617 7.47956 1.69792 8.99958C1.95772 10.1591 2.47931 11.2407 3.22115 12.1583C3.963 13.076 4.90462 13.8043 5.97107 14.2854C7.03751 14.7664 8.19933 14.9869 9.36403 14.9293C10.5287 14.8716 11.6642 14.5374 12.6799 13.9533L10.9928 12.2325C10.2746 12.6939 9.42402 12.8927 8.5805 12.7963C7.73698 12.6999 6.95063 12.3139 6.35043 11.7017C5.75023 11.0895 5.37182 10.2874 5.27726 9.42704C5.1827 8.56665 5.37761 7.69903 5.83001 6.96648L3.95489 5.05388ZM9.75995 10.975L7.0629 8.22486C6.91488 8.60919 6.88004 9.02924 6.96266 9.43347C7.04528 9.8377 7.24178 10.2086 7.52804 10.5005C7.8143 10.7925 8.17788 10.9929 8.57419 11.0772C8.9705 11.1615 9.38315 11.126 9.75995 10.975ZM16.3262 12.8969L15.1357 11.6826C15.6921 10.8743 16.0883 9.96288 16.3021 8.99958C16.076 7.98949 15.6509 7.03685 15.0526 6.19957C14.4543 5.36229 13.6953 4.65787 12.8218 4.12911C11.9483 3.60036 10.9784 3.25833 9.97126 3.12381C8.96409 2.9893 7.94062 3.0651 6.96307 3.34663L5.65032 2.00764C6.68771 1.59185 7.81827 1.36275 8.99958 1.36275C13.4852 1.36275 17.2172 4.65507 18 8.99958C17.7452 10.4133 17.1723 11.7474 16.3262 12.8969ZM8.76915 5.1888C9.29866 5.15542 9.82909 5.23722 10.3253 5.42878C10.8214 5.62034 11.272 5.91728 11.6472 6.29992C12.0223 6.68255 12.3134 7.14215 12.5012 7.64825C12.689 8.15434 12.7692 8.69537 12.7365 9.23547L8.76831 5.18795L8.76915 5.1888Z" fill="currentColor"></path>
  </symbol>
  <symbol xmlns="http://www.w3.org/2000/svg" viewBox="0 0 23 21" id="ic_link">
    <path d="M15.5653 14.4601L15.5652 14.4602C15.0023 14.9962 14.0877 14.653 13.9874 13.9186L13.9859 13.9077L13.9863 13.9077L13.9793 13.7964L13.9787 13.787H13.979V11.1059L13.7821 11.1229C13.4387 11.1591 13.098 11.2113 12.7586 11.2795L12.7586 11.2795C10.6397 11.705 8.59208 12.7685 6.6043 14.4894L6.60425 14.4894C5.95628 15.0499 4.95102 14.5221 5.05811 13.6706M15.5653 14.4601L5.20694 13.6893M15.5653 14.4601L21.861 8.45748L21.8613 8.45777L21.8687 8.44954L21.9485 8.36133L21.9489 8.36165L21.9562 8.35209C22.0966 8.16934 22.1648 7.94288 22.1473 7.71433C22.1298 7.48581 22.0279 7.27197 21.8616 7.11174L21.861 7.11118L15.5653 1.11125L15.5655 1.11098L15.5575 1.10433L15.4707 1.03241L15.4709 1.03217L15.4632 1.02658C14.8634 0.590477 13.979 1.00767 13.979 1.7844V4.5345M15.5653 14.4601L15.375 1.1479C14.871 0.781474 14.129 1.13433 14.129 1.7844V4.67512M5.05811 13.6706L5.20694 13.6893M5.05811 13.6706C5.05811 13.6706 5.05811 13.6706 5.05811 13.6706L5.20694 13.6893M5.05811 13.6706C5.40939 10.8738 6.32325 8.68739 7.79297 7.1507C9.26432 5.61231 11.279 4.73954 13.8025 4.54592L13.8043 4.54578L13.979 4.5345M5.20694 13.6893C5.90413 8.13856 8.82588 5.07819 13.814 4.69548L14.129 4.67512M13.979 4.5345V4.67512H14.129M13.979 4.5345L14.1193 4.52543L14.129 4.67512M15.679 12.0334V9.45634V9.29269L15.5159 9.30691L13.6241 9.47191H13.6194H13.6116L13.6039 9.47272C11.3134 9.71131 9.14876 10.5671 7.10359 11.9834C7.52486 10.3804 8.1897 9.16491 9.03644 8.28028L9.03647 8.28025C10.1681 7.09733 11.7546 6.36703 13.9269 6.19818C13.9272 6.19815 13.9275 6.19813 13.9278 6.1981L15.5387 6.09374L15.679 6.08465V5.94405V3.53516L20.1359 7.78302L15.679 12.0334ZM4.49995 2.20712C3.5334 2.20712 2.60554 2.57929 1.9207 3.24316C1.23572 3.90719 0.85 4.80882 0.85 5.74998V16.6071C0.85 17.5483 1.23572 18.4499 1.9207 19.114C2.60554 19.7778 3.5334 20.15 4.49995 20.15H15.6998C16.6663 20.15 17.5942 19.7778 18.279 19.114C18.964 18.4499 19.3497 17.5483 19.3497 16.6071V15.25C19.3497 15.0287 19.259 14.8175 19.0991 14.6625C18.9394 14.5076 18.7237 14.4214 18.4997 14.4214C18.2758 14.4214 18.0601 14.5076 17.9004 14.6625C17.7405 14.8175 17.6497 15.0287 17.6497 15.25V16.6071C17.6497 17.1057 17.4455 17.5849 17.0803 17.9389C16.7149 18.2931 16.2184 18.4929 15.6998 18.4929H4.49995C3.9813 18.4929 3.48481 18.2931 3.11945 17.9389C2.75425 17.5849 2.54998 17.1057 2.54998 16.6071V5.74998C2.54998 5.25139 2.75425 4.77224 3.11945 4.41821C3.48481 4.06403 3.9813 3.86426 4.49995 3.86426H8.69988C8.92384 3.86426 9.13952 3.77806 9.29926 3.62321C9.45915 3.46821 9.54987 3.25697 9.54987 3.03569C9.54987 2.81441 9.45915 2.60317 9.29926 2.44817C9.13952 2.29332 8.92384 2.20712 8.69988 2.20712H4.49995Z" fill="currentColor" stroke="currentColor" stroke-width="0.3"></path>
  </symbol>
  <symbol fill="none" xmlns="http://www.w3.org/2000/svg" viewBox="0 0 15 15" id="ic_link_arrow">
    <path d="M1 0.999512L14 13.9995M14 13.9995V1.51951M14 13.9995H1.52" stroke="currentColor" stroke-width="1.5" stroke-linecap="round" stroke-linejoin="round"></path>
  </symbol>
  <symbol xmlns="http://www.w3.org/2000/svg" viewBox="0 0 29 22" id="ic_list">
    <rect width="29" height="4" rx="1" fill="currentColor"></rect>
    <rect y="9" width="29" height="4" rx="1" fill="currentColor"></rect>
    <rect y="18" width="29" height="4" rx="1" fill="currentColor"></rect>
  </symbol>
  <symbol xmlns="http://www.w3.org/2000/svg" viewBox="0 0 27 34" id="ic_location_big">
    <path d="M13.5 7.28579C12.2863 7.28579 11.0999 7.64187 10.0908 8.30902C9.0817 8.97616 8.29519 9.9244 7.83074 11.0338C7.36629 12.1432 7.24477 13.364 7.48154 14.5418C7.71832 15.7195 8.30275 16.8014 9.16094 17.6505C10.0191 18.4996 11.1125 19.0778 12.3029 19.3121C13.4932 19.5464 14.727 19.4261 15.8483 18.9666C16.9696 18.5071 17.9279 17.7289 18.6022 16.7304C19.2765 15.732 19.6364 14.5581 19.6364 13.3573C19.6364 11.747 18.9899 10.2027 17.8391 9.06409C16.6883 7.92546 15.1275 7.28579 13.5 7.28579ZM13.5 17.0002C12.7718 17.0002 12.06 16.7865 11.4545 16.3862C10.849 15.9859 10.3771 15.417 10.0984 14.7514C9.81978 14.0857 9.74686 13.3532 9.88893 12.6466C10.031 11.9399 10.3816 11.2908 10.8966 10.7814C11.4115 10.2719 12.0675 9.92494 12.7817 9.78438C13.4959 9.64382 14.2362 9.71596 14.909 9.99168C15.5817 10.2674 16.1568 10.7343 16.5613 11.3334C16.9659 11.9325 17.1818 12.6368 17.1818 13.3573C17.1818 14.3234 16.7939 15.25 16.1034 15.9332C15.413 16.6164 14.4765 17.0002 13.5 17.0002ZM13.5 0C9.92082 0.0040174 6.4894 1.41259 3.95854 3.91669C1.42768 6.4208 0.00406033 9.81594 0 13.3573C0 18.1234 2.22597 23.1749 6.44318 27.9668C8.33812 30.1321 10.4709 32.082 12.802 33.7803C13.0083 33.9233 13.2542 34 13.5061 34C13.7581 34 14.0039 33.9233 14.2103 33.7803C16.5371 32.0813 18.6657 30.1315 20.5568 27.9668C24.7679 23.1749 27 18.1234 27 13.3573C26.9959 9.81594 25.5723 6.4208 23.0415 3.91669C20.5106 1.41259 17.0792 0.0040174 13.5 0ZM13.5 31.2682C10.9641 29.2949 2.45455 22.0471 2.45455 13.3573C2.45455 10.4588 3.61826 7.67906 5.68968 5.62953C7.76111 3.58001 10.5706 2.4286 13.5 2.4286C16.4294 2.4286 19.2389 3.58001 21.3103 5.62953C23.3817 7.67906 24.5455 10.4588 24.5455 13.3573C24.5455 22.0441 16.0359 29.2949 13.5 31.2682Z" fill="currentColor"></path>
  </symbol>
  <symbol xmlns="http://www.w3.org/2000/svg" viewBox="0 0 15 15" id="ic_phone">
    <path d="M14.9688 4.44175C14.5592 6.90291 13.2559 9.33495 11.2935 11.2955C9.32935 13.2579 6.89553 14.5631 4.44168 14.9672C4.31608 14.9891 4.18865 15 4.05577 15C3.42592 15 2.81246 14.747 2.36829 14.301L0.433247 12.3659C0.154732 12.0874 0 11.716 0 11.321C-0.000225577 11.1269 0.0379356 10.9346 0.112289 10.7553C0.186642 10.576 0.29572 10.4131 0.433247 10.2761L2.5212 8.19175C2.79972 7.91323 3.17107 7.7585 3.56609 7.7585C3.75992 7.75845 3.95185 7.7967 4.13085 7.87105M14.9688 4.44175C15.0926 3.68993 14.8432 2.91626 14.3008 2.37015M14.9688 4.44175L14.4756 4.35967C14.4756 4.35987 14.4755 4.36007 14.4755 4.36028M14.9688 4.44175L14.4755 4.36052C14.4755 4.36044 14.4755 4.36036 14.4755 4.36028M14.3008 2.37015L12.3621 0.433253C12.2253 0.295893 12.0628 0.186907 11.8838 0.112555M14.3008 2.37015L13.946 2.72251L12.0087 0.786969L12.0077 0.786028C11.9175 0.695343 11.8101 0.623393 11.692 0.574307L11.8838 0.112555M14.3008 2.37015L13.9474 2.72386L13.9467 2.72317C14.3768 3.15662 14.5728 3.76907 14.4755 4.36028M11.8838 0.112555C11.7048 0.0382044 11.5128 -4.64556e-05 11.319 0C10.924 0 10.5526 0.154733 10.2741 0.433253M11.8838 0.112555L11.692 0.574307C11.5738 0.525222 11.4471 0.499969 11.3191 0.5L11.319 0.5C11.0572 0.5 10.8128 0.601637 10.6277 0.786803L10.2741 0.433253M10.2741 0.433253L8.18798 2.51942C8.05063 2.65618 7.94164 2.81873 7.86729 2.99773C7.79294 3.17674 7.75469 3.36867 7.75474 3.5625C7.75474 3.95752 7.90947 4.32888 8.18798 4.6074L9.71345 6.13289C9.35637 6.91995 8.85992 7.63596 8.24806 8.24636M10.2741 0.433253L10.6277 0.786803L8.54154 2.87297L8.54077 2.87374C8.45008 2.96403 8.37813 3.07134 8.32905 3.18952C8.27996 3.3077 8.25471 3.43441 8.25474 3.56238L8.25474 3.5625C8.25474 3.82433 8.35638 4.06869 8.54154 4.25385L10.067 5.77934L10.3118 6.02416L10.1688 6.33946C9.78693 7.18114 9.25608 7.94686 8.60184 8.59969M8.24806 8.24636C7.63773 8.85972 6.92179 9.35798 6.13462 9.71723L4.60916 8.19175C4.4724 8.05439 4.30985 7.9454 4.13085 7.87105M8.24806 8.24636L8.60118 8.60034C8.6014 8.60012 8.60162 8.5999 8.60184 8.59969M8.24806 8.24636L8.60248 8.59904C8.60227 8.59925 8.60205 8.59947 8.60184 8.59969M4.13085 7.87105L3.93905 8.3328C3.82088 8.28372 3.69417 8.25846 3.56621 8.2585L3.56609 8.2585C3.30427 8.2585 3.05992 8.36013 2.87476 8.5453L2.87445 8.54561L0.786494 10.63L0.786137 10.6303C0.695307 10.7208 0.623267 10.8284 0.574161 10.9468C0.525055 11.0652 0.499851 11.1922 0.500001 11.3204L0.500001 11.321C0.500001 11.5828 0.60164 11.8272 0.786803 12.0123L2.72185 13.9474L2.72257 13.9481C3.0722 14.2992 3.55787 14.5 4.05577 14.5C4.16074 14.5 4.25948 14.4914 4.35601 14.4746L4.36043 14.4739L4.36043 14.4739C6.69916 14.0887 9.04073 12.8395 10.9401 10.9418C12.837 9.04662 14.0848 6.70704 14.4755 4.36028M4.13085 7.87105L3.93905 8.3328C4.05723 8.38189 4.16454 8.45384 4.25483 8.54452L4.2556 8.5453L5.78106 10.0708L6.02647 10.3162L6.34221 10.1721C7.1838 9.78802 7.94925 9.25536 8.60184 8.59969" fill="white" stroke="currentColor"></path>
  </symbol>
  <symbol xmlns="http://www.w3.org/2000/svg" viewBox="0 0 27 26" id="ic_phone_big">
    <path d="M24.3545 17.7302L20.5368 17.3105C20.0879 17.2597 19.6329 17.3076 19.206 17.4505C18.7791 17.5934 18.3913 17.8276 18.0719 18.1355L15.3063 20.7986C11.0395 18.709 7.57142 15.3693 5.40138 11.2605L8.18198 8.58288C8.82828 7.96051 9.14392 7.09209 9.0387 6.2092L8.60283 2.56184C8.51761 1.85578 8.16574 1.20455 7.61419 0.732148C7.06265 0.259744 6.34995 -0.000842736 5.61181 2.04757e-06H3.01157C1.31315 2.04757e-06 -0.0996904 1.36053 0.00552133 2.99605C0.802125 15.3565 11.0678 25.2276 23.8886 25.9947C25.587 26.096 26.9999 24.7355 26.9999 23.1V20.596C27.0149 19.1342 25.8726 17.9039 24.3545 17.7302Z" fill="currentColor"></path>
  </symbol>
  <symbol fill="none" xmlns="http://www.w3.org/2000/svg" viewBox="0 0 20 19" id="ic_print">
    <path d="M15.3459 14.4458H16.4218C16.897 14.4444 17.3523 14.2576 17.6883 13.9261C18.0243 13.5946 18.2137 13.1454 18.2151 12.6766V5.59998C18.2137 5.1312 18.0243 4.68201 17.6883 4.35053C17.3523 4.01905 16.897 3.83221 16.4218 3.83081H2.79324C2.31808 3.83221 1.86278 4.01905 1.52679 4.35053C1.1908 4.68201 1.00142 5.1312 1 5.59998V12.6766C1.00142 13.1454 1.1908 13.5946 1.52679 13.9261C1.86278 14.2576 2.31808 14.4444 2.79324 14.4458H3.86918" stroke="currentColor" stroke-width="2" stroke-linejoin="round"></path>
    <path d="M14.2558 8.78418H4.95967C4.35752 8.78418 3.86938 9.26577 3.86938 9.85983V16.9082C3.86938 17.5023 4.35752 17.9838 4.95967 17.9838H14.2558C14.858 17.9838 15.3461 17.5023 15.3461 16.9082V9.85983C15.3461 9.26577 14.858 8.78418 14.2558 8.78418Z" stroke="currentColor" stroke-width="2" stroke-linejoin="round"></path>
    <path d="M15.3461 3.83067V2.76917C15.3447 2.30039 15.1553 1.8512 14.8193 1.51972C14.4833 1.18824 14.028 1.0014 13.5529 1H5.66262C5.18746 1.0014 4.73217 1.18824 4.39618 1.51972C4.06019 1.8512 3.8708 2.30039 3.86938 2.76917V3.83067" stroke="currentColor" stroke-width="2" stroke-linejoin="round"></path>
    <path d="M15.2563 6.48451C15.6029 6.48451 15.8839 6.20728 15.8839 5.8653C15.8839 5.52332 15.6029 5.24609 15.2563 5.24609C14.9097 5.24609 14.6287 5.52332 14.6287 5.8653C14.6287 6.20728 14.9097 6.48451 15.2563 6.48451Z" fill="currentColor"></path>
  </symbol>
  <symbol xmlns="http://www.w3.org/2000/svg" viewBox="0 0 17 17" id="ic_search">
    <path fill-rule="evenodd" clip-rule="evenodd" d="M4.5823 10.9637L0.237926 15.5366C0.085228 15.6974 -0.000514984 15.9155 -0.00043869 16.1429C-0.000362396 16.3703 0.0855236 16.5884 0.23833 16.7491C0.391135 16.9098 0.598342 17.0001 0.814365 17C1.03039 16.9999 1.23754 16.9095 1.39023 16.7487L5.7346 12.1758C7.0333 13.2346 8.66643 13.7328 10.3017 13.5692C11.9371 13.4055 13.4517 12.5923 14.5376 11.2949C15.6235 9.99743 16.1991 8.31329 16.1472 6.58505C16.0953 4.85682 15.4198 3.21429 14.2583 1.99163C13.0967 0.768974 11.5363 0.0580178 9.89442 0.0033968C8.25255 -0.0512242 6.65258 0.554593 5.41999 1.69761C4.1874 2.84062 3.41479 4.43497 3.25932 6.15631C3.10386 7.87765 3.57722 9.59668 4.58311 10.9637H4.5823ZM9.68976 11.8995C8.40478 11.8995 7.17243 11.3622 6.26381 10.4058C5.35519 9.44939 4.84474 8.15221 4.84474 6.79964C4.84474 5.44706 5.35519 4.14988 6.26381 3.19347C7.17243 2.23705 8.40478 1.69975 9.68976 1.69975C10.9747 1.69975 12.2071 2.23705 13.1157 3.19347C14.0243 4.14988 14.5348 5.44706 14.5348 6.79964C14.5348 8.15221 14.0243 9.44939 13.1157 10.4058C12.2071 11.3622 10.9747 11.8995 9.68976 11.8995Z" fill="currentColor"></path>
  </symbol>
  <symbol xmlns="http://www.w3.org/2000/svg" viewBox="0 0 25 25" id="ic_telegram">
    <path d="M25 12.5C25 15.8152 23.683 18.9946 21.3388 21.3388C18.9946 23.683 15.8152 25 12.5 25C9.18479 25 6.00537 23.683 3.66117 21.3388C1.31696 18.9946 0 15.8152 0 12.5C0 9.18479 1.31696 6.00537 3.66117 3.66117C6.00537 1.31696 9.18479 0 12.5 0C15.8152 0 18.9946 1.31696 21.3388 3.66117C23.683 6.00537 25 9.18479 25 12.5ZM12.9484 9.22813C11.7328 9.73438 9.30156 10.7812 5.65781 12.3687C5.06719 12.6031 4.75625 12.8344 4.72813 13.0594C4.68125 13.4391 5.15781 13.5891 5.80625 13.7937L6.07969 13.8797C6.71719 14.0875 7.57656 14.3297 8.02187 14.3391C8.42812 14.3484 8.87969 14.1828 9.37813 13.8391C12.7828 11.5406 14.5406 10.3797 14.65 10.3547C14.7281 10.3359 14.8375 10.3141 14.9094 10.3797C14.9828 10.4438 14.975 10.5672 14.9672 10.6C14.9203 10.8016 13.05 12.5391 12.0828 13.4391C11.7812 13.7203 11.5672 13.9188 11.5234 13.9641C11.4271 14.0625 11.3292 14.1594 11.2297 14.2547C10.6359 14.8266 10.1922 15.2547 11.2531 15.9547C11.7641 16.2922 12.1734 16.5687 12.5813 16.8469C13.025 17.15 13.4688 17.4516 14.0437 17.8297C14.1891 17.9234 14.3297 18.025 14.4656 18.1219C14.9828 18.4906 15.45 18.8219 16.0234 18.7687C16.3578 18.7375 16.7031 18.425 16.8781 17.4875C17.2922 15.2734 18.1063 10.4781 18.2938 8.50156C18.3052 8.33725 18.2984 8.17218 18.2734 8.00937C18.2587 7.878 18.1951 7.75697 18.0953 7.67031C17.9531 7.57217 17.7837 7.52133 17.6109 7.525C17.1422 7.53281 16.4187 7.78438 12.9484 9.22813Z" fill="currentColor"></path>
  </symbol>
  <symbol xmlns="http://www.w3.org/2000/svg" viewBox="0 0 29 29" id="ic_whatsapp">
    <path fill-rule="evenodd" clip-rule="evenodd" d="M14.5003 2.41675C7.8267 2.41675 2.41699 7.82646 2.41699 14.5001C2.41699 16.7838 3.05137 18.9226 4.15458 20.7447L3.07674 24.4084C3.01486 24.6188 3.01078 24.8419 3.06495 25.0544C3.11912 25.2668 3.22953 25.4608 3.38458 25.6158C3.53962 25.7709 3.73357 25.8813 3.94604 25.9355C4.1585 25.9896 4.38164 25.9855 4.59199 25.9237L8.25566 24.8458C10.1391 25.9854 12.299 26.5864 14.5003 26.5834C21.1739 26.5834 26.5837 21.1737 26.5837 14.5001C26.5837 7.82646 21.1739 2.41675 14.5003 2.41675ZM11.7671 17.2345C14.2115 19.6778 16.5448 20.0004 17.3689 20.0306C18.6219 20.0765 19.8424 19.1195 20.3172 18.0091C20.3772 17.8709 20.399 17.7192 20.3802 17.5698C20.3615 17.4204 20.3031 17.2787 20.2109 17.1596C19.5487 16.3138 18.6534 15.706 17.7785 15.1018C17.5959 14.9755 17.3714 14.9249 17.1522 14.9605C16.933 14.9961 16.7361 15.1151 16.6028 15.2927L15.8778 16.3984C15.8397 16.4578 15.7803 16.5004 15.7118 16.5175C15.6433 16.5346 15.5708 16.5248 15.5093 16.4902C15.0175 16.2087 14.301 15.7302 13.7862 15.2154C13.2715 14.7007 12.8219 14.0167 12.5694 13.5564C12.5381 13.4979 12.529 13.43 12.5439 13.3654C12.5588 13.3007 12.5966 13.2437 12.6504 13.2047L13.7669 12.3758C13.9262 12.2373 14.029 12.045 14.0558 11.8355C14.0825 11.6261 14.0313 11.4141 13.9119 11.24C13.3705 10.4473 12.7398 9.43958 11.8251 8.77137C11.707 8.68583 11.5687 8.63249 11.4238 8.6166C11.2789 8.60071 11.1324 8.62282 10.9986 8.68075C9.88691 9.15683 8.92508 10.3772 8.97099 11.6327C9.0012 12.4568 9.32382 14.7901 11.7671 17.2345Z" fill="currentColor"></path>
  </symbol>
  <symbol xmlns="http://www.w3.org/2000/svg" viewBox="0 0 29 29" id="ic_zoom">
    <path d="M4.83331 24.1666V18.1249H6.04165V22.1028L10.3916 17.7528L11.2471 18.6083L6.89715 22.9583H10.875V24.1666H4.83331ZM18.125 24.1666V22.9583H22.1028L17.7528 18.6083L18.6083 17.7528L22.9583 22.1028V18.1249H24.1666V24.1666H18.125ZM10.3916 11.2471L6.04165 6.89709V10.8749H4.83331V4.83325H10.875V6.04159H6.89715L11.2471 10.3916L10.3916 11.2471ZM18.6083 11.2471L17.7528 10.3916L22.1028 6.04159H18.125V4.83325H24.1666V10.8749H22.9583V6.89709L18.6083 11.2471Z" fill="currentColor"></path>
  </symbol>
</svg>